<?xml version="1.0" encoding="UTF-8"?>
<svg id="Layer_1" data-name="Layer 1" xmlns="http://www.w3.org/2000/svg" width="375" height="416.875" version="1.1" viewBox="0 0 375 416.875">
  <path d="M353.948,334.733c-.26-2.233-2.148-3.987-4.448-3.987H18.5c-2.299,0-4.188,1.754-4.448,3.987h-.052v5h340v-5h-.052Z" fill="#9dc5ff" stroke-width="0"/>
  <path d="M353.948,225c-.26-2.233-2.148-3.987-4.448-3.987H18.5c-2.299,0-4.188,1.754-4.448,3.987h-.052v5h340v-5h-.052Z" fill="#9dc5ff" stroke-width="0"/>
  <path d="M353.948,67c-.26-2.233-2.148-3.987-4.448-3.987H18.5c-2.299,0-4.188,1.754-4.448,3.987h-.052v5h340v-5h-.052Z" fill="#9dc5ff" stroke-width="0"/>
  <path d="M161.342,220.635c27.379,8.198,57.922-1.064,62.263-2.479,4.698-1.533,3.23-.879,6.542-1.447,3.319-.568,9.13-1.737,12.227-2.108,3.1-.373,5.501-1.14,9.653.238,8.547,2.835,17.758,4.28,26.767,3.589,5.755-.441,10.855-2.727,16.41-3.931,4.227-.916,10.714-1.819,14.831-1.676,2.645.092,4.272,1.707,6.6,3.439,4.736,1.574,7.239.735,10.683-3.856,2.069-2.762,4.477-1.776,6.97-3.913,1.654-1.418,4.51-6.871.974-7.735-1.743-.426-4.955,2.646-6.847,2.941-5.265.815-11.647,1.561-17.153,1.53-2.285-.013-17.827-5.748-21.206-5.904-3.386-.155-3.7.032-8.075-.99-4.373-1.023-16.569-1.792-20.518-.943-3.942.844-5.386.984-10.389.237-5.002-.745-19.485-3.262-25.194-2.083-5.711,1.174-14.182-.036-19.509-.491-5.324-.449-21.837-1.859-25.727-2.245" fill="#e3e3e3" stroke-width="0"/>
  <path d="M65.515,330.869c5.458-.07,10.916.133,16.375.008,1.999-.046,4.178.68,5.758-.945,2.638-2.711,1.264-14.713.309-17.958-.617-2.098-.893-3.756-2.912-4.97-1.604-.964-3.546-1.25-5.336-1.696-3.243-.807-6.46-1.38-9.814-1.001-3.912.442-7.737,1.75-11.675,1.892-4.007.144-8.25.614-12.238-.027-3.158-.508-6.269-1.976-9.413-2.703-2.564-.593-5.161-.482-7.755-.314-3.469.225-8.481,5.856-9.354,8.82-.392,1.332-.665,2.85-.944,4.526-.383,2.302-1.025,10.181.182,12.38,1.452,2.645,4.558,1.864,6.836,1.956,5.337.215,10.674-.037,16.011.032,0,0,23.969,0,23.969,0Z" fill="#fff3d1" stroke-width="0"/>
  <path d="M65.515,221c5.458-.07,10.916.133,16.375.008,1.999-.046,4.178.68,5.758-.945,2.638-2.711,1.264-14.713.309-17.958-.617-2.098-.893-3.756-2.912-4.97-1.604-.964-3.546-1.25-5.336-1.696-3.243-.807-6.46-1.38-9.814-1.001-3.912.442-7.737,1.75-11.675,1.892-4.007.144-8.25.614-12.238-.027-3.158-.508-6.269-1.976-9.413-2.703-2.564-.593-5.161-.482-7.755-.314-3.469.225-8.481,5.856-9.354,8.82-.392,1.332-.665,2.85-.944,4.526-.383,2.302-1.025,10.181.182,12.38,1.452,2.645,4.558,1.864,6.836,1.956,5.337.215,10.674-.037,16.011.032,0,0,23.969,0,23.969,0Z" fill="#fff3d1" stroke-width="0"/>
  <path d="M99.985,291.578c-3.696-.069-10.396,1.867-12.222,1.797,0,0-1.983.507-4.058-.002-4.131-1.013-6.188-2.558-7.584-3.717-3.221-2.674-5.225-4.958-9.041-6.593-1.831-.785-7.753-1.856-9.599-1.628-4.236.523-6.949,1.192-9.537,3.441-1.936,1.682-3.719,3.977-4.743,6.052-1.104,2.067-1.837,5.468-1.777,8.713.056,3.03.973,6.744,4.1,11.34,3.042,3.878,6.132,5.278,8.914,5.76.712.123,2.356.193,3.174.282.613.067,1.635.328,2.184.807.547.478,3.774,2.832,4.727,3.522.953.691,1.737-1.301,1.794-1.506.138-.502.19-.934.408-1.301.255-.431.878-.541,1.69-.109.401.215,1.278.865,2.044.477.545-.276.853-.844.89-1.016-.176.703.53,1.913,1.588,1.364.201-.104.509-.332.73-.428.441-.191.818-.237,1.284-.392,1.296-.432,1.911.202,2.88-.395,1.711-1.055,2.013-5.455,1.933-6.35-.121-1.362.721-5.33,2.015-5.474,1.255-.14,4.746.585,4.746.585,2.803,1.101,11.976,8.691,12.976,12.691" fill="#e3e3e3" stroke-width="0"/>
  <path d="M100,156c-8.633-.578-6.064.054-6.967,2.381-1.935,1.825-3.412,4.265-4.465,6.548-.764,1.654-1.416,2.779-2.26,3.894-.803,1.059-1.787,2.109-3.217,3.599-1.989,2.068-2.688,2.074-4.261,1.868.787,2.442,1.262,5.022,1.382,7.679.094,2.1-.12,4.151-.584,6.127,1.722,3.508,2.754,7.427,2.938,11.529.03.662.02,1.318-.009,1.971.293,1.175.437,2.233.429,3.018-.009,1.02.027,1.729.12,2.273-1.651,2.176,3.194,10.397,12.179,11.145,6.332.522,21.606-.604,26.467-.364,4.857.241,7.94-.536,10.831.125,2.894.659,5.257,1.921,10.176,3.017,4.915,1.095,12.326,1.376,16.559.806,3.265-.439,16.63-3.253,22.983-3.484l17.919-54.621c-8.274-4.747-15.395-4.528-20.611-4.434-2.832.049-5.785.46-9.04,1.068l-28.67,6.142-41.898-10.282Z" fill="#e3e3e3" stroke-width="0"/>
  <path d="M73.659,322.573c.379-.079.62-.3.843-.651.263-.408.393-.497.488-.65.097-.152.127-.028.333.185.156.165.437.103.583.095.316-.027.273-.167.505-.367.234-.198.231-.237.231-.237,0,0-.916-1.683-1.18-2.895-.153-.702.118-.698-.253.021-.322.633-.863,1.31-1.154,2.013-.442,1.086-.395,2.487-.395,2.487Z" fill="none" stroke="#e4aa96" stroke-width=".598"/>
  <path d="M348.088,325.487c-.463-1.706-2.148-3.911-8.122-6.911-9.561-4.8-7.117-4.525-11.153-8.815-4.233-4.494-7.003-5.083-11.853-2.81-2.583,1.212-4.131,3.748-9.64,4.248-3.988.363-10.101.241-17.732-2.66-7.633-2.901-22.666-4.719-28.141-3.959-5.939.825-7.043,1.65-11.965,3.261-4.927,1.606-16.13-.574-21.606-1.847-5.794-1.348-11.671-2.347-17.481-3.628-3.356-.74-6.598-1.583-9.818-2.71-3.487-1.22-6.591-3.257-10.07-4.466-3.722-1.294-8.118-2.548-12.103-2.243-4.488.345-9.827,2.237-16.27,5.396-6.443,3.164-13.549,3.141-18.286,3.213-4.742.072-20.336-4.766-24.707-7.312-4.371-2.541-15.112-3.765-21.208-2.695-3.643.64-9.847,3.822-11.654,4.104l-.137.011c.903,3.526,1.127,7.216.558,10.788.377.874.727,1.761,1.059,2.653,2.978.623,8.001,4.237,9.453,6.893,1.471,2.688,3.477,5.139,5.516,6.8,2.039,1.662,5.074,4.679,7.353,6.875,2.28,2.197,14.158,1.36,16.259,1.443,2.102.086,7.073.812,11.593-.32,4.518-1.134,8.996-1.218,13.431-.249,4.434.969,13.398.538,16.847-.11,3.445-.653,6.894-1.304,8.186-.723,1.294.577,6.033.504,14.674,1.645,8.616,1.131,18.069-.594,26.614-1.642,4.419-.542,8.844-2.124,13.231-2.89,8.431-1.473,16.59,3.429,24.311-1.313,2.778-1.706,10.626-3.402,13.327-3.442,2.905-.041,11.319.627,17.392.727,2.659.043,6.52-.363,13.766-.363,3.512,0,8.886-.792,11.958-.725,4.475.096,6.882,1.812,10.507,2.535,5.375,1.075,15.757,2.344,15.757,2.344,0,0,2.537.936,4.187,1.557,5.052,1.897,7.252,2.058,5.971-2.655Z" fill="#e3e3e3" stroke-width="0"/>
  <path d="M69.924,321.695c.069.061.165.112.22.187.05.067.081.165.114.241.049.109.084.248.045.374-.049.157-.189.294-.286.424-.123.165-.193.359-.286.541-.179.351-.532.819-.155,1.168.165.153.412.199.58.026.13-.133.27-.4.155-.573-.067-.101-.169-.138-.286-.116-.102.019-.166.096-.209.183-.015.031-.028.063-.044.093-.01.019-.021.038-.032.056.07-.022.141-.043.211-.065-.013,0-.044-.026-.027-.023.014.053.02.061.018.023-.001-.013,0-.026.006-.038.017-.085.06-.166.098-.244.158-.322.331-.635.548-.92.211-.278.281-.604.13-.929-.065-.14-.167-.247-.295-.331-.149-.098-.293-.107-.463-.147-.038-.009-.074.041-.041.07h0Z" fill="#e4aa96" stroke-width="0"/>
  <g>
    <g>
      <path d="M62.162,319.646c.496-.041,1.505-.052,1.757-.401.176-.249-.035-.424-.086-.567-.045-.141-.407-.188-.692-.162-.287.024-.458.041-.458.041l-.52,1.09Z" fill="#000" stroke-width="0"/>
      <path d="M62.162,319.765c.418-.034.842-.041,1.253-.136.181-.042.367-.102.512-.222.185-.153.22-.387.114-.596-.038-.075-.079-.161-.125-.231-.058-.086-.166-.129-.263-.153-.255-.065-.517-.033-.776-.01-.106.01-.254-.006-.31.1-.053.1-.098.205-.146.307-.121.253-.242.506-.363.76-.066.138.14.26.207.121.173-.363.347-.727.52-1.09-.034.02-.069.04-.103.059.216-.021.436-.053.654-.047.115.003.254.009.357.068.007.004.025.017.025.017,0,0,.018.042.024.055.023.047.053.091.078.136.246.444-.636.534-.894.562-.254.028-.51.038-.765.059-.152.012-.154.252,0,.239Z" fill="#e4aa96" stroke-width="0"/>
    </g>
    <g>
      <g>
        <path d="M61.126,321.153c.972-1.409,1.839-2.935,2.292-4.606.005-.02-.005-.047-.027-.051-.021-.005-.045.007-.051.03-.474,1.655-1.324,3.17-2.23,4.624,0,0,0,.008.003.008.005.003.01.001.013-.005h0Z" fill="#000" stroke="#e4aa96"/>
        <path d="M64.783,320.229c-.758-1.057-1.299-2.342-1.306-3.651.002-.03-.017-.053-.038-.053-.034,0-.052.021-.053.048-.006,1.323.534,2.661,1.385,3.663.003,0,.009.004.01,0,.002,0,.002-.009.002-.007h0Z" fill="#000" stroke="#e4aa96"/>
        <path d="M64.133,319.298c.068.101.191.169.311.156.209-.027.45-.232.419-.48.001-.019-.012-.043-.037-.047s-.05.016-.048.041c.002.192-.152.349-.325.405-.106.036-.226-.009-.31-.089-.005-.002-.012,0-.012.002-.005.002-.005.004.002.011h0Z" fill="#000" stroke="#e4aa96"/>
        <path d="M66.206,319.888c-.774-.311-1.276-1.01-1.672-1.706-.007-.025-.038-.035-.061-.03-.029.014-.038.037-.033.063.392.733.949,1.428,1.761,1.685.005,0,.007,0,.011-.002,0-.004-.002-.012-.006-.01h0Z" fill="#000" stroke="#e4aa96"/>
        <path d="M62.166,319.548c-.212.14-.451.167-.681.015-.167-.117-.291-.293-.309-.496-.007-.027-.027-.05-.054-.046-.029.003-.046.026-.045.056,0,.245.169.443.373.573.244.15.545.159.727-.089.005.001.005-.006.001-.017-.001,0-.005-.002-.011.004h0Z" fill="#000" stroke="#e4aa96"/>
        <path d="M59.931,320.006c.533-.094,1.083-.404,1.159-.995.148-1.205.806-2.095,1.507-3.013.106-.14.164-.298.226-.461.01-.016.003-.037-.023-.048-.015-.012-.036,0-.048.021-.059.152-.136.292-.23.428-.455.665-.989,1.213-1.275,1.964-.166.453-.152.926-.341,1.358-.173.401-.578.612-.981.733-.003-.001-.01.004-.004.008,0,.005.004.008.009.005h0Z" fill="#000" stroke="#e4aa96"/>
        <path d="M59.409,322.643c.322-.112.46-.473.576-.764.008-.013,0-.025-.01-.028-.009-.008-.023,0-.028.006-.144.272-.238.637-.545.771,0,0-.002.008-.006.011.006.002.011.01.013.005h0Z" fill="#000" stroke="#e4aa96"/>
        <path d="M59.072,322.461c.324-.211.585-.592.691-.967.005-.017-.004-.022-.011-.025-.016-.005-.024.005-.029.014-.131.364-.355.726-.659.965-.002,0-.002.009-.002.012,0,.002.003.005.01.002h0Z" fill="#000" stroke="#e4aa96"/>
        <path d="M58.8,322.214c.451-.288.635-.859.883-1.314.01-.012.003-.031-.013-.036-.007-.01-.029.004-.033.01-.263.451-.423.988-.845,1.321-.001.005-.005.007-.003.013.002.004.004.005.011.006h0Z" fill="#000" stroke="#e4aa96"/>
        <path d="M58.544,321.618c.034,0,.071.004.095-.011.453-.358.722-.821,1.05-1.265.008-.009.005-.029-.009-.042-.01-.011-.031-.004-.042.01-.365.439-.636.98-1.095,1.314,0-.009.002-.015.002-.02-.004,0-.008.009-.008.009-.001.005.002.008.006.005h0Z" fill="#000" stroke="#e4aa96"/>
        <path d="M58.63,320.891c.501-.23.779-.767,1.038-1.23.004-.012.003-.025-.005-.033-.016-.01-.024-.005-.032.008-.286.444-.531.976-1.006,1.238-.008,0-.008.009-.009.014.001.002.009.002.014.003h0Z" fill="#000" stroke="#e4aa96"/>
        <path d="M58.782,320.156c.484-.271.864-.693,1.19-1.139.011-.007.005-.019-.004-.026-.004-.007-.017-.003-.023.004-.344.427-.712.843-1.169,1.146-.008.004-.008.009,0,.009,0,.011.001.007.006.007h0Z" fill="#000" stroke="#e4aa96"/>
        <path d="M59.082,319.303c.494-.215.893-.598,1.184-1.048.009-.011.01-.023-.001-.033-.014-.007-.028-.007-.036.004-.298.439-.678.819-1.153,1.06-.004.002-.006.008-.003.008,0,.01.008.014.009.01h0Z" fill="#000" stroke="#e4aa96"/>
        <path d="M59.456,318.436c.421-.271.822-.602,1.087-1.026.003-.008.005-.022-.007-.029-.009-.012-.021-.005-.026,0-.283.409-.662.751-1.055,1.043-.005.001-.007.008-.005.01-.001.003.006.003.007.003h0Z" fill="#000" stroke="#e4aa96"/>
        <path d="M59.986,317.672c.327-.236.674-.48.899-.832.004-.007.003-.021-.007-.027-.009-.002-.017,0-.027.009-.231.337-.564.577-.877.838-.004,0-.006.002-.004.007.003.007.009.006.016.006h0Z" fill="#000" stroke="#e4aa96"/>
        <path d="M60.356,317.009c.292-.213.577-.455.735-.791.001-.009.001-.023-.007-.023-.012-.012-.024-.005-.028.001-.168.323-.435.573-.711.802-.003.004-.003.006,0,.012.006,0,.011.004.011-.001h0Z" fill="#000" stroke="#e4aa96"/>
        <path d="M60.723,316.3c.215-.248.482-.448.647-.735.006-.002.006-.013-.004-.014-.004-.008-.013-.008-.015.004-.178.274-.436.483-.642.73-.002.007-.002.01,0,.015.003.003.009.006.014,0h0Z" fill="#000" stroke="#e4aa96"/>
      </g>
      <path d="M75.022,321.229c.019-.453.119-.901.134-1.36.027-.733.166-1.417.327-2.112,0-.013-.012-.03-.024-.037-.015.005-.028.014-.03.028-.097.362-.222.709-.259,1.096-.068.818-.2,1.587-.161,2.388t.005.007c.006,0,.007,0,.007-.009h0Z" fill="#000" stroke="#e4aa96"/>
    </g>
  </g>
  <g>
    <g>
      <path d="M111.795,309.989c-9.74,8.04-29.73,15.42-33.894,16.757-1.128.361-5.551,4.106-8.88,3.814-3.33-.296-12.367-2.403-19.733-10.091-3.816-3.983-6.642-6.048-6.642-6.048-3.136-.511-3.92-.832-6.281-2.198-2.363-1.365-3.153-2.078-1.983-2.969,1.168-.894-.018-1.962-.018-1.962-.274-1.293-.049-3.052,1.332-3.459.88-.259,1.702-.909,1.359-1.893-.057-.163,3.664-2.622,4.083-2.913,0,0,.585-.248,2.155.4,1.829.755,3.655.855,4.548,2.826.559,1.233.915,3.008.804,4.365,0,0-.177,2.177,3.938,2.793,4.118.623,7.652,2.15,11.276,3.6,2.732,1.093,8.857.265,11.331-1.281,2.477-1.546,17.979-12.133,21.676-14.124" fill="#e3e3e3" stroke-width="0"/>
      <path d="M111.819,310.018c-9.815,7.617-21.568,12.351-33.134,16.643-3.081,1.144-5.537,3.873-8.994,4.103-7.474-.531-14.581-4.306-19.924-9.461-2.147-2.251-5.154-4.99-7.169-6.603-2.231-.272-4.49-.997-6.384-2.216-1.042-.658-3.733-1.869-2.219-3.319.695-.473.765-1.02.15-1.633,0,0-.082-.08-.082-.08l-.018-.094c-.257-1.211-.139-2.932,1.118-3.661.539-.264,1.388-.449,1.58-1.05.153-.338-.184-.732.093-1.005.975-.915,3.045-2.133,4.134-2.943.837-.236,1.572.073,2.33.334,1.311.564,2.772.75,3.913,1.74,1.371,1.321,1.679,3.284,1.818,5.083-.082,1.099.093,1.74,1.071,2.352.539.334,1.172.549,1.822.7,4.137.561,8.149,2.137,11.987,3.755,1.22.479,2.619.544,3.98.516,2.697-.147,5.549-.546,7.823-2.101,0,0,6.986-4.586,6.986-4.586,4.658-2.958,9.397-6.38,14.181-8.854-4.095,2.45-9.907,6.504-13.947,9.204-1.451.909-7.337,5.16-8.801,5.715-3.318,1.171-7.029,1.813-10.476.742-3.883-1.553-7.712-3.078-11.896-3.66-.705-.165-1.411-.398-2.058-.799-.636-.398-1.234-1.022-1.4-1.861-.077-.493.02-.753-.017-1.1-.037-1-.238-2.009-.575-2.949-.407-1.339-1.392-2.101-2.701-2.505-1.2-.388-3.03-1.154-3.668-1.101-.948.713-3.005,1.94-3.892,2.694-.05.038-.067.062-.104.092-.028.031.071-.073.062-.146.009-.086-.047-.169-.025-.118.105.325.13.694.003,1.036-.24.608-.76.946-1.25,1.152-.413.147-.831.257-1.09.638-.489.665-.545,1.675-.37,2.552l-.1-.173c.489.47.849,1.228.485,1.889-.153.315-.49.559-.642.689-.667.56.131,1.013.693,1.459,2.403,1.689,4.806,2.684,7.697,3.103,2.654,2.032,5.013,4.385,7.317,6.745,4.646,4.626,10.697,7.872,17.128,9.16,3.327.967,6.352-.913,9.066-2.655.684-.458,1.467-.897,2.255-1.099,11.593-4.119,23.408-9.054,33.241-16.325h0Z" fill="#b9b9b9" stroke-width="0"/>
    </g>
    <g>
      <path d="M40.273,311.485c.592.534.989,1.284,1.582,1.823.395.357.789.713.598,1.32" fill="#e3e3e3" stroke-width="0"/>
      <path d="M40.196,311.562c.495.479.836,1.084,1.285,1.602.197.227.439.416.624.653.082.106.162.223.199.353.041.147.023.308.006.458-.016.14.206.195.266.072.146-.301.121-.629-.041-.92-.159-.287-.441-.479-.675-.699-.549-.516-.94-1.177-1.51-1.673-.104-.091-.255.055-.154.154h0Z" fill="#b9b9b9" stroke-width="0"/>
    </g>
    <g>
      <path d="M46.289,306.04c.792.717,1.583,1.436,2.564,1.936" fill="#e3e3e3" stroke-width="0"/>
      <path d="M46.193,306.136c.387.398.773.797,1.188,1.166.212.189.432.368.659.538.109.082.22.159.332.236.062.042.123.092.188.128.089.049.193.052.292.056.111.005.22-.075.26-.175.046-.115.015-.217-.059-.311-.052-.066-.098-.123-.173-.164-.06-.032-.126-.055-.188-.084-.122-.059-.241-.124-.358-.191-.232-.132-.458-.275-.678-.427-.439-.301-.855-.633-1.272-.965-.133-.106-.317.063-.192.192h0Z" fill="#b9b9b9" stroke-width="0"/>
    </g>
    <g>
      <path d="M44.886,302.038c-.796-1.106-1.978-2.182-2.967-3.076" fill="#e3e3e3" stroke-width="0"/>
      <path d="M45.039,301.949c-.4-.616-.87-1.186-1.361-1.731-.247-.274-.5-.541-.757-.805-.251-.258-.525-.551-.857-.697-.248-.109-.541.122-.39.39.176.312.471.546.742.774.283.237.563.477.837.724.537.484,1.055.994,1.509,1.559.125.156.385-.047.277-.214h0Z" fill="#b9b9b9" stroke-width="0"/>
    </g>
  </g>
  <path d="M64.098,330.584c0-2.702,2.19-4.892,4.891-4.892s4.891,2.189,4.891,4.892-2.19,4.89-4.891,4.89-4.891-2.189-4.891-4.89Z" fill="#ff0087" stroke-width="0"/>
  <path d="M126.05,330.584c0-2.702,2.189-4.892,4.891-4.892s4.892,2.189,4.892,4.892-2.19,4.89-4.892,4.89-4.891-2.189-4.891-4.89Z" fill="#ff0087" stroke-width="0"/>
  <path d="M191.263,330.584c0-2.702,2.189-4.892,4.892-4.892s4.89,2.189,4.89,4.892-2.188,4.89-4.89,4.89-4.892-2.189-4.892-4.89Z" fill="#ff0087" stroke-width="0"/>
  <path d="M244.518,330.584c0-2.702,2.191-4.892,4.893-4.892s4.892,2.189,4.892,4.892-2.191,4.89-4.892,4.89-4.893-2.189-4.893-4.89Z" fill="#ff0087" stroke-width="0"/>
  <path d="M337.227,330.584c0-2.702,2.188-4.892,4.891-4.892s4.893,2.189,4.893,4.892-2.191,4.89-4.893,4.89-4.891-2.189-4.891-4.89Z" fill="#ff0087" stroke-width="0"/>
  <g>
    <path d="M17.913,88.617v-10.021h3.76c.766,0,1.38.102,1.842.305.462.202.825.515,1.087.936.262.422.393.863.393,1.323,0,.429-.116.832-.349,1.21s-.583.684-1.053.916c.606.178,1.072.48,1.398.909s.489.935.489,1.518c0,.47-.099.905-.297,1.31-.198.402-.443.714-.735.933s-.657.384-1.097.495c-.44.112-.979.168-1.617.168h-3.821ZM19.239,82.807h2.167c.588,0,1.009-.039,1.265-.116.337-.101.591-.267.762-.499s.256-.524.256-.875c0-.333-.08-.625-.239-.879-.16-.252-.387-.426-.684-.52-.296-.093-.804-.14-1.524-.14h-2.003v3.028ZM19.239,87.435h2.495c.428,0,.729-.016.902-.048.305-.055.561-.146.766-.273s.374-.313.506-.557c.132-.244.198-.525.198-.845,0-.374-.096-.698-.287-.974-.191-.276-.457-.47-.796-.582-.339-.111-.828-.167-1.466-.167h-2.317v3.445Z" fill="#333" stroke-width="0"/>
    <path d="M31.886,87.722c-.456.388-.895.661-1.316.82s-.874.239-1.357.239c-.797,0-1.411-.195-1.839-.584-.428-.391-.643-.888-.643-1.494,0-.355.081-.68.243-.975.162-.293.374-.529.636-.707s.557-.312.885-.403c.242-.063.606-.125,1.094-.185.994-.118,1.725-.26,2.194-.424.004-.169.007-.275.007-.321,0-.501-.116-.854-.349-1.06-.314-.278-.782-.417-1.401-.417-.579,0-1.006.102-1.282.304-.276.203-.479.562-.612,1.077l-1.203-.164c.109-.515.29-.931.54-1.247.25-.317.613-.561,1.087-.732.474-.17,1.023-.256,1.647-.256.62,0,1.124.073,1.511.219s.672.329.854.551c.182.221.31.5.383.837.041.21.062.588.062,1.135v1.641c0,1.144.026,1.867.079,2.171.052.303.156.593.311.871h-1.285c-.127-.255-.209-.554-.246-.896ZM31.783,84.974c-.447.183-1.117.337-2.01.465-.506.073-.864.155-1.073.246s-.372.225-.485.399c-.114.176-.171.371-.171.585,0,.328.124.602.373.82s.612.328,1.09.328c.474,0,.896-.104,1.265-.312.369-.207.64-.49.813-.851.132-.278.198-.688.198-1.23v-.451Z" fill="#333" stroke-width="0"/>
    <path d="M39.672,85.958l1.21.157c-.132.834-.471,1.486-1.015,1.959-.544.471-1.213.707-2.006.707-.994,0-1.792-.324-2.396-.975-.604-.648-.906-1.58-.906-2.792,0-.784.13-1.47.39-2.058s.655-1.029,1.186-1.322c.531-.295,1.108-.441,1.733-.441.789,0,1.433.199,1.935.598.501.399.823.966.964,1.699l-1.196.185c-.114-.487-.315-.854-.605-1.101s-.639-.369-1.049-.369c-.62,0-1.124.223-1.511.666-.387.445-.581,1.147-.581,2.109,0,.976.187,1.684.561,2.126s.861.663,1.463.663c.483,0,.886-.148,1.21-.444s.529-.752.615-1.367Z" fill="#333" stroke-width="0"/>
    <path d="M41.941,88.617v-10.021h1.23v5.715l2.912-2.953h1.593l-2.775,2.693,3.056,4.566h-1.518l-2.399-3.712-.868.834v2.878h-1.23Z" fill="#333" stroke-width="0"/>
    <path d="M17.353,99.987c0-1.345.374-2.34,1.121-2.987.625-.538,1.385-.807,2.283-.807.998,0,1.814.327,2.447.98.633.654.95,1.558.95,2.711,0,.935-.14,1.669-.42,2.205-.28.535-.688.951-1.224,1.247s-1.12.444-1.753.444c-1.016,0-1.838-.326-2.464-.978s-.94-1.591-.94-2.816ZM18.617,99.987c0,.93.203,1.626.608,2.089.406.462.916.693,1.531.693.611,0,1.119-.232,1.524-.697s.608-1.174.608-2.126c0-.897-.204-1.578-.612-2.04-.408-.463-.915-.694-1.521-.694-.615,0-1.125.23-1.531.69s-.608,1.155-.608,2.085Z" fill="#333" stroke-width="0"/>
    <path d="M25.891,103.617v-6.303h-1.087v-.957h1.087v-.772c0-.487.043-.85.13-1.087.119-.319.327-.578.625-.775.298-.199.717-.298,1.254-.298.346,0,.729.041,1.148.123l-.185,1.073c-.255-.046-.497-.068-.725-.068-.374,0-.638.08-.793.239s-.232.458-.232.896v.67h1.415v.957h-1.415v6.303h-1.224Z" fill="#333" stroke-width="0"/>
    <path d="M36.062,102.517l.178,1.087c-.346.073-.656.109-.93.109-.447,0-.793-.07-1.039-.212s-.419-.327-.52-.558c-.1-.229-.15-.714-.15-1.452v-4.177h-.902v-.957h.902v-1.798l1.224-.738v2.536h1.237v.957h-1.237v4.245c0,.351.021.576.065.677s.114.18.212.239.238.089.42.089c.137,0,.317-.016.54-.048Z" fill="#333" stroke-width="0"/>
    <path d="M37.266,103.617v-10.021h1.23v3.596c.574-.665,1.299-.998,2.174-.998.538,0,1.005.105,1.401.318.396.211.68.504.851.878s.256.916.256,1.627v4.601h-1.23v-4.601c0-.615-.133-1.063-.4-1.343-.267-.281-.644-.421-1.131-.421-.365,0-.708.095-1.029.284-.321.188-.55.445-.687.769s-.205.771-.205,1.34v3.972h-1.23Z" fill="#333" stroke-width="0"/>
    <path d="M50.021,101.279l1.271.157c-.201.743-.572,1.319-1.114,1.729s-1.235.615-2.078.615c-1.062,0-1.904-.327-2.526-.98-.622-.654-.933-1.571-.933-2.752,0-1.222.314-2.169.943-2.844s1.445-1.012,2.447-1.012c.971,0,1.764.33,2.379.991s.923,1.591.923,2.789c0,.073-.002.183-.007.328h-5.414c.045.798.271,1.408.677,1.832s.912.636,1.518.636c.451,0,.836-.118,1.155-.355s.572-.615.759-1.135ZM45.981,99.29h4.054c-.055-.61-.209-1.068-.465-1.374-.392-.474-.9-.711-1.524-.711-.565,0-1.04.189-1.425.567s-.598.884-.639,1.518Z" fill="#333" stroke-width="0"/>
    <path d="M17.811,118.117v-10.021h1.23v3.596c.574-.665,1.299-.998,2.174-.998.538,0,1.005.105,1.401.318.396.211.68.504.851.878s.256.916.256,1.627v4.601h-1.23v-4.601c0-.615-.133-1.063-.4-1.343-.267-.281-.644-.421-1.131-.421-.365,0-.708.095-1.029.284-.321.188-.55.445-.687.769s-.205.771-.205,1.34v3.972h-1.23Z" fill="#333" stroke-width="0"/>
    <path d="M30.566,115.779l1.271.157c-.201.743-.572,1.319-1.114,1.729s-1.235.615-2.078.615c-1.062,0-1.904-.327-2.526-.98-.622-.654-.933-1.571-.933-2.752,0-1.222.314-2.169.943-2.844s1.445-1.012,2.447-1.012c.971,0,1.764.33,2.379.991s.923,1.591.923,2.789c0,.073-.002.183-.007.328h-5.414c.045.798.271,1.408.677,1.832s.912.636,1.518.636c.451,0,.836-.118,1.155-.355s.572-.615.759-1.135ZM26.526,113.79h4.054c-.055-.61-.209-1.068-.465-1.374-.392-.474-.9-.711-1.524-.711-.565,0-1.04.189-1.425.567s-.598.884-.639,1.518Z" fill="#333" stroke-width="0"/>
    <path d="M38.12,117.222c-.456.388-.895.661-1.316.82s-.874.239-1.357.239c-.797,0-1.411-.195-1.839-.584-.428-.391-.643-.888-.643-1.494,0-.355.081-.68.243-.975.162-.293.374-.529.636-.707s.557-.312.885-.403c.242-.063.606-.125,1.094-.185.994-.118,1.725-.26,2.194-.424.004-.169.007-.275.007-.321,0-.501-.116-.854-.349-1.06-.314-.278-.782-.417-1.401-.417-.579,0-1.006.102-1.282.304-.276.203-.479.562-.612,1.077l-1.203-.164c.109-.515.29-.931.54-1.247.25-.317.613-.561,1.087-.732.474-.17,1.023-.256,1.647-.256.62,0,1.124.073,1.511.219s.672.329.854.551c.182.221.31.5.383.837.041.21.062.588.062,1.135v1.641c0,1.144.026,1.867.079,2.171.052.303.156.593.311.871h-1.285c-.127-.255-.209-.554-.246-.896ZM38.018,114.474c-.447.183-1.117.337-2.01.465-.506.073-.864.155-1.073.246s-.372.225-.485.399c-.114.176-.171.371-.171.585,0,.328.124.602.373.82s.612.328,1.09.328c.474,0,.896-.104,1.265-.312.369-.207.64-.49.813-.851.132-.278.198-.688.198-1.23v-.451Z" fill="#333" stroke-width="0"/>
    <path d="M45.879,118.117v-.916c-.46.72-1.137,1.08-2.03,1.08-.579,0-1.111-.159-1.596-.479s-.861-.765-1.128-1.336c-.267-.572-.4-1.229-.4-1.973,0-.725.121-1.382.362-1.973.242-.59.604-1.042,1.087-1.356s1.023-.472,1.62-.472c.438,0,.827.092,1.169.277.342.184.62.425.834.721v-3.596h1.224v10.021h-1.142ZM41.989,114.494c0,.93.196,1.625.588,2.085s.854.69,1.388.69c.538,0,.995-.22,1.371-.66.376-.439.564-1.11.564-2.013,0-.993-.191-1.723-.574-2.188s-.854-.697-1.415-.697c-.547,0-1.004.224-1.371.67s-.55,1.15-.55,2.112Z" fill="#333" stroke-width="0"/>
  </g>
  <g>
    <path d="M18.414,242.987l1.251-.109c.059.501.197.913.414,1.233.216.322.553.582,1.008.779.456.199.968.298,1.538.298.506,0,.953-.075,1.34-.226s.676-.356.865-.619c.189-.262.284-.548.284-.857,0-.314-.091-.589-.273-.824-.182-.234-.483-.432-.902-.591-.269-.104-.864-.268-1.784-.489-.92-.221-1.565-.429-1.935-.625-.479-.251-.835-.562-1.07-.934-.235-.371-.352-.787-.352-1.247,0-.506.144-.979.431-1.419.287-.439.707-.773,1.258-1.001s1.165-.342,1.839-.342c.743,0,1.398.12,1.965.358.567.24,1.004.592,1.309,1.057s.469.991.492,1.579l-1.271.096c-.068-.634-.3-1.112-.694-1.436s-.977-.485-1.747-.485c-.802,0-1.387.146-1.753.441-.367.293-.55.647-.55,1.062,0,.36.13.656.39.889.255.232.922.471,2,.715,1.078.243,1.817.456,2.218.639.583.269,1.014.609,1.292,1.021.278.413.417.888.417,1.426,0,.533-.153,1.035-.458,1.508-.305.471-.744.838-1.316,1.1-.572.263-1.216.394-1.931.394-.907,0-1.667-.132-2.28-.396s-1.094-.662-1.442-1.192c-.349-.531-.532-1.132-.55-1.802Z" fill="#333" stroke-width="0"/>
    <path d="M27.976,246.207v-10.021h1.23v3.596c.574-.665,1.299-.998,2.174-.998.538,0,1.005.105,1.401.318.396.211.68.504.851.878s.256.916.256,1.627v4.601h-1.23v-4.601c0-.615-.133-1.063-.4-1.343-.267-.281-.644-.421-1.131-.421-.365,0-.708.095-1.029.284-.321.188-.55.445-.687.769s-.205.771-.205,1.34v3.972h-1.23Z" fill="#333" stroke-width="0"/>
    <path d="M35.233,242.577c0-1.345.374-2.34,1.121-2.987.625-.538,1.385-.807,2.283-.807.998,0,1.814.327,2.447.98.633.654.95,1.558.95,2.711,0,.935-.14,1.669-.42,2.205-.28.535-.688.951-1.224,1.247s-1.12.444-1.753.444c-1.016,0-1.838-.326-2.464-.978s-.94-1.591-.94-2.816ZM36.498,242.577c0,.93.203,1.626.608,2.089.406.462.916.693,1.531.693.611,0,1.119-.232,1.524-.697s.608-1.174.608-2.126c0-.897-.204-1.578-.612-2.04-.408-.463-.915-.694-1.521-.694-.615,0-1.125.23-1.531.69s-.608,1.155-.608,2.085Z" fill="#333" stroke-width="0"/>
    <path d="M48.166,246.207v-1.066c-.565.82-1.333,1.23-2.304,1.23-.428,0-.828-.082-1.2-.246s-.647-.37-.827-.619c-.18-.248-.307-.552-.379-.912-.05-.241-.075-.624-.075-1.148v-4.498h1.23v4.026c0,.643.025,1.075.075,1.299.078.323.242.577.492.763.25.184.561.276.93.276s.715-.095,1.039-.284c.324-.188.553-.446.687-.771.134-.326.202-.799.202-1.419v-3.89h1.23v7.26h-1.101Z" fill="#333" stroke-width="0"/>
    <path d="M51.097,246.207v-10.021h1.23v10.021h-1.23Z" fill="#333" stroke-width="0"/>
    <path d="M58.875,246.207v-.916c-.461.72-1.137,1.08-2.031,1.08-.579,0-1.111-.159-1.596-.479s-.861-.765-1.128-1.336c-.267-.572-.4-1.229-.4-1.973,0-.725.121-1.382.362-1.973.242-.59.604-1.042,1.087-1.356s1.023-.472,1.62-.472c.437,0,.828.092,1.169.277.342.184.619.425.834.721v-3.596h1.223v10.021h-1.141ZM54.984,242.584c0,.93.196,1.625.588,2.085s.854.69,1.388.69c.538,0,.995-.22,1.372-.66.375-.439.562-1.11.562-2.013,0-.993-.191-1.723-.574-2.188s-.854-.697-1.415-.697c-.547,0-1.004.224-1.371.67s-.55,1.15-.55,2.112Z" fill="#333" stroke-width="0"/>
    <path d="M66.85,243.869l1.271.157c-.2.743-.572,1.319-1.114,1.729s-1.235.615-2.078.615c-1.062,0-1.903-.327-2.526-.98-.621-.654-.933-1.571-.933-2.752,0-1.222.314-2.169.943-2.844s1.444-1.012,2.447-1.012c.971,0,1.764.33,2.379.991s.923,1.591.923,2.789c0,.073-.002.183-.007.328h-5.414c.046.798.271,1.408.677,1.832s.911.636,1.518.636c.451,0,.836-.118,1.155-.355s.572-.615.759-1.135ZM62.81,241.88h4.054c-.055-.61-.21-1.068-.465-1.374-.392-.474-.9-.711-1.524-.711-.565,0-1.04.189-1.425.567-.386.378-.599.884-.64,1.518Z" fill="#333" stroke-width="0"/>
    <path d="M69.583,246.207v-7.26h1.107v1.101c.282-.515.544-.854.782-1.019.24-.164.503-.246.79-.246.415,0,.836.132,1.265.396l-.424,1.142c-.301-.178-.602-.267-.902-.267-.269,0-.511.081-.725.242-.214.162-.367.387-.458.674-.137.438-.205.916-.205,1.436v3.801h-1.23Z" fill="#333" stroke-width="0"/>
  </g>
  <g>
    <path d="M63.847,85.397l1.251-.109c.059.501.197.913.414,1.233.216.322.553.582,1.008.779.456.199.968.298,1.538.298.506,0,.953-.075,1.34-.226s.676-.356.865-.619c.189-.262.284-.548.284-.857,0-.314-.091-.589-.273-.824-.182-.234-.483-.432-.902-.591-.269-.104-.864-.268-1.784-.489-.92-.221-1.565-.429-1.935-.625-.479-.251-.835-.562-1.07-.934-.235-.371-.352-.787-.352-1.247,0-.506.144-.979.431-1.419.287-.439.707-.773,1.258-1.001s1.165-.342,1.839-.342c.743,0,1.398.12,1.965.358.567.24,1.004.592,1.309,1.057s.469.991.492,1.579l-1.271.096c-.068-.634-.3-1.112-.694-1.436s-.977-.485-1.747-.485c-.802,0-1.387.146-1.753.441-.367.293-.55.647-.55,1.062,0,.36.13.656.39.889.255.232.922.471,2,.715,1.078.243,1.817.456,2.218.639.583.269,1.014.609,1.292,1.021.278.413.417.888.417,1.426,0,.533-.153,1.035-.458,1.508-.305.471-.744.838-1.316,1.1-.572.263-1.216.394-1.931.394-.907,0-1.667-.132-2.28-.396s-1.094-.662-1.442-1.192c-.349-.531-.532-1.132-.55-1.802Z" fill="#333" stroke-width="0"/>
    <path d="M73.479,88.617v-10.021h1.23v3.596c.574-.665,1.299-.998,2.174-.998.538,0,1.005.105,1.401.318.396.211.68.504.851.878s.256.916.256,1.627v4.601h-1.23v-4.601c0-.615-.133-1.063-.4-1.343-.267-.281-.644-.421-1.131-.421-.365,0-.708.095-1.029.284-.321.188-.55.445-.687.769s-.205.771-.205,1.34v3.972h-1.23Z" fill="#333" stroke-width="0"/>
    <path d="M80.807,84.987c0-1.345.374-2.34,1.121-2.987.625-.538,1.385-.807,2.283-.807.998,0,1.814.327,2.447.98.633.654.95,1.558.95,2.711,0,.935-.14,1.669-.42,2.205-.28.535-.688.951-1.224,1.247s-1.12.444-1.753.444c-1.016,0-1.838-.326-2.464-.978s-.94-1.591-.94-2.816ZM82.071,84.987c0,.93.203,1.626.608,2.089.406.462.916.693,1.531.693.611,0,1.119-.232,1.524-.697s.608-1.174.608-2.126c0-.897-.204-1.578-.612-2.04-.408-.463-.915-.694-1.521-.694-.615,0-1.125.23-1.531.69s-.608,1.155-.608,2.085Z" fill="#333" stroke-width="0"/>
    <path d="M93.809,88.617v-1.066c-.565.82-1.333,1.23-2.304,1.23-.428,0-.828-.082-1.2-.246s-.647-.37-.827-.619c-.18-.248-.307-.552-.379-.912-.05-.241-.075-.624-.075-1.148v-4.498h1.23v4.026c0,.643.025,1.075.075,1.299.078.323.242.577.492.763.25.184.561.276.93.276s.716-.095,1.039-.284c.323-.188.553-.446.688-.771.134-.326.201-.799.201-1.419v-3.89h1.23v7.26h-1.101Z" fill="#333" stroke-width="0"/>
    <path d="M96.81,88.617v-10.021h1.23v10.021h-1.23Z" fill="#333" stroke-width="0"/>
    <path d="M104.657,88.617v-.916c-.46.72-1.137,1.08-2.03,1.08-.579,0-1.11-.159-1.597-.479-.484-.319-.861-.765-1.127-1.336-.268-.572-.4-1.229-.4-1.973,0-.725.121-1.382.362-1.973.241-.59.604-1.042,1.087-1.356s1.023-.472,1.62-.472c.438,0,.827.092,1.169.277.342.184.62.425.834.721v-3.596h1.224v10.021h-1.142ZM100.768,84.994c0,.93.196,1.625.588,2.085s.854.69,1.388.69c.538,0,.994-.22,1.371-.66.375-.439.563-1.11.563-2.013,0-.993-.191-1.723-.574-2.188s-.854-.697-1.415-.697c-.547,0-1.004.224-1.371.67-.366.446-.55,1.15-.55,2.112Z" fill="#333" stroke-width="0"/>
    <path d="M112.703,86.279l1.271.157c-.2.743-.572,1.319-1.114,1.729s-1.235.615-2.078.615c-1.062,0-1.903-.327-2.526-.98-.621-.654-.933-1.571-.933-2.752,0-1.222.314-2.169.943-2.844s1.444-1.012,2.447-1.012c.971,0,1.764.33,2.379.991s.923,1.591.923,2.789c0,.073-.002.183-.007.328h-5.414c.046.798.271,1.408.677,1.832s.911.636,1.518.636c.451,0,.836-.118,1.155-.355s.572-.615.759-1.135ZM108.663,84.29h4.054c-.055-.61-.21-1.068-.465-1.374-.392-.474-.9-.711-1.524-.711-.565,0-1.04.189-1.425.567-.386.378-.599.884-.64,1.518Z" fill="#333" stroke-width="0"/>
    <path d="M115.506,88.617v-7.26h1.107v1.101c.282-.515.544-.854.782-1.019.24-.164.503-.246.79-.246.415,0,.836.132,1.265.396l-.424,1.142c-.301-.178-.602-.267-.902-.267-.269,0-.511.081-.725.242-.214.162-.367.387-.458.674-.137.438-.205.916-.205,1.436v3.801h-1.23Z" fill="#333" stroke-width="0"/>
  </g>
  <g>
    <path d="M127.737,88.618v-10.021h7.246v1.183h-5.92v3.069h5.544v1.176h-5.544v3.411h6.152v1.183h-7.479Z" fill="#333" stroke-width="0"/>
    <path d="M136.863,88.618v-10.021h1.23v10.021h-1.23Z" fill="#333" stroke-width="0"/>
    <path d="M141.136,88.618h-1.142v-10.021h1.23v3.575c.52-.651,1.183-.978,1.989-.978.446,0,.869.09,1.269.27.398.181.727.434.984.76.257.325.459.719.604,1.179s.219.952.219,1.477c0,1.244-.308,2.206-.923,2.885s-1.354,1.019-2.215,1.019c-.856,0-1.529-.357-2.017-1.073v.909ZM141.122,84.934c0,.87.118,1.499.355,1.887.388.634.911.95,1.572.95.538,0,1.003-.233,1.395-.701.392-.467.588-1.163.588-2.088,0-.948-.188-1.647-.563-2.099-.377-.451-.831-.677-1.364-.677-.538,0-1.003.233-1.395.701-.392.467-.588,1.143-.588,2.026Z" fill="#333" stroke-width="0"/>
    <path d="M147.329,84.988c0-1.345.374-2.34,1.121-2.987.624-.538,1.386-.807,2.283-.807.998,0,1.813.327,2.447.98.634.654.95,1.558.95,2.711,0,.935-.14,1.669-.421,2.205-.279.535-.688.951-1.223,1.247-.536.296-1.12.444-1.754.444-1.017,0-1.838-.326-2.465-.978-.626-.651-.939-1.591-.939-2.816ZM148.594,84.988c0,.93.203,1.626.608,2.089.405.462.916.693,1.531.693.61,0,1.119-.232,1.524-.697s.608-1.174.608-2.126c0-.897-.204-1.578-.611-2.04-.408-.463-.915-.694-1.521-.694-.615,0-1.126.23-1.531.69s-.608,1.155-.608,2.085Z" fill="#333" stroke-width="0"/>
    <path d="M156.913,88.618l-2.222-7.26h1.271l1.155,4.19.431,1.559c.019-.077.144-.576.376-1.497l1.155-4.252h1.265l1.087,4.211.362,1.388.417-1.401,1.244-4.197h1.196l-2.27,7.26h-1.278l-1.155-4.348-.28-1.237-1.47,5.585h-1.285Z" fill="#333" stroke-width="0"/>
  </g>
  <g>
    <path d="M94.472,246.207v-10.021h7.246v1.183h-5.92v3.069h5.544v1.176h-5.544v3.411h6.152v1.183h-7.479Z" fill="#333" stroke-width="0"/>
    <path d="M103.598,246.207v-10.021h1.23v10.021h-1.23Z" fill="#333" stroke-width="0"/>
    <path d="M107.871,246.207h-1.142v-10.021h1.23v3.575c.52-.651,1.183-.978,1.989-.978.446,0,.869.09,1.269.27.398.181.727.434.984.76.257.325.459.719.604,1.179s.219.952.219,1.477c0,1.244-.308,2.206-.923,2.885s-1.354,1.019-2.215,1.019c-.856,0-1.529-.357-2.017-1.073v.909ZM107.857,242.522c0,.87.118,1.499.355,1.887.388.634.911.95,1.572.95.538,0,1.003-.233,1.395-.701.392-.467.588-1.163.588-2.088,0-.948-.188-1.647-.563-2.099-.377-.451-.831-.677-1.364-.677-.538,0-1.003.233-1.395.701-.392.467-.588,1.143-.588,2.026Z" fill="#333" stroke-width="0"/>
    <path d="M114.064,242.577c0-1.345.374-2.34,1.121-2.987.624-.538,1.386-.807,2.283-.807.998,0,1.813.327,2.447.98.634.654.95,1.558.95,2.711,0,.935-.14,1.669-.421,2.205-.279.535-.688.951-1.223,1.247-.536.296-1.12.444-1.754.444-1.017,0-1.838-.326-2.465-.978-.626-.651-.939-1.591-.939-2.816ZM115.329,242.577c0,.93.203,1.626.608,2.089.405.462.916.693,1.531.693.61,0,1.119-.232,1.524-.697s.608-1.174.608-2.126c0-.897-.204-1.578-.611-2.04-.408-.463-.915-.694-1.521-.694-.615,0-1.126.23-1.531.69s-.608,1.155-.608,2.085Z" fill="#333" stroke-width="0"/>
    <path d="M123.648,246.207l-2.222-7.26h1.271l1.155,4.19.431,1.559c.019-.077.144-.576.376-1.497l1.155-4.252h1.265l1.087,4.211.362,1.388.417-1.401,1.244-4.197h1.196l-2.27,7.26h-1.278l-1.155-4.348-.28-1.237-1.47,5.585h-1.285Z" fill="#333" stroke-width="0"/>
  </g>
  <g>
    <path d="M51.085,355.414v-10.021h7.246v1.183h-5.92v3.069h5.544v1.176h-5.544v3.411h6.152v1.183h-7.479Z" fill="#333" stroke-width="0"/>
    <path d="M60.211,355.414v-10.021h1.23v10.021h-1.23Z" fill="#333" stroke-width="0"/>
    <path d="M64.483,355.414h-1.142v-10.021h1.23v3.575c.52-.651,1.183-.978,1.989-.978.447,0,.869.09,1.268.27.399.181.727.434.984.76.257.325.459.719.605,1.179s.219.952.219,1.477c0,1.244-.308,2.206-.923,2.885s-1.354,1.019-2.215,1.019c-.857,0-1.529-.357-2.017-1.073v.909ZM64.47,351.729c0,.87.119,1.499.355,1.887.387.634.912.95,1.572.95.538,0,1.002-.233,1.395-.701.392-.467.588-1.163.588-2.088,0-.948-.188-1.647-.564-2.099s-.831-.677-1.364-.677c-.538,0-1.002.233-1.395.701-.392.467-.588,1.143-.588,2.026Z" fill="#333" stroke-width="0"/>
    <path d="M70.677,351.784c0-1.345.374-2.34,1.121-2.987.625-.538,1.385-.807,2.283-.807.998,0,1.814.327,2.447.98.633.654.95,1.558.95,2.711,0,.935-.14,1.669-.42,2.205-.28.535-.688.951-1.224,1.247s-1.12.444-1.753.444c-1.016,0-1.838-.326-2.464-.978s-.94-1.591-.94-2.816ZM71.941,351.784c0,.93.203,1.626.608,2.089.406.462.916.693,1.531.693.611,0,1.119-.232,1.524-.697s.608-1.174.608-2.126c0-.897-.204-1.578-.612-2.04-.408-.463-.915-.694-1.521-.694-.615,0-1.125.23-1.531.69s-.608,1.155-.608,2.085Z" fill="#333" stroke-width="0"/>
    <path d="M80.261,355.414l-2.222-7.26h1.271l1.155,4.19.431,1.559c.018-.077.144-.576.376-1.497l1.155-4.252h1.265l1.087,4.211.362,1.388.417-1.401,1.244-4.197h1.196l-2.27,7.26h-1.278l-1.155-4.348-.28-1.237-1.47,5.585h-1.285Z" fill="#333" stroke-width="0"/>
  </g>
  <g>
    <path d="M173.745,88.618v-10.021h3.76c.766,0,1.38.102,1.842.305.463.202.825.515,1.088.936.262.422.393.863.393,1.323,0,.429-.116.832-.349,1.21s-.583.684-1.053.916c.606.178,1.072.48,1.397.909.326.429.489.935.489,1.518,0,.47-.099.905-.298,1.31-.197.402-.442.714-.734.933s-.657.384-1.098.495c-.439.112-.979.168-1.616.168h-3.821ZM175.071,82.808h2.167c.588,0,1.01-.039,1.265-.116.337-.101.592-.267.762-.499.172-.232.257-.524.257-.875,0-.333-.08-.625-.239-.879-.159-.252-.388-.426-.684-.52-.296-.093-.805-.14-1.524-.14h-2.003v3.028ZM175.071,87.436h2.495c.429,0,.729-.016.902-.048.306-.055.561-.146.766-.273s.374-.313.506-.557c.132-.244.198-.525.198-.845,0-.374-.096-.698-.287-.974-.191-.276-.457-.47-.797-.582-.339-.111-.828-.167-1.466-.167h-2.317v3.445Z" fill="#333" stroke-width="0"/>
    <path d="M187.738,88.618v-1.066c-.565.82-1.333,1.23-2.304,1.23-.429,0-.828-.082-1.199-.246-.372-.164-.647-.37-.828-.619-.18-.248-.306-.552-.379-.912-.05-.241-.075-.624-.075-1.148v-4.498h1.23v4.026c0,.643.025,1.075.075,1.299.077.323.241.577.492.763.251.184.561.276.93.276s.716-.095,1.039-.284c.323-.188.553-.446.688-.771.134-.326.201-.799.201-1.419v-3.89h1.23v7.26h-1.101Z" fill="#333" stroke-width="0"/>
    <path d="M193.453,87.518l.178,1.087c-.347.073-.656.109-.93.109-.446,0-.793-.07-1.039-.212s-.419-.327-.52-.558c-.101-.229-.15-.714-.15-1.452v-4.177h-.902v-.957h.902v-1.798l1.224-.738v2.536h1.237v.957h-1.237v4.245c0,.351.021.576.065.677.043.101.113.18.211.239.099.06.238.089.421.089.137,0,.316-.016.54-.048Z" fill="#333" stroke-width="0"/>
    <path d="M197.343,87.518l.178,1.087c-.347.073-.656.109-.93.109-.446,0-.793-.07-1.039-.212s-.419-.327-.52-.558c-.101-.229-.15-.714-.15-1.452v-4.177h-.902v-.957h.902v-1.798l1.224-.738v2.536h1.237v.957h-1.237v4.245c0,.351.021.576.065.677.043.101.113.18.211.239.099.06.238.089.421.089.137,0,.316-.016.54-.048Z" fill="#333" stroke-width="0"/>
    <path d="M198.088,84.988c0-1.345.374-2.34,1.121-2.987.624-.538,1.386-.807,2.283-.807.998,0,1.813.327,2.447.98.634.654.95,1.558.95,2.711,0,.935-.14,1.669-.421,2.205-.279.535-.688.951-1.223,1.247-.536.296-1.12.444-1.754.444-1.017,0-1.838-.326-2.465-.978-.626-.651-.939-1.591-.939-2.816ZM199.353,84.988c0,.93.203,1.626.608,2.089.405.462.916.693,1.531.693.61,0,1.119-.232,1.524-.697s.608-1.174.608-2.126c0-.897-.204-1.578-.611-2.04-.408-.463-.915-.694-1.521-.694-.615,0-1.126.23-1.531.69s-.608,1.155-.608,2.085Z" fill="#333" stroke-width="0"/>
    <path d="M211.069,85.959l1.21.157c-.132.834-.471,1.486-1.015,1.959-.545.471-1.214.707-2.007.707-.993,0-1.792-.324-2.396-.975-.604-.648-.906-1.58-.906-2.792,0-.784.13-1.47.39-2.058s.655-1.029,1.187-1.322c.53-.295,1.108-.441,1.732-.441.788,0,1.434.199,1.935.598.501.399.822.966.964,1.699l-1.196.185c-.114-.487-.315-.854-.604-1.101-.29-.246-.64-.369-1.05-.369-.62,0-1.123.223-1.511.666-.388.445-.581,1.147-.581,2.109,0,.976.187,1.684.561,2.126s.861.663,1.463.663c.483,0,.887-.148,1.21-.444s.528-.752.615-1.367Z" fill="#333" stroke-width="0"/>
    <path d="M213.339,88.618v-10.021h1.23v5.715l2.912-2.953h1.593l-2.775,2.693,3.056,4.566h-1.518l-2.399-3.712-.868.834v2.878h-1.23Z" fill="#333" stroke-width="0"/>
    <path d="M219.84,86.451l1.217-.191c.068.487.259.861.571,1.121.312.26.748.39,1.309.39.565,0,.984-.115,1.258-.346.273-.229.41-.5.41-.81,0-.278-.121-.497-.362-.656-.169-.109-.588-.248-1.258-.417-.902-.228-1.528-.425-1.876-.592-.35-.166-.613-.396-.793-.689-.181-.295-.271-.619-.271-.975,0-.323.074-.623.222-.898.148-.276.351-.505.605-.688.191-.142.452-.261.783-.359.33-.098.685-.146,1.062-.146.569,0,1.07.082,1.5.246.432.164.749.387.954.666.205.281.347.655.424,1.125l-1.203.164c-.055-.374-.213-.665-.476-.875-.262-.21-.632-.314-1.11-.314-.565,0-.969.094-1.21.28s-.362.405-.362.656c0,.159.05.303.15.431.101.132.258.241.472.328.123.046.485.15,1.087.314.87.232,1.478.423,1.821.57.345.148.614.364.811.646s.294.634.294,1.053c0,.41-.12.797-.358,1.158-.24.363-.585.643-1.036.842-.451.197-.962.297-1.531.297-.943,0-1.662-.196-2.157-.588-.494-.392-.81-.973-.946-1.743Z" fill="#333" stroke-width="0"/>
  </g>
  <g>
    <path d="M303.384,88.617v-10.021h1.326v4.115h5.209v-4.115h1.326v10.021h-1.326v-4.724h-5.209v4.724h-1.326Z" fill="#333" stroke-width="0"/>
    <path d="M318.266,86.279l1.271.157c-.2.743-.572,1.319-1.114,1.729s-1.235.615-2.078.615c-1.062,0-1.903-.327-2.526-.98-.621-.654-.933-1.571-.933-2.752,0-1.222.314-2.169.943-2.844s1.444-1.012,2.447-1.012c.971,0,1.764.33,2.379.991s.923,1.591.923,2.789c0,.073-.002.183-.007.328h-5.414c.046.798.271,1.408.677,1.832s.911.636,1.518.636c.451,0,.836-.118,1.155-.355s.572-.615.759-1.135ZM314.226,84.29h4.054c-.055-.61-.21-1.068-.465-1.374-.392-.474-.9-.711-1.524-.711-.565,0-1.04.189-1.425.567-.386.378-.599.884-.64,1.518Z" fill="#333" stroke-width="0"/>
    <path d="M326.052,86.279l1.271.157c-.2.743-.572,1.319-1.114,1.729s-1.235.615-2.078.615c-1.062,0-1.903-.327-2.526-.98-.621-.654-.933-1.571-.933-2.752,0-1.222.314-2.169.943-2.844s1.444-1.012,2.447-1.012c.971,0,1.764.33,2.379.991s.923,1.591.923,2.789c0,.073-.002.183-.007.328h-5.414c.046.798.271,1.408.677,1.832s.911.636,1.518.636c.451,0,.836-.118,1.155-.355s.572-.615.759-1.135ZM322.012,84.29h4.054c-.055-.61-.21-1.068-.465-1.374-.392-.474-.9-.711-1.524-.711-.565,0-1.04.189-1.425.567-.386.378-.599.884-.64,1.518Z" fill="#333" stroke-width="0"/>
    <path d="M328.841,88.617v-10.021h1.23v10.021h-1.23Z" fill="#333" stroke-width="0"/>
  </g>
  <g>
    <path d="M308.105,246.207v-10.021h1.326v4.115h5.209v-4.115h1.326v10.021h-1.326v-4.724h-5.209v4.724h-1.326Z" fill="#333" stroke-width="0"/>
    <path d="M322.987,243.869l1.271.157c-.2.743-.572,1.319-1.114,1.729s-1.235.615-2.078.615c-1.062,0-1.903-.327-2.526-.98-.621-.654-.933-1.571-.933-2.752,0-1.222.314-2.169.943-2.844s1.444-1.012,2.447-1.012c.971,0,1.764.33,2.379.991s.923,1.591.923,2.789c0,.073-.002.183-.007.328h-5.414c.046.798.271,1.408.677,1.832s.911.636,1.518.636c.451,0,.836-.118,1.155-.355s.572-.615.759-1.135ZM318.947,241.88h4.054c-.055-.61-.21-1.068-.465-1.374-.392-.474-.9-.711-1.524-.711-.565,0-1.04.189-1.425.567-.386.378-.599.884-.64,1.518Z" fill="#333" stroke-width="0"/>
    <path d="M330.773,243.869l1.271.157c-.2.743-.572,1.319-1.114,1.729s-1.235.615-2.078.615c-1.062,0-1.903-.327-2.526-.98-.621-.654-.933-1.571-.933-2.752,0-1.222.314-2.169.943-2.844s1.444-1.012,2.447-1.012c.971,0,1.764.33,2.379.991s.923,1.591.923,2.789c0,.073-.002.183-.007.328h-5.414c.046.798.271,1.408.677,1.832s.911.636,1.518.636c.451,0,.836-.118,1.155-.355s.572-.615.759-1.135ZM326.733,241.88h4.054c-.055-.61-.21-1.068-.465-1.374-.392-.474-.9-.711-1.524-.711-.565,0-1.04.189-1.425.567-.386.378-.599.884-.64,1.518Z" fill="#333" stroke-width="0"/>
    <path d="M333.562,246.207v-10.021h1.23v10.021h-1.23Z" fill="#333" stroke-width="0"/>
  </g>
  <g>
    <path d="M157.643,246.207v-10.021h1.326v4.115h5.209v-4.115h1.326v10.021h-1.326v-4.724h-5.209v4.724h-1.326Z" fill="#333" stroke-width="0"/>
    <path d="M167.562,237.601v-1.415h1.23v1.415h-1.23ZM167.562,246.207v-7.26h1.23v7.26h-1.23Z" fill="#333" stroke-width="0"/>
    <path d="M170.665,248.989v-10.042h1.121v.943c.265-.369.562-.646.896-.83.333-.186.736-.277,1.21-.277.62,0,1.167.159,1.641.479s.832.77,1.073,1.35c.241.582.362,1.219.362,1.911,0,.743-.134,1.411-.399,2.007-.268.594-.654,1.05-1.162,1.367-.509.316-1.043.475-1.604.475-.41,0-.778-.087-1.104-.26-.326-.173-.594-.392-.804-.656v3.534h-1.23ZM171.779,242.618c0,.935.189,1.625.567,2.071s.836.67,1.374.67c.547,0,1.016-.231,1.404-.693.391-.463.585-1.18.585-2.15,0-.925-.19-1.618-.571-2.078-.38-.46-.835-.69-1.363-.69-.524,0-.988.245-1.391.735-.404.489-.605,1.201-.605,2.136Z" fill="#333" stroke-width="0"/>
  </g>
  <g>
    <path d="M196.184,246.207v-8.839h-3.302v-1.183h7.943v1.183h-3.315v8.839h-1.326Z" fill="#333" stroke-width="0"/>
    <path d="M202.028,246.207v-10.021h1.23v3.596c.574-.665,1.299-.998,2.174-.998.538,0,1.005.105,1.401.318.396.211.68.504.852.878.17.374.256.916.256,1.627v4.601h-1.23v-4.601c0-.615-.133-1.063-.4-1.343-.266-.281-.644-.421-1.131-.421-.364,0-.707.095-1.029.284-.32.188-.55.445-.687.769s-.205.771-.205,1.34v3.972h-1.23Z" fill="#333" stroke-width="0"/>
    <path d="M209.821,237.601v-1.415h1.23v1.415h-1.23ZM209.821,246.207v-7.26h1.23v7.26h-1.23Z" fill="#333" stroke-width="0"/>
    <path d="M212.699,246.809l1.196.178c.05.369.189.638.417.807.306.228.723.342,1.251.342.569,0,1.01-.114,1.319-.342s.52-.547.629-.957c.063-.251.094-.777.089-1.579-.538.634-1.208.95-2.01.95-.998,0-1.771-.36-2.317-1.08s-.82-1.584-.82-2.591c0-.692.125-1.332.376-1.917.251-.586.614-1.038,1.091-1.357.476-.319,1.035-.479,1.678-.479.856,0,1.563.347,2.119,1.039v-.875h1.135v6.275c0,1.13-.115,1.932-.346,2.402-.229.473-.594.845-1.094,1.118-.498.273-1.112.41-1.842.41-.866,0-1.565-.194-2.099-.585-.533-.389-.791-.976-.772-1.76ZM213.718,242.447c0,.952.189,1.647.567,2.085s.853.656,1.422.656c.565,0,1.039-.218,1.422-.653.383-.435.574-1.117.574-2.047,0-.889-.197-1.559-.592-2.01-.394-.451-.869-.677-1.425-.677-.547,0-1.012.222-1.395.667-.383.443-.574,1.104-.574,1.979Z" fill="#333" stroke-width="0"/>
    <path d="M220.711,246.207v-10.021h1.23v3.596c.574-.665,1.299-.998,2.174-.998.538,0,1.005.105,1.401.318.396.211.68.504.852.878.17.374.256.916.256,1.627v4.601h-1.23v-4.601c0-.615-.133-1.063-.4-1.343-.266-.281-.644-.421-1.131-.421-.364,0-.707.095-1.029.284-.32.188-.55.445-.687.769s-.205.771-.205,1.34v3.972h-1.23Z" fill="#333" stroke-width="0"/>
  </g>
  <g>
    <path d="M181.015,355.414v-8.839h-3.302v-1.183h7.943v1.183h-3.315v8.839h-1.326Z" fill="#333" stroke-width="0"/>
    <path d="M186.859,355.414v-10.021h1.23v3.596c.574-.665,1.299-.998,2.174-.998.538,0,1.005.105,1.401.318.396.211.68.504.852.878.17.374.256.916.256,1.627v4.601h-1.23v-4.601c0-.615-.133-1.063-.4-1.343-.266-.281-.644-.421-1.131-.421-.364,0-.707.095-1.029.284-.32.188-.55.445-.687.769s-.205.771-.205,1.34v3.972h-1.23Z" fill="#333" stroke-width="0"/>
    <path d="M194.652,346.808v-1.415h1.23v1.415h-1.23ZM194.652,355.414v-7.26h1.23v7.26h-1.23Z" fill="#333" stroke-width="0"/>
    <path d="M197.53,356.016l1.196.178c.05.369.189.638.417.807.306.228.723.342,1.251.342.569,0,1.01-.114,1.319-.342s.52-.547.629-.957c.063-.251.094-.777.089-1.579-.538.634-1.208.95-2.01.95-.998,0-1.771-.36-2.317-1.08s-.82-1.584-.82-2.591c0-.692.125-1.332.376-1.917.251-.586.614-1.038,1.091-1.357.476-.319,1.035-.479,1.678-.479.856,0,1.563.347,2.119,1.039v-.875h1.135v6.275c0,1.13-.115,1.932-.346,2.402-.229.473-.594.845-1.094,1.118-.498.273-1.112.41-1.842.41-.866,0-1.565-.194-2.099-.585-.533-.389-.791-.976-.772-1.76ZM198.549,351.654c0,.952.189,1.647.567,2.085s.853.656,1.422.656c.565,0,1.039-.218,1.422-.653.383-.435.574-1.117.574-2.047,0-.889-.197-1.559-.592-2.01-.394-.451-.869-.677-1.425-.677-.547,0-1.012.222-1.395.667-.383.443-.574,1.104-.574,1.979Z" fill="#333" stroke-width="0"/>
    <path d="M205.542,355.414v-10.021h1.23v3.596c.574-.665,1.299-.998,2.174-.998.538,0,1.005.105,1.401.318.396.211.68.504.852.878.17.374.256.916.256,1.627v4.601h-1.23v-4.601c0-.615-.133-1.063-.4-1.343-.266-.281-.644-.421-1.131-.421-.364,0-.707.095-1.029.284-.32.188-.55.445-.687.769s-.205.771-.205,1.34v3.972h-1.23Z" fill="#333" stroke-width="0"/>
  </g>
  <g>
    <path d="M231.07,355.414v-10.021h1.326v4.97l4.977-4.97h1.798l-4.204,4.061,4.389,5.961h-1.75l-3.568-5.072-1.641,1.6v3.473h-1.326Z" fill="#333" stroke-width="0"/>
    <path d="M240.306,355.414v-7.26h1.107v1.032c.533-.798,1.304-1.196,2.311-1.196.438,0,.84.078,1.206.236.367.156.642.363.824.618s.31.559.383.909c.046.228.068.627.068,1.196v4.464h-1.23v-4.416c0-.501-.048-.876-.144-1.125-.096-.248-.266-.446-.509-.594-.244-.148-.53-.223-.858-.223-.524,0-.977.166-1.356.499-.381.333-.571.964-.571,1.894v3.965h-1.23Z" fill="#333" stroke-width="0"/>
    <path d="M253.062,353.076l1.271.157c-.2.743-.572,1.319-1.114,1.729s-1.235.615-2.078.615c-1.062,0-1.903-.327-2.526-.98-.621-.654-.933-1.571-.933-2.752,0-1.222.314-2.169.943-2.844s1.444-1.012,2.447-1.012c.971,0,1.764.33,2.379.991s.923,1.591.923,2.789c0,.073-.002.183-.007.328h-5.414c.046.798.271,1.408.677,1.832s.911.636,1.518.636c.451,0,.836-.118,1.155-.355s.572-.615.759-1.135ZM249.021,351.087h4.054c-.055-.61-.21-1.068-.465-1.374-.392-.474-.9-.711-1.524-.711-.565,0-1.04.189-1.425.567-.386.378-.599.884-.64,1.518Z" fill="#333" stroke-width="0"/>
    <path d="M260.848,353.076l1.271.157c-.2.743-.572,1.319-1.114,1.729s-1.235.615-2.078.615c-1.062,0-1.903-.327-2.526-.98-.621-.654-.933-1.571-.933-2.752,0-1.222.314-2.169.943-2.844s1.444-1.012,2.447-1.012c.971,0,1.764.33,2.379.991s.923,1.591.923,2.789c0,.073-.002.183-.007.328h-5.414c.046.798.271,1.408.677,1.832s.911.636,1.518.636c.451,0,.836-.118,1.155-.355s.572-.615.759-1.135ZM256.808,351.087h4.054c-.055-.61-.21-1.068-.465-1.374-.392-.474-.9-.711-1.524-.711-.565,0-1.04.189-1.425.567-.386.378-.599.884-.64,1.518Z" fill="#333" stroke-width="0"/>
    <path d="M263.172,353.247l1.217-.191c.068.487.259.861.571,1.121.312.26.748.39,1.309.39.565,0,.984-.115,1.258-.346.273-.229.41-.5.41-.81,0-.278-.121-.497-.362-.656-.169-.109-.588-.248-1.258-.417-.902-.228-1.528-.425-1.876-.592-.35-.166-.613-.396-.793-.689-.181-.295-.271-.619-.271-.975,0-.323.074-.623.222-.898.148-.276.351-.505.605-.688.191-.142.452-.261.783-.359.33-.098.685-.146,1.062-.146.569,0,1.07.082,1.5.246.432.164.749.387.954.666.205.281.347.655.424,1.125l-1.203.164c-.055-.374-.213-.665-.476-.875-.262-.21-.632-.314-1.11-.314-.565,0-.969.094-1.21.28s-.362.405-.362.656c0,.159.05.303.15.431.101.132.258.241.472.328.123.046.485.15,1.087.314.87.232,1.478.423,1.821.57.345.148.614.364.811.646s.294.634.294,1.053c0,.41-.12.797-.358,1.158-.24.363-.585.643-1.036.842-.451.197-.962.297-1.531.297-.943,0-1.662-.196-2.157-.588-.494-.392-.81-.973-.946-1.743Z" fill="#333" stroke-width="0"/>
  </g>
  <g>
    <path d="M330.776,355.414v-8.839h-3.302v-1.183h7.943v1.183h-3.315v8.839h-1.326Z" fill="#333" stroke-width="0"/>
    <path d="M334.611,351.784c0-1.345.374-2.34,1.121-2.987.624-.538,1.386-.807,2.283-.807.998,0,1.813.327,2.447.98.634.654.95,1.558.95,2.711,0,.935-.14,1.669-.421,2.205-.279.535-.688.951-1.223,1.247-.536.296-1.12.444-1.754.444-1.017,0-1.838-.326-2.465-.978-.626-.651-.939-1.591-.939-2.816ZM335.876,351.784c0,.93.203,1.626.608,2.089.405.462.916.693,1.531.693.61,0,1.119-.232,1.524-.697s.608-1.174.608-2.126c0-.897-.204-1.578-.611-2.04-.408-.463-.915-.694-1.521-.694-.615,0-1.126.23-1.531.69s-.608,1.155-.608,2.085Z" fill="#333" stroke-width="0"/>
    <path d="M347.825,353.076l1.271.157c-.2.743-.572,1.319-1.114,1.729s-1.235.615-2.078.615c-1.062,0-1.903-.327-2.526-.98-.621-.654-.933-1.571-.933-2.752,0-1.222.314-2.169.943-2.844s1.444-1.012,2.447-1.012c.971,0,1.764.33,2.379.991s.923,1.591.923,2.789c0,.073-.002.183-.007.328h-5.414c.046.798.271,1.408.677,1.832s.911.636,1.518.636c.451,0,.836-.118,1.155-.355s.572-.615.759-1.135ZM343.785,351.087h4.054c-.055-.61-.21-1.068-.465-1.374-.392-.474-.9-.711-1.524-.711-.565,0-1.04.189-1.425.567-.386.378-.599.884-.64,1.518Z" fill="#333" stroke-width="0"/>
    <path d="M350.149,353.247l1.217-.191c.068.487.259.861.571,1.121.312.26.748.39,1.309.39.565,0,.984-.115,1.258-.346.273-.229.41-.5.41-.81,0-.278-.121-.497-.362-.656-.169-.109-.588-.248-1.258-.417-.902-.228-1.528-.425-1.876-.592-.35-.166-.613-.396-.793-.689-.181-.295-.271-.619-.271-.975,0-.323.074-.623.222-.898.148-.276.351-.505.605-.688.191-.142.452-.261.783-.359.33-.098.685-.146,1.062-.146.569,0,1.07.082,1.5.246.432.164.749.387.954.666.205.281.347.655.424,1.125l-1.203.164c-.055-.374-.213-.665-.476-.875-.262-.21-.632-.314-1.11-.314-.565,0-.969.094-1.21.28s-.362.405-.362.656c0,.159.05.303.15.431.101.132.258.241.472.328.123.046.485.15,1.087.314.87.232,1.478.423,1.821.57.345.148.614.364.811.646s.294.634.294,1.053c0,.41-.12.797-.358,1.158-.24.363-.585.643-1.036.842-.451.197-.962.297-1.531.297-.943,0-1.662-.196-2.157-.588-.494-.392-.81-.973-.946-1.743Z" fill="#333" stroke-width="0"/>
  </g>
  <g>
    <path d="M105.975,355.414v-10.021h4.443c.893,0,1.572.09,2.037.27.465.181.836.498,1.113.954.279.456.418.959.418,1.511,0,.711-.23,1.311-.691,1.798-.459.487-1.17.798-2.133.93.352.169.617.335.801.499.387.355.754.8,1.1,1.333l1.744,2.728h-1.668l-1.326-2.085c-.389-.602-.707-1.062-.957-1.381-.252-.319-.477-.542-.674-.67-.199-.128-.4-.217-.605-.267-.15-.032-.396-.048-.738-.048h-1.537v4.45h-1.326ZM107.301,349.815h2.85c.607,0,1.08-.062,1.422-.188.342-.125.602-.325.779-.602.178-.275.268-.575.268-.898,0-.474-.172-.863-.518-1.169-.344-.306-.887-.458-1.629-.458h-3.172v3.315Z" fill="#333" stroke-width="0"/>
    <path d="M115.914,346.808v-1.415h1.23v1.415h-1.23ZM115.914,355.414v-7.26h1.23v7.26h-1.23Z" fill="#333" stroke-width="0"/>
    <path d="M120.151,355.414h-1.142v-10.021h1.23v3.575c.52-.651,1.183-.978,1.989-.978.446,0,.869.09,1.269.27.398.181.727.434.984.76.257.325.459.719.604,1.179s.219.952.219,1.477c0,1.244-.308,2.206-.923,2.885s-1.354,1.019-2.215,1.019c-.856,0-1.529-.357-2.017-1.073v.909ZM120.138,351.729c0,.87.118,1.499.355,1.887.388.634.911.95,1.572.95.538,0,1.003-.233,1.395-.701.392-.467.588-1.163.588-2.088,0-.948-.188-1.647-.563-2.099-.377-.451-.831-.677-1.364-.677-.538,0-1.003.233-1.395.701-.392.467-.588,1.143-.588,2.026Z" fill="#333" stroke-width="0"/>
    <path d="M135.43,352.755l1.21.157c-.132.834-.471,1.486-1.015,1.959-.545.471-1.214.707-2.007.707-.993,0-1.792-.324-2.396-.975-.604-.648-.906-1.58-.906-2.792,0-.784.13-1.47.39-2.058s.655-1.029,1.187-1.322c.53-.295,1.108-.441,1.732-.441.788,0,1.434.199,1.935.598.501.399.822.966.964,1.699l-1.196.185c-.114-.487-.315-.854-.604-1.101-.29-.246-.64-.369-1.05-.369-.62,0-1.123.223-1.511.666-.388.445-.581,1.147-.581,2.109,0,.976.187,1.684.561,2.126s.861.663,1.463.663c.483,0,.887-.148,1.21-.444s.528-.752.615-1.367Z" fill="#333" stroke-width="0"/>
    <path d="M142.43,354.519c-.456.388-.895.661-1.316.82-.421.159-.873.239-1.356.239-.798,0-1.41-.195-1.839-.584-.429-.391-.643-.888-.643-1.494,0-.355.081-.68.242-.975.162-.293.374-.529.637-.707.262-.178.557-.312.885-.403.241-.063.606-.125,1.094-.185.993-.118,1.725-.26,2.194-.424.005-.169.007-.275.007-.321,0-.501-.116-.854-.349-1.06-.314-.278-.781-.417-1.401-.417-.579,0-1.006.102-1.281.304-.276.203-.48.562-.612,1.077l-1.203-.164c.109-.515.289-.931.54-1.247.251-.317.613-.561,1.087-.732.474-.17,1.023-.256,1.647-.256.62,0,1.123.073,1.511.219s.672.329.854.551c.183.221.31.5.383.837.041.21.062.588.062,1.135v1.641c0,1.144.026,1.867.079,2.171.052.303.155.593.311.871h-1.285c-.128-.255-.21-.554-.246-.896ZM142.327,351.771c-.446.183-1.116.337-2.01.465-.506.073-.863.155-1.073.246s-.371.225-.485.399c-.114.176-.171.371-.171.585,0,.328.124.602.373.82.248.219.611.328,1.09.328.474,0,.896-.104,1.265-.312.369-.207.641-.49.813-.851.132-.278.198-.688.198-1.23v-.451Z" fill="#333" stroke-width="0"/>
    <path d="M145.254,356.016l1.196.178c.05.369.189.638.417.807.306.228.723.342,1.251.342.569,0,1.01-.114,1.319-.342s.52-.547.629-.957c.063-.251.094-.777.089-1.579-.538.634-1.208.95-2.01.95-.998,0-1.771-.36-2.317-1.08s-.82-1.584-.82-2.591c0-.692.125-1.332.376-1.917.251-.586.614-1.038,1.091-1.357.476-.319,1.035-.479,1.678-.479.856,0,1.563.347,2.119,1.039v-.875h1.135v6.275c0,1.13-.115,1.932-.346,2.402-.229.473-.594.845-1.094,1.118-.498.273-1.112.41-1.842.41-.866,0-1.565-.194-2.099-.585-.533-.389-.791-.976-.772-1.76ZM146.272,351.654c0,.952.189,1.647.567,2.085s.853.656,1.422.656c.565,0,1.039-.218,1.422-.653.383-.435.574-1.117.574-2.047,0-.889-.197-1.559-.592-2.01-.394-.451-.869-.677-1.425-.677-.547,0-1.012.222-1.395.667-.383.443-.574,1.104-.574,1.979Z" fill="#333" stroke-width="0"/>
    <path d="M158.234,353.076l1.271.157c-.2.743-.572,1.319-1.114,1.729s-1.235.615-2.078.615c-1.062,0-1.903-.327-2.526-.98-.621-.654-.933-1.571-.933-2.752,0-1.222.314-2.169.943-2.844s1.444-1.012,2.447-1.012c.971,0,1.764.33,2.379.991s.923,1.591.923,2.789c0,.073-.002.183-.007.328h-5.414c.046.798.271,1.408.677,1.832s.911.636,1.518.636c.451,0,.836-.118,1.155-.355s.572-.615.759-1.135ZM154.194,351.087h4.054c-.055-.61-.21-1.068-.465-1.374-.392-.474-.9-.711-1.524-.711-.565,0-1.04.189-1.425.567-.386.378-.599.884-.64,1.518Z" fill="#333" stroke-width="0"/>
  </g>
  <path d="M269.558,298h.002c.005.038.005.019-.002,0Z" fill="#e3e3e3" stroke-width="0"/>
  <path d="M162.337,220.514c0-2.741,2.223-4.963,4.966-4.963s4.962,2.222,4.962,4.963-2.223,4.966-4.962,4.966-4.966-2.225-4.966-4.966Z" fill="#ff0087" stroke-width="0"/>
  <path d="M204.944,218.514c0-2.741,2.221-4.963,4.964-4.963s4.962,2.222,4.962,4.963-2.222,4.966-4.962,4.966-4.964-2.225-4.964-4.966Z" fill="#ff0087" stroke-width="0"/>
  <path d="M270.478,218.514c0-2.741,2.223-4.963,4.967-4.963s4.964,2.222,4.964,4.963-2.224,4.966-4.964,4.966-4.967-2.225-4.967-4.966Z" fill="#ff0087" stroke-width="0"/>
  <g>
    <g>
      <path d="M137.5,165.5c1.053.542,4.318,1.329,6.465,3.891,2.145,2.564,7.045,10.444,6.818,21.089-.118,5.515.42,8.973.42,8.973,1.856,2.578,2.184,3.36,2.887,5.996.705,2.636.76,3.699-.697,3.502-1.457-.194-1.375,1.4-1.375,1.4-.72,1.108-2.123,2.192-3.387,1.504-.806-.439-1.846-.561-2.3.378-.075.155-4.445-.737-4.947-.827,0,0-.589-.238-1.241-1.807-.759-1.827-1.98-3.189-1.217-5.215.477-1.267,1.48-2.774,2.518-3.655,0,0,1.665-1.414-.81-4.759-2.471-3.353-3.891-6.932-5.428-10.519-1.159-2.705-6.076-6.45-8.918-7.106-2.845-.658-21.292-4.134-25.314-5.34" fill="#e3e3e3" stroke-width="0"/>
      <path d="M137.523,165.456c2.25.89,4.668,1.781,6.325,3.663,2.66,3.134,4.425,6.941,5.662,10.838,2.173,6.275,1.059,13.012,1.97,19.453,1.502,1.583,2.877,5.01,3.306,7.613.083.642.267,1.254-.154,1.89-.469.613-1.242.262-1.746.396-.399.084-.557.686-.525,1.144-.591.892-1.393,1.729-2.584,1.946-1.012.3-2.339-1.235-3.07-.076,0,0-.034.06-.034.06.013-.02-.044.086-.146.154-.207.126-.304.076-.482.074-1.228-.094-3.544-.634-4.784-.829-1.337-.862-1.544-2.477-2.338-3.767-1.505-2.438-.091-5.197,1.646-7.083.815-.722,1.122-1.228.867-2.339-.548-1.949-2.18-3.408-3.091-5.258-1.397-2.441-2.464-5.047-3.565-7.617-1.512-2.901-4.532-5.108-7.445-6.543-1.332-.641-8.57-1.902-10.089-2.301-5.353-1.268-11.222-2.165-16.257-3.918,4.635,1.107,11.627,2.31,16.395,3.226,1.71.382,8.837,1.506,10.305,2.16,3.23,1.534,6.322,3.711,8.007,6.984,1.585,3.827,3.283,7.669,5.777,10.999.782,1.283,1.479,2.983.543,4.44-1.803,1.792-3.867,4.308-2.341,6.89.561,1.127,1.337,2.979,1.779,3.361,1.247.189,3.555.777,4.788.861.044-.003-.111.002-.161.065-.073.059-.095.165-.073.11.392-.952,1.696-1.066,2.461-.675,1.214.826,2.531-.093,3.265-1.213,0,0-.055.203-.055.203-.014-.686.273-1.482,1.005-1.694.522-.201,1.113.147,1.439-.168.348-.757-.149-2.11-.333-2.98-.454-2.274-1.548-4.171-2.863-6.031-.875-6.5.351-13.122-1.743-19.442-1.496-4.503-3.382-9.473-7.308-12.394-1.342-.933-2.893-1.462-4.4-2.115l.046-.089h0Z" fill="#b9b9b9" stroke-width="0"/>
    </g>
    <path d="M100.975,173.003c-20.481-6.143-8.468-19.955-1.802-19.314,0,0,19.805,2.926,35.816,12.118" fill="#e3e3e3" stroke-width="0"/>
    <g>
      <path d="M150.805,203.206c-.041-.796.209-1.607.171-2.407-.027-.532-.054-1.062.511-1.357" fill="#e3e3e3" stroke-width="0"/>
      <path d="M150.914,203.206c-.011-.74.206-1.458.233-2.195.01-.271-.021-.544.022-.813.048-.297.189-.47.419-.655.111-.089-.009-.283-.139-.238-.632.22-.69.866-.649,1.442.059.824-.159,1.636-.103,2.459.009.138.219.141.217,0h0Z" fill="#b9b9b9" stroke-width="0"/>
    </g>
    <g>
      <path d="M142.701,202.802c-.053-1.067-.104-2.134-.444-3.181" fill="#e3e3e3" stroke-width="0"/>
      <path d="M142.836,202.802c.008-.563.017-1.126-.017-1.688-.017-.287-.047-.573-.089-.857-.021-.142-.047-.284-.074-.425-.032-.171-.079-.283-.199-.412-.185-.201-.459-.023-.486.201-.033.268.119.535.191.792.073.262.133.528.183.795.099.528.159,1.061.219,1.594.019.169.269.179.271,0h0Z" fill="#b9b9b9" stroke-width="0"/>
    </g>
    <g>
      <path d="M140.863,206.624c-.22,1.345-.144,2.941-.077,4.273" fill="#e3e3e3" stroke-width="0"/>
      <path d="M140.693,206.577c-.152.72-.224,1.455-.262,2.189-.019.37-.029.74-.034,1.11-.005.36-.018.759.114,1.097.097.249.468.291.55,0,.098-.353.053-.737.021-1.097-.031-.357-.058-.714-.077-1.071-.038-.726-.043-1.456.035-2.18.021-.197-.306-.24-.346-.047h0Z" fill="#b9b9b9" stroke-width="0"/>
    </g>
  </g>
  <path d="M87.94,165.941c-3.177,5.695-4.062,7.705-8.772,7.058-2.992-.339-3.482-.582-5.456-.914-1.626-1.386-5.015-3.602-7.239-4.354.015.005.095-1.061.055-1.207-.515-1.883-2.711-2.377-4.306-2.96-1.686-.616-4.423-1.556-6.117-.712-.258.129-1.519,1.763-.893,1.914-1.021-.233-2.274-.247-3.318-.365l-3.117-.352c-3.921-.234-13.422,1.38-14.963,11.314-.023.178-.216,1.48-.22,1.525,0,.012-.001.024-.002.036-.002.012-.004.023-.006.035-.002.017-.02.234-.041.499-.039.264-.07.478-.071.496,0,.012-.001.024-.002.036-.002.012-.004.023-.006.035-.006.044-.108,1.357-.125,1.535-.71,10.027,8.193,13.717,12.067,14.362l3.119.352c2.547-.011,2.576.447,3.326.375-.441.042-.034,1.225.105,1.419.406.565,1.454.92,2.111,1.069,2.489.564,6.339.626,8.011-1.663.45-.617.453-.987,1.212-1.237.782-.258,1.762-.223,2.584-.446,1.926-.522,3.859-1.223,5.63-2.148,1.998.117,2.531-.011,5.523.325,4.736.418,7.289,4.459,9.117,10.719" fill="#e3e3e3" stroke-width="0"/>
  <path d="M306.476,48.834c-4.816,1.55-17.731.667-23.766.015-6.036-.653-18.111-2.146-20.987-2.546-2.679-.372-6.11-1.053-8.655-3.09-2.717-2.174-8.422-3.532-11.449-3.911-2.103-.263-3.159.195-7.326-1.733-4.168-1.927-36.392-7.867-45.085-7.263-8.691.606-14.881-.803-16.207-.306-1.325.5-3.263.685-6.663-.176-3.4-.86-12.322-1.84-16.808-1.144-4.487.694-8.949.337-13.391-1.073-4.442-1.407-5.034-1.561-7.139-1.606-2.102-.044-7.534-1.068-9.106-1.365-1.572-.296-4.716-.888-5.772-.646-1.057.24-3.44.978-5.85,3.031-2.41,2.054-5.626,4.878-7.763,6.411-2.137,1.533-4.29,3.856-5.922,6.451-1.634,2.596-6.998,5.958-9.987,6.32,0,0-3.561-.175-4.74-.625-1.216-.464-1.036-4.516-.576-5.804.302-.847,1.114-5.181-.277-6.632-.788-.822-1.543-.362-2.689-1.106-.412-.268-.765-.406-1.144-.702-.19-.148-.431-.446-.599-.597-.886-.797-1.874.197-1.88.922.008-.176-.147-.803-.606-1.207-.644-.568-1.657-.158-2.099-.051-.895.215-1.47-.048-1.609-.529-.118-.41-.061-.842-.068-1.362-.003-.213-.263-2.338-1.358-1.908-1.095.429-4.81,1.897-5.46,2.223-.651.326-1.706.322-2.316.233-.814-.119-2.423-.464-3.143-.523-2.813-.232-6.156.348-10.074,3.338-4.181,3.664-6.001,7.029-6.816,9.948-.873,3.126-1.017,6.603-.467,8.881.471,2.266,1.62,4.935,3.072,7.049,1.941,2.826,4.399,4.155,8.368,5.725,1.729.684,7.731,1.134,9.7.834,4.104-.626,6.617-2.333,10.406-4.113,1.643-.771,4.021-1.751,8.274-1.694,2.136.028,3.928,1.017,3.928,1.017,1.786.391,7.785,3.946,11.38,4.808,6.019,1.443,16.815.881,21.333-1.391,4.519-2.272,20.38-6.145,25.108-5.781,4.725.363,11.817.774,18.056,4.326,6.236,3.549,11.45,5.764,15.907,6.385,4.458.618,10.279-1.098,12.696-3.415,2.417-2.315,31.942-5.639,37.486-6.573,5.543-.935,16.349-2.023,21.036.181,4.688,2.204,6.527,2.243,11.472,4.713,4.946,2.471,20.483,1.484,28.414-.453,7.931-1.934,13.761-4.912,18.284-3.309l.6.306c3.656,1.326,8.028,3.733,10.451,5.245,4.77,2.981,7.707-1.227,9.996-6.965,2.182-5.47.009-4.318,7.141-12.291,4.459-4.983,5.214-7.652,5.019-9.409-.539-4.856-2.097-5.56-6.528-.278-1.131,1.35-3.323,2.983-3.323,2.983,0,0-9.823,7.995-15.148,8.975-1.589.294-4.247,1.248-5.333,1.263M62.541,64.082h.002c-.007.019-.007.038-.002,0Z" fill="#e3e3e3" stroke-width="0"/>
  <g>
    <path d="M95.827,64.814c12.038,3.817,33.34,3.191,37.701,2.875,1.182-.087,2.638-.257,8.15-.002,3.825.174,5.076-.174,6.221-3.315,1.143-3.143,2.126-2.886,2.641-6.114.516-3.225.558-7.977-1.761-12.56-2.316-4.583-4.318-12.055-4.318-12.055.868-3.055.91-3.902.674-6.622-.236-2.719-.548-3.736-1.848-3.054-1.303.68-1.77-.848-1.77-.848-1.68-1.269-3.117-.065-4.93.273-.622.116-1.129-.062-1.76.193-.58.234-1.07.678-1.616.978l-2.049,1.189s-.472.424-.553,2.123c-.112,2.37-.971,3.834,1.038,5.65.943.853,1.994,1.794,3.206,2.245,0,0,2.048.762.861,4.75-1.183,3.993-3.232,9.086-2.642,11.976.584,2.885.233.761-2.64.253-2.875-.508-21.209-4.534-25.384-4.999" fill="#e3e3e3" stroke-width="0"/>
    <path d="M95.838,64.778c10.402,2.955,21.382,3.065,32.123,2.971,3.607-.015,7.194-.491,10.799-.358,1.8.012,3.615.212,5.373.085,1.921-.031,3.045-1.488,3.57-3.201.506-1.732,1.883-3.105,2.344-4.823.997-4.293.634-9.009-1.22-13.031-2.021-4.036-3.429-8.369-4.658-12.701,0,0-.022-.077-.022-.077l.023-.084c.678-2.149.946-4.264.641-6.508-.115-.883-.118-2.319-.694-2.908-.411-.175-.844.344-1.404.333-.766.05-1.306-.604-1.529-1.256,0,0,.122.175.122.175-1.625-1.257-3.303.323-5.141.405-1.053-.086-1.565.266-2.381.846-.841.512-1.623.949-2.438,1.427-.352.681-.38,2.345-.526,3.385-.178,1.186-.254,2.356.59,3.284.78.843,1.793,1.71,2.793,2.308,3.182,1.003,2.283,4.582,1.447,6.911,0,0-1.165,3.582-1.165,3.582-.837,2.663-1.628,5.432-.893,8.193.019.193-.012.44-.26.514-.288.034-.283-.044-.445-.119-.615-.439-1.291-.82-2.022-1.01,0,0-3.675-.77-3.675-.77-7.145-1.484-14.992-3.366-22.148-4.566,0,0,.008-.074.008-.074,8.482,1.178,17.519,3.285,25.954,4.885.822.195,1.568.632,2.262,1.092.02.021.035-.015-.091.008-.093.032-.131.083-.149.131-.799-2.709-.027-5.786.803-8.485,0,0,1.122-3.603,1.122-3.603.681-2.133,1.689-5.201-1.119-6.041-1.145-.697-2.074-1.492-2.997-2.481-.96-1.002-.983-2.598-.754-3.856.284-1.335-.09-2.806.891-3.932,0,0,2.403-1.404,2.403-1.404.76-.602,1.795-1.094,2.767-.957,1.709-.161,3.933-1.684,5.581-.227,0,0,.084.063.084.063l.039.112c.298.817.795.958,1.511.542,1.979-.775,1.945,2.21,2.099,3.436.306,2.027-.063,5.242-.706,6.568.952,3.454,2.045,6.89,3.427,10.191,1.627,3.235,2.914,6.724,2.887,10.399-.011,2.676-.143,5.659-1.788,7.893-1.071,1.498-1.232,3.417-2.531,4.789-2.195,1.897-5.399.79-7.996.933-7.196.017-14.389.59-21.59.128-7.103-.414-14.678-.849-21.323-3.118h0Z" fill="#b9b9b9" stroke-width="0"/>
  </g>
  <path d="M142.704,30.278c.223.775.699,1.448.921,2.223.078.273.148.563.323.794.19.251.465.41.784.404.164-.003.189-.229.038-.28-.266-.09-.445-.203-.585-.451-.142-.252-.209-.534-.319-.8-.277-.669-.715-1.261-.952-1.948-.045-.131-.248-.078-.209.058h0Z" fill="#b9b9b9" stroke-width="0"/>
  <path d="M135.196,33.425c.126.53.253,1.06.342,1.597.044.265.078.532.097.8.01.137.017.274.017.412,0,.06-.005.119,0,.179.008.101.05.176.095.264.124.243.436.138.521-.068.108-.262.003-.594-.051-.865-.056-.277-.127-.55-.207-.82-.159-.532-.355-1.051-.552-1.57-.061-.161-.303-.101-.262.072h0Z" fill="#b9b9b9" stroke-width="0"/>
  <path d="M132.451,30.333c-.318-.647-.558-1.329-.766-2.018-.103-.342-.199-.686-.29-1.031-.089-.338-.175-.711-.38-.998-.159-.225-.523-.154-.531.144-.009.355.123.708.247,1.037.135.358.275.714.423,1.067.286.681.601,1.35.993,1.977.121.194.404.025.305-.178h0Z" fill="#b9b9b9" stroke-width="0"/>
  <path d="M136.864,63.574c-1.104-1.608-2.308-3.285-2.758-5.216-.237-1.018-.002-1.994-.089-3.018-.039-.454-.139-.874-.305-1.296-.058-.148-.179-.359-.168-.521.012-.167.125-.329.136-.521.019-.321-.304-.484-.575-.438-1.099.185-.346,1.606-.139,2.174.214.585.217,1.235.23,1.85.011.554.073,1.07.218,1.606.57,2.112,1.969,3.816,3.333,5.471.053.065.165-.021.117-.091h0Z" fill="#b9b9b9" stroke-width="0"/>
  <circle cx="102.504" cy="64.059" r="4.891" fill="#ff0087" stroke-width="0"/>
  <path d="M138.915,64.059c0-2.7,2.188-4.891,4.89-4.891s4.892,2.19,4.892,4.891-2.189,4.891-4.892,4.891-4.89-2.189-4.89-4.891Z" fill="#ff0087" stroke-width="0"/>
  <path d="M172.063,64.059c0-2.7,2.19-4.891,4.892-4.891s4.891,2.19,4.891,4.891-2.189,4.891-4.891,4.891-4.892-2.189-4.892-4.891Z" fill="#ff0087" stroke-width="0"/>
  <path d="M312.814,64.059c0-2.7,2.189-4.891,4.891-4.891s4.89,2.19,4.89,4.891-2.187,4.891-4.89,4.891-4.891-2.189-4.891-4.891Z" fill="#ff0087" stroke-width="0"/>
  <path d="M48.16,64.059c0-2.7,2.19-4.891,4.891-4.891s4.892,2.19,4.892,4.891-2.189,4.891-4.892,4.891-4.891-2.189-4.891-4.891Z" fill="#ff0087" stroke-width="0"/>
  <path d="M190.82,196.779c6.349.961,12.693-.038,19.045.906,5.283.782,13.814-1.45,19.1,1.003,5.283,2.457,19.954,3.332,24.991,3.754,5.043.427,6.417.893,10.065,2.622,3.645,1.731,15.693,3.782,20.184,3.793,4.489.005,4.754.267,8.086.893l18.005-.078c.416.109-.189.22.183.332,4.941,1.484,5.884,4.076,8.019,5.66,4.01,2.971,6.65,2.955,11.353-.334,4.485-3.14,2.201-3.348,11.829-5.918,6.016-1.607,7.966-3.293,8.706-4.756,2.047-4.039.006-4.305-4.962-3.528-1.623.255-4.116.63-4.116.63-1.822.771-10.4-.503-14.833-.819-3.438-.245-5.965,1.087-10.072.337-1.216-.221-2.794-.668-4.453-1.157l-13.026-4.418-8.312-3.719c-7.72-3.291-15.31-5.995-23.795-6.307-9.917-.365-19.615-2.685-28.838-6.609-3.099-1.309-1.816-.341-6.038-2.906-3.305-2.012-22.621-14.982-46.437-17.116" fill="#e3e3e3" stroke-width="0"/>
  <path d="M189.82,195.03c6.349.961,12.693,1.962,19.045,2.906,5.283.782,13.814,1.55,19.1,4.003,5.283,2.457,19.954,3.332,24.991,3.754,5.043.427,6.417.893,10.065,2.622,3.645,1.731,15.693,3.782,20.184,3.793,4.489.005-1.246.267,2.086.893,2.159.406,4.667.129,6.864.169,2.471.045,4.943.091,7.411.22,3.256.17,6.576.02,9.755.866,1.41.375,3.158.81,4.407,1.555,1.399.834,2.467,2.137,3.77,3.104,4.01,2.971,6.65,2.955,11.353-.334,4.485-3.14,2.201-3.348,11.829-5.918,6.016-1.607,7.966-3.293,8.706-4.756,2.047-4.039.006-4.305-4.962-3.528-1.623.255-4.116.63-4.116.63,0,0-.695-.056-1.811-.14" fill="#e3e3e3" stroke-width="0"/>
  <path d="M305.598,208.36c3.289-.017,4.003.208,6.062-.045l5.059,3.61c4.766,1.479,7.253.59,10.604-4.068,2.014-2.802,4.441-1.865,6.89-4.051,1.625-1.451,4.372-6.959.82-7.753-1.751-.391-4.902,2.744-6.787,3.077-5.248.92-11.614,1.792-17.119,1.871" fill="#e3e3e3" stroke-width="0"/>
  <path d="M317.397,218.514c0-2.741,2.222-4.963,4.966-4.963s4.963,2.222,4.963,4.963-2.221,4.966-4.963,4.966-4.966-2.225-4.966-4.966Z" fill="#ff0087" stroke-width="0"/>
  <path d="M180.292,194.137l20.075,1.143c6.692.402,13.371,1.151,20.054.994,3.384.034,6.639-1.059,10.003-.928,8.399-.074,16.669,1.784,25.008,2.263,1.642.015,3.257-.278,4.882-.66,3.3-.823,6.737-.706,10.104-.691,5.009.008,10.121.648,15.014,1.599,4.953.249,10.082.34,15.039.985,3.337.424,6.675.922,9.945,1.872,3.206,1.132,6.29,2.307,9.562,2.988,3.238.677,6.621.959,9.862.263,1.654-.303,3.142-1.113,4.78-1.503,1.656-.403,3.357-.382,5.027-.355v.1c-2.528-.012-5.009.268-7.292,1.398-7.229,2.982-15.213.272-22.172-2.105-6.43-1.628-13.192-2.068-19.81-2.461-3.284.076-6.823-.369-10.024-1.084-4.917-.699-9.974-.923-14.953-.81-3.412-.073-6.553,1.288-9.969,1.225-1.711-.021-3.386-.236-5.05-.458-6.625-.896-13.269-1.91-19.954-1.993-3.38-.148-6.636.92-9.991.853-6.735.091-13.408-.727-20.085-1.194.012-.098-20.279-1.167-20.055-1.442h0Z" fill="#b9b9b9" stroke-width="0"/>
  <g>
    <path d="M103.5,209.5c-.244,3.17-4.002,9.563-5.461,12.314-.21.395-.428.801-.772,1.086-1.345,1.113-7.087.796-8.975.843-3.334.083-6.676-.356-9.951-.942-5.743-1.029-11.284-2.827-16.972-4.079-4.469-.984-9.108-.379-13.626-.914-2.132-.252-4.612-.336-6.655-1.008-.826-.272-1.017-.281-1.536-.967-.28-.371-.425-2.128-.407-2.113,0,0-.786-.677-1.431-1.85-.05-.091-.064-.197-.083-.299-.131-.678,1.031-1.707,1.758-1.191.505.357,5.468,2,6.059,2.005,1.121.011,4.409-1.451,5.301-2.17.677-1.358-1.909-1.809-3.008-2.387-2.812-1.481-3.657-4-1.036-3.1,1.483.509,3.631,1.15,5.58,1.287,2.535.177,4.594.733,5.863,1.307,2.243,1.016,3.311,3.085,3.311,3.085l3.082.644c1.039.246,14.568-.739,18.441-1.219" fill="#e3e3e3" stroke-width="0"/>
    <path d="M103.55,209.504c-.452,3.159-2.098,5.976-3.505,8.792-.749,1.4-1.483,2.782-2.265,4.18-.213.343-.549.648-.936.797-2.657.869-5.541.549-8.288.629-7.961.23-15.715-2.033-23.354-3.966-3.058-.789-6.105-1.47-9.277-1.476,0,0-4.742-.07-4.742-.07-3.212-.158-6.344-.346-9.507-1.01-.636-.193-1.215-.292-1.799-.642-.612-.411-.918-1.063-1.001-1.771-.049-.317-.124-.83-.143-1.147l-.003-.046v-.029c.302-.141-.679.228.682-.346l-.537.637c-.773-.822-2.162-2.077-1.486-3.251.464-.82,1.565-1.315,2.4-.699,1.805.648,4.048,1.629,5.936,1.789,1.618-.37,3.39-1.167,4.715-2.046,0,0-.132.165-.132.165.073-.171.073-.234.023-.332-.396-.519-1.202-.717-1.859-.99-1.571-.611-3.662-1.812-3.837-3.703.352-2.107,3.892.092,5.183.147,3.24.718,6.838.484,9.69,2.503.949.699,1.721,1.558,2.308,2.605l-.273-.207,2.647.579c2.568.364,5.371-.062,7.997-.109,3.598-.206,7.203-.371,10.792-.705l.012.099c-5.823.736-11.672,1.299-17.538,1.562-.949.09-3.12-.49-4.074-.646,0,0-.172-.034-.172-.034l-.101-.173c-3.01-5.169-9.969-3.275-14.723-5.441-.273-.081-.581-.149-.775-.084.012-.002.029-.054.02-.019-.011.073.061.298.178.485,1.021,1.67,2.94,2.074,4.613,2.91.267.17.561.362.78.741.264.445.164,1.01-.068,1.368-1.641,1.119-3.339,1.854-5.26,2.279-.362.091-.89-.023-1.263-.136-1.778-.524-3.496-1.071-5.203-1.801-.232-.109-.4-.291-.675-.165-.409.15-.892.672-.555,1.083.334.585.774,1.156,1.243,1.595l-.537.637c1.356-.562.378-.18.68-.309.01.306.081.79.122,1.097.081.346.067.643.309.91.426.594,1.238.657,1.88.88,3.009.661,6.245.894,9.33,1.069,0,0,4.744.112,4.744.112,6.373.162,12.41,2.619,18.576,3.958,6.881,1.693,14.063,2.305,21.113,1.6.759-.141,1.569-.315,1.967-1.002.776-1.353,1.535-2.76,2.289-4.142,1.522-2.722,2.961-5.842,3.659-8.71h0Z" fill="#b9b9b9" stroke-width="0"/>
  </g>
  <g>
    <path d="M18.647,154.606v-10.021h7.246v1.183h-5.92v3.069h5.544v1.176h-5.544v3.411h6.152v1.183h-7.479Z" fill="#333" stroke-width="0"/>
    <path d="M32.538,153.711c-.456.388-.895.661-1.316.82s-.874.239-1.357.239c-.797,0-1.411-.195-1.839-.584-.428-.391-.643-.888-.643-1.494,0-.355.081-.68.243-.975.162-.293.374-.529.636-.707s.557-.312.885-.403c.242-.063.606-.125,1.094-.185.994-.118,1.725-.26,2.194-.424.004-.169.007-.275.007-.321,0-.501-.116-.854-.349-1.06-.314-.278-.782-.417-1.401-.417-.579,0-1.006.102-1.282.304-.276.203-.479.562-.612,1.077l-1.203-.164c.109-.515.29-.931.54-1.247.25-.317.613-.561,1.087-.732.474-.17,1.023-.256,1.647-.256.62,0,1.124.073,1.511.219s.672.329.854.551c.182.221.31.5.383.837.041.21.062.588.062,1.135v1.641c0,1.144.026,1.867.079,2.171.052.303.156.593.311.871h-1.285c-.127-.255-.209-.554-.246-.896ZM32.435,150.963c-.447.183-1.117.337-2.01.465-.506.073-.864.155-1.073.246s-.372.225-.485.399c-.114.176-.171.371-.171.585,0,.328.124.602.373.82s.612.328,1.09.328c.474,0,.896-.104,1.265-.312.369-.207.64-.49.813-.851.132-.278.198-.688.198-1.23v-.451Z" fill="#333" stroke-width="0"/>
    <path d="M35.573,154.606v-7.26h1.107v1.101c.283-.515.543-.854.783-1.019s.502-.246.79-.246c.415,0,.836.132,1.265.396l-.424,1.142c-.301-.178-.602-.267-.902-.267-.269,0-.51.081-.725.242-.214.162-.367.387-.458.674-.137.438-.205.916-.205,1.436v3.801h-1.23Z" fill="#333" stroke-width="0"/>
  </g>
  <polyline points="26.795 160.336 26.795 195.245 54.069 195.245" fill="none" stroke="#333" stroke-miterlimit="10"/>
  <path d="M50.102,195.245c0-2.741,2.222-4.964,4.964-4.964s4.964,2.223,4.964,4.964-2.223,4.964-4.964,4.964-4.964-2.223-4.964-4.964Z" fill="#ff0087" stroke-width="0"/>
  <g>
    <path d="M264.152,152.616v-10.021h1.326v10.021h-1.326Z" fill="#333" stroke-width="0"/>
    <path d="M267.659,152.616v-7.26h1.107v1.032c.533-.798,1.304-1.196,2.311-1.196.438,0,.84.078,1.206.236.367.156.642.363.824.618s.31.559.383.909c.046.228.068.627.068,1.196v4.464h-1.23v-4.416c0-.501-.048-.876-.144-1.125-.096-.248-.266-.446-.509-.594-.244-.148-.53-.223-.858-.223-.524,0-.977.166-1.356.499-.381.333-.571.964-.571,1.894v3.965h-1.23Z" fill="#333" stroke-width="0"/>
    <path d="M275.445,152.616v-7.26h1.107v1.032c.533-.798,1.304-1.196,2.311-1.196.438,0,.84.078,1.206.236.367.156.642.363.824.618s.31.559.383.909c.046.228.068.627.068,1.196v4.464h-1.23v-4.416c0-.501-.048-.876-.144-1.125-.096-.248-.266-.446-.509-.594-.244-.148-.53-.223-.858-.223-.524,0-.977.166-1.356.499-.381.333-.571.964-.571,1.894v3.965h-1.23Z" fill="#333" stroke-width="0"/>
    <path d="M288.201,150.278l1.271.157c-.2.743-.572,1.319-1.114,1.729s-1.235.615-2.078.615c-1.062,0-1.903-.327-2.526-.98-.621-.654-.933-1.571-.933-2.752,0-1.222.314-2.169.943-2.844s1.444-1.012,2.447-1.012c.971,0,1.764.33,2.379.991s.923,1.591.923,2.789c0,.073-.002.183-.007.328h-5.414c.046.798.271,1.408.677,1.832s.911.636,1.518.636c.451,0,.836-.118,1.155-.355s.572-.615.759-1.135ZM284.161,148.289h4.054c-.055-.61-.21-1.068-.465-1.374-.392-.474-.9-.711-1.524-.711-.565,0-1.04.189-1.425.567-.386.378-.599.884-.64,1.518Z" fill="#333" stroke-width="0"/>
    <path d="M291.004,152.616v-7.26h1.107v1.101c.282-.515.544-.854.782-1.019.24-.164.503-.246.79-.246.415,0,.836.132,1.265.396l-.424,1.142c-.301-.178-.602-.267-.902-.267-.269,0-.511.081-.725.242-.214.162-.367.387-.458.674-.137.438-.205.916-.205,1.436v3.801h-1.23Z" fill="#333" stroke-width="0"/>
    <path d="M299.077,150.449l1.217-.191c.068.487.259.861.571,1.121.312.26.748.39,1.309.39.565,0,.984-.115,1.258-.346.273-.229.41-.5.41-.81,0-.278-.121-.497-.362-.656-.169-.109-.588-.248-1.258-.417-.902-.228-1.528-.425-1.876-.592-.35-.166-.613-.396-.793-.689-.181-.295-.271-.619-.271-.975,0-.323.074-.623.222-.898.148-.276.351-.505.605-.688.191-.142.452-.261.783-.359.33-.098.685-.146,1.062-.146.569,0,1.07.082,1.5.246.432.164.749.387.954.666.205.281.347.655.424,1.125l-1.203.164c-.055-.374-.213-.665-.476-.875-.262-.21-.632-.314-1.11-.314-.565,0-.969.094-1.21.28s-.362.405-.362.656c0,.159.05.303.15.431.101.132.258.241.472.328.123.046.485.15,1.087.314.87.232,1.478.423,1.821.57.345.148.614.364.811.646s.294.634.294,1.053c0,.41-.12.797-.358,1.158-.24.363-.585.643-1.036.842-.451.197-.962.297-1.531.297-.943,0-1.662-.196-2.157-.588-.494-.392-.81-.973-.946-1.743Z" fill="#333" stroke-width="0"/>
    <path d="M306.576,144.01v-1.415h1.23v1.415h-1.23ZM306.576,152.616v-7.26h1.23v7.26h-1.23Z" fill="#333" stroke-width="0"/>
    <path d="M314.39,152.616v-.916c-.46.72-1.137,1.08-2.03,1.08-.579,0-1.11-.159-1.597-.479-.484-.319-.861-.765-1.127-1.336-.268-.572-.4-1.229-.4-1.973,0-.725.121-1.382.362-1.973.241-.59.604-1.042,1.087-1.356s1.023-.472,1.62-.472c.438,0,.827.092,1.169.277.342.184.62.425.834.721v-3.596h1.224v10.021h-1.142ZM310.5,148.993c0,.93.196,1.625.588,2.085s.854.69,1.388.69c.538,0,.994-.22,1.371-.66.375-.439.563-1.11.563-2.013,0-.993-.191-1.723-.574-2.188s-.854-.697-1.415-.697c-.547,0-1.004.224-1.371.67-.366.446-.55,1.15-.55,2.112Z" fill="#333" stroke-width="0"/>
    <path d="M322.436,150.278l1.271.157c-.2.743-.572,1.319-1.114,1.729s-1.235.615-2.078.615c-1.062,0-1.903-.327-2.526-.98-.621-.654-.933-1.571-.933-2.752,0-1.222.314-2.169.943-2.844s1.444-1.012,2.447-1.012c.971,0,1.764.33,2.379.991s.923,1.591.923,2.789c0,.073-.002.183-.007.328h-5.414c.046.798.271,1.408.677,1.832s.911.636,1.518.636c.451,0,.836-.118,1.155-.355s.572-.615.759-1.135ZM318.396,148.289h4.054c-.055-.61-.21-1.068-.465-1.374-.392-.474-.9-.711-1.524-.711-.565,0-1.04.189-1.425.567-.386.378-.599.884-.64,1.518Z" fill="#333" stroke-width="0"/>
    <path d="M263.312,163.986c0-1.345.374-2.34,1.121-2.987.624-.538,1.386-.807,2.283-.807.998,0,1.813.327,2.447.98.634.654.95,1.558.95,2.711,0,.935-.14,1.669-.421,2.205-.279.535-.688.951-1.223,1.247-.536.296-1.12.444-1.754.444-1.017,0-1.838-.326-2.465-.978-.626-.651-.939-1.591-.939-2.816ZM264.576,163.986c0,.93.203,1.626.608,2.089.405.462.916.693,1.531.693.61,0,1.119-.232,1.524-.697s.608-1.174.608-2.126c0-.897-.204-1.578-.611-2.04-.408-.463-.915-.694-1.521-.694-.615,0-1.126.23-1.531.69s-.608,1.155-.608,2.085Z" fill="#333" stroke-width="0"/>
    <path d="M271.85,167.616v-6.303h-1.087v-.957h1.087v-.772c0-.487.043-.85.13-1.087.118-.319.327-.578.626-.775.298-.199.716-.298,1.254-.298.347,0,.729.041,1.148.123l-.185,1.073c-.255-.046-.497-.068-.725-.068-.374,0-.638.08-.793.239s-.232.458-.232.896v.67h1.415v.957h-1.415v6.303h-1.224Z" fill="#333" stroke-width="0"/>
    <path d="M282.021,166.516l.178,1.087c-.347.073-.656.109-.93.109-.446,0-.793-.07-1.039-.212s-.419-.327-.52-.558c-.101-.229-.15-.714-.15-1.452v-4.177h-.902v-.957h.902v-1.798l1.224-.738v2.536h1.237v.957h-1.237v4.245c0,.351.021.576.065.677.043.101.113.18.211.239.099.06.238.089.421.089.137,0,.316-.016.54-.048Z" fill="#333" stroke-width="0"/>
    <path d="M283.225,167.616v-10.021h1.23v3.596c.574-.665,1.299-.998,2.174-.998.538,0,1.005.105,1.401.318.396.211.68.504.852.878.17.374.256.916.256,1.627v4.601h-1.23v-4.601c0-.615-.133-1.063-.4-1.343-.266-.281-.644-.421-1.131-.421-.364,0-.707.095-1.029.284-.32.188-.55.445-.687.769s-.205.771-.205,1.34v3.972h-1.23Z" fill="#333" stroke-width="0"/>
    <path d="M295.98,165.278l1.271.157c-.2.743-.572,1.319-1.114,1.729s-1.235.615-2.078.615c-1.062,0-1.903-.327-2.526-.98-.621-.654-.933-1.571-.933-2.752,0-1.222.314-2.169.943-2.844s1.444-1.012,2.447-1.012c.971,0,1.764.33,2.379.991s.923,1.591.923,2.789c0,.073-.002.183-.007.328h-5.414c.046.798.271,1.408.677,1.832s.911.636,1.518.636c.451,0,.836-.118,1.155-.355s.572-.615.759-1.135ZM291.94,163.289h4.054c-.055-.61-.21-1.068-.465-1.374-.392-.474-.9-.711-1.524-.711-.565,0-1.04.189-1.425.567-.386.378-.599.884-.64,1.518Z" fill="#333" stroke-width="0"/>
    <path d="M302.693,167.616v-10.021h1.23v5.715l2.912-2.953h1.593l-2.775,2.693,3.056,4.566h-1.518l-2.399-3.712-.868.834v2.878h-1.23Z" fill="#333" stroke-width="0"/>
    <path d="M309.687,167.616v-7.26h1.107v1.032c.533-.798,1.304-1.196,2.311-1.196.438,0,.84.078,1.206.236.367.156.642.363.824.618s.31.559.383.909c.046.228.068.627.068,1.196v4.464h-1.23v-4.416c0-.501-.048-.876-.144-1.125-.096-.248-.266-.446-.509-.594-.244-.148-.53-.223-.858-.223-.524,0-.977.166-1.356.499-.381.333-.571.964-.571,1.894v3.965h-1.23Z" fill="#333" stroke-width="0"/>
    <path d="M322.442,165.278l1.271.157c-.2.743-.572,1.319-1.114,1.729s-1.235.615-2.078.615c-1.062,0-1.903-.327-2.526-.98-.621-.654-.933-1.571-.933-2.752,0-1.222.314-2.169.943-2.844s1.444-1.012,2.447-1.012c.971,0,1.764.33,2.379.991s.923,1.591.923,2.789c0,.073-.002.183-.007.328h-5.414c.046.798.271,1.408.677,1.832s.911.636,1.518.636c.451,0,.836-.118,1.155-.355s.572-.615.759-1.135ZM318.402,163.289h4.054c-.055-.61-.21-1.068-.465-1.374-.392-.474-.9-.711-1.524-.711-.565,0-1.04.189-1.425.567-.386.378-.599.884-.64,1.518Z" fill="#333" stroke-width="0"/>
    <path d="M330.229,165.278l1.271.157c-.2.743-.572,1.319-1.114,1.729s-1.235.615-2.078.615c-1.062,0-1.903-.327-2.526-.98-.621-.654-.933-1.571-.933-2.752,0-1.222.314-2.169.943-2.844s1.444-1.012,2.447-1.012c.971,0,1.764.33,2.379.991s.923,1.591.923,2.789c0,.073-.002.183-.007.328h-5.414c.046.798.271,1.408.677,1.832s.911.636,1.518.636c.451,0,.836-.118,1.155-.355s.572-.615.759-1.135ZM326.188,163.289h4.054c-.055-.61-.21-1.068-.465-1.374-.392-.474-.9-.711-1.524-.711-.565,0-1.04.189-1.425.567-.386.378-.599.884-.64,1.518Z" fill="#333" stroke-width="0"/>
  </g>
  <polyline points="257.5 156.5 247.5 156.5 247.519 195.245" fill="none" stroke="#333" stroke-miterlimit="10"/>
  <path d="M242.554,193.159c0-2.741,2.223-4.963,4.967-4.963s4.964,2.222,4.964,4.963-2.224,4.966-4.964,4.966-4.967-2.225-4.967-4.966Z" fill="#ff0087" stroke-width="0"/>
  <path d="M92.885,218.988c0-2.741,2.222-4.963,4.963-4.963s4.965,2.222,4.965,4.963-2.223,4.966-4.965,4.966-4.963-2.225-4.963-4.966Z" fill="#ff0087" stroke-width="0"/>
  <polyline points="76.5 241.5 81.5 241.5 81.985 207.515" fill="none" stroke="#333" stroke-miterlimit="10"/>
  <path d="M77.02,207.514c0-2.741,2.223-4.963,4.965-4.963s4.963,2.222,4.963,4.963-2.222,4.966-4.963,4.966-4.965-2.225-4.965-4.966Z" fill="#ff0087" stroke-width="0"/>
  <g>
    <path d="M264.977,246.207v-10.021h1.326v8.839h4.936v1.183h-6.262Z" fill="#333" stroke-width="0"/>
    <path d="M277.63,243.869l1.271.157c-.2.743-.572,1.319-1.114,1.729s-1.235.615-2.078.615c-1.062,0-1.903-.327-2.526-.98-.621-.654-.933-1.571-.933-2.752,0-1.222.314-2.169.943-2.844s1.444-1.012,2.447-1.012c.971,0,1.764.33,2.379.991s.923,1.591.923,2.789c0,.073-.002.183-.007.328h-5.414c.046.798.271,1.408.677,1.832s.911.636,1.518.636c.451,0,.836-.118,1.155-.355s.572-.615.759-1.135ZM273.59,241.88h4.054c-.055-.61-.21-1.068-.465-1.374-.392-.474-.9-.711-1.524-.711-.565,0-1.04.189-1.425.567-.386.378-.599.884-.64,1.518Z" fill="#333" stroke-width="0"/>
    <path d="M280.221,246.809l1.196.178c.05.369.189.638.417.807.306.228.723.342,1.251.342.569,0,1.01-.114,1.319-.342s.52-.547.629-.957c.063-.251.094-.777.089-1.579-.538.634-1.208.95-2.01.95-.998,0-1.771-.36-2.317-1.08s-.82-1.584-.82-2.591c0-.692.125-1.332.376-1.917.251-.586.614-1.038,1.091-1.357.476-.319,1.035-.479,1.678-.479.856,0,1.563.347,2.119,1.039v-.875h1.135v6.275c0,1.13-.115,1.932-.346,2.402-.229.473-.594.845-1.094,1.118-.498.273-1.112.41-1.842.41-.866,0-1.565-.194-2.099-.585-.533-.389-.791-.976-.772-1.76ZM281.239,242.447c0,.952.189,1.647.567,2.085s.853.656,1.422.656c.565,0,1.039-.218,1.422-.653.383-.435.574-1.117.574-2.047,0-.889-.197-1.559-.592-2.01-.394-.451-.869-.677-1.425-.677-.547,0-1.012.222-1.395.667-.383.443-.574,1.104-.574,1.979Z" fill="#333" stroke-width="0"/>
  </g>
</svg>