<?xml version="1.0" encoding="UTF-8"?>
<svg xmlns="http://www.w3.org/2000/svg" width="374.625" height="270" viewBox="0 0 374.625 270">
  <defs>
    <style>
      .cls-1 {
        fill: #333;
      }

      .cls-1, .cls-2, .cls-3, .cls-4, .cls-5, .cls-6, .cls-7, .cls-8, .cls-9, .cls-10, .cls-11, .cls-12, .cls-13, .cls-14, .cls-15, .cls-16, .cls-17, .cls-18, .cls-19, .cls-20, .cls-21 {
        stroke-width: 0px;
      }

      .cls-2 {
        fill: #b5b5b5;
      }

      .cls-3 {
        fill: #123675;
      }

      .cls-4 {
        fill: #8ccaae;
      }

      .cls-5 {
        fill: #e3e3e3;
      }

      .cls-6 {
        fill: #4d4d4d;
      }

      .cls-22 {
        stroke: #bdb8b5;
        stroke-linejoin: round;
        stroke-width: .554px;
      }

      .cls-22, .cls-23, .cls-8, .cls-24, .cls-21 {
        mix-blend-mode: multiply;
      }

      .cls-22, .cls-25 {
        stroke-linecap: round;
      }

      .cls-22, .cls-25, .cls-26 {
        fill: none;
      }

      .cls-7 {
        fill: #ff0087;
      }

      .cls-8, .cls-12 {
        fill: #cbc4c0;
      }

      .cls-9 {
        fill: #cac3bf;
      }

      .cls-25 {
        stroke: #b5b5b5;
        stroke-width: 1.107px;
      }

      .cls-25, .cls-26 {
        stroke-miterlimit: 10;
      }

      .cls-26 {
        stroke: #333;
      }

      .cls-10 {
        fill: #000;
      }

      .cls-11 {
        fill: #27201a;
      }

      .cls-13 {
        fill: #996949;
      }

      .cls-14 {
        fill: gray;
      }

      .cls-15 {
        fill: #383838;
      }

      .cls-16 {
        fill: #5e4334;
      }

      .cls-27 {
        isolation: isolate;
      }

      .cls-17 {
        fill: #fde6dc;
      }

      .cls-18 {
        fill: #ccc;
      }

      .cls-19 {
        fill: #dea476;
      }

      .cls-24 {
        opacity: .3;
      }

      .cls-20 {
        fill: #fff3d1;
      }

      .cls-21 {
        fill: #d8cfcb;
      }
    </style>
  </defs>
  <g class="cls-27">
    <g id="Layer_1" data-name="Layer 1">
      <rect class="cls-5" x="118.625" y="216.983" width="177" height="6"/>
      <path class="cls-14" d="M157.01,102.768c.646,7.064,2.393,14.747-1.216,21.342-1.382,2.525-2.412,5.262-2.914,8.101-.974,5.509-1.772,11.15,1.746,15.555,1.51,1.891,6.622,3.319,9.04,3.217l69.824.89,4.166-17.309c-.818-.065-.724-4.261-5.157-6.509-3.716-1.884-25.978,1.663-36.61,1.413.371-1.042.679-2.073.848-3.111.802-4.944.343-12.644.343-16.421s.684-9.521.684-13.048c0-1.651-.169-7.317-2.365-13.672"/>
      <path class="cls-14" d="M249.498,143.012c.002.014.005.027.007.041.228,1.402-.242,2.327-.425,3.65-.274,1.979,0,4.177,0,6.182,0,6.604-6.231,2.898-12.835,2.898-3.477-.732-.362,1.037-2.994-1.595-1.916-1.916-12.201-.858-14.369-1.916-3.211-1.567-6.238-4.634-6.238-8.497,0-6.604,5.403-12.007,12.007-12.007,0,0,12.418,0,12.422,0,5.015,0,9.368,3.354,11.38,7.83.64,1.424,1.147,3.058,1.229,4.626.004.072.006.147-.017.215-.076.219-.358.268-.589.281"/>
      <path class="cls-18" d="M250.112,195.814c.227,2.62.518,7.022,1.019,8.773l-.915,11.349c-3.38,0-10.316,1.363-11.628.387-1.312-.976-.424-2.704-.278-6.19.146-3.486-.02-6.647.428-8.644s.468-2.346.468-5.134l10.907-.541Z"/>
      <path class="cls-14" d="M249.625,143.983c.527,3.528,3.059,48.377,3.112,52.948l-18.551.648c0-2.603-1.957-29.286-2.214-31.125-.148-1.06-.177-2.132-.31-3.194-.124-.989-.41-1.907-.531-2.901-.125-1.025-.233-2.053-.314-3.083-.041-.516-.074-1.033-.1-1.55-.02-.405.119-.747-.026-1.137-.405-1.087-1.688-1.457-2.726-1.698-.449-.104-.736-.079-.537-.604.123-.323.375-.577.525-.884.255-.523.508-1.047.761-1.571.118-.245.222-.618.406-.823.209-.233,1.451,3.814,1.451,3.496,0-.651.027-1.304.068-1.954.079-1.26.227-2.519.503-3.752,1.545-6.897,2.932-13.329,2.932-13.329"/>
      <path class="cls-3" d="M227.661,158.601h-79.792l3.143-9.115h66.35c4.583,0,10.299,3.715,10.299,8.299v.816Z"/>
      <path class="cls-16" d="M181.413,75.314c.229,1.364,2.228,31.962,4.702,37.365,2.321,5.068,6.581,4.178,11.428,5.631,2.374.711,11.474,1.331,13.553,1.548,5.221.545,10.352,1.935,15.587,1.535,3.192-.156,5.988.501,8.795,2.168,1.199.735,9.905,5.774,6.423,7.044,1.588,1.074-.411,3.117-1.857,2.063-.31,1.255-2.626.23-3.457-.025.467,1.936-3.69.668-4.38.433-1.097-.433-2.051-.847-3.005-1.261-.974-.273-1.984-.261-2.957-.533-1.113-.29-2.031-.989-3.146-1.279-1.096-.433-2.389-.461-3.684-.485-3.276-.288-6.714-.452-10.171-.476l-1.244-.055c-1.512-.129-3.81-.219-7.56-.097-7.305.234-14.545-1.26-21.679-2.637-6.379-1.231-6.79-5.035-8.763-10.584-.898-2.526-1.629-5.489-2.663-9.679-2.576-10.441-4.857-26.923-5.057-31.695"/>
      <path class="cls-4" d="M183.329,77.314c.229,1.364,2.228,31.962,4.702,37.365,2.321,5.068,4.665,1.305,9.512,2.757,2.374.711,11.474,1.331,13.553,1.548,1.726.18,1.526.453,3.239.722l-.712,10.277h-7c-2.327,0-4.392-.153-6.184-.095-7.305.234-14.545-.26-21.679-1.637-6.379-1.231-6.79-5.035-8.763-10.584-.898-2.526-1.629-5.489-2.663-9.679-2.576-10.441-4.857-26.923-5.057-31.695"/>
      <path class="cls-4" d="M206.967,131.287c-.022,1.02-3.173,4.663-3.849,4.895-2.686.921-5.443,1.647-8.193,2.348-6.508,1.659-12.774,3.413-19.504,3.293-3.409-.06-7.011-.081-10.319-1.009-4.182-1.173-8.364-6.22-12.546-7.394.011-4.42.205-4.496.715-9.538,1.525-15.072.265-21.48.354-31.9.23-26.983,11.921-30.44,11.921-30.44,0,0,4.049,2.614,10.157,3.364,6.165.757,8.152-1.099,8.153-1.1,0,0,14.551,15.855,16.058,22.68,1.888,8.549,7.242,36.149,7.053,44.8Z"/>
      <g class="cls-24">
        <path class="cls-15" d="M183.376,77.306c1.258,9.468,1.609,19.043,3.267,28.47.594,3.188.942,6.46,2.571,9.27.744,1.17,2.14,1.394,3.565,1.621,4.705.732,9.462,1.191,14.196,1.911l-.008.095c-4.783-.175-9.558-.494-14.327-1.059-1.424-.186-3.404-.548-4.27-2.054-1.685-2.944-1.968-6.435-2.485-9.668-1.389-9.428-1.817-19.295-2.51-28.587h0Z"/>
      </g>
      <g>
        <g>
          <path class="cls-16" d="M182.878,50.283s-1.088,8.718.498,14.392c.611,2.186-18.991.355-18.595-1.493,1.479-6.908,1.079-23.115,1.079-23.115"/>
          <path class="cls-21" d="M183.269,64.266c-1.008-.209-1.777-1.123-2.374-1.899-.892-1.16-1.891-2.231-2.895-3.293-2.524-2.669-5.403-5.165-7.576-8.172-.934-1.293-2.174-3.069-1.967-4.764l14.421,7.836s-.885,5.278.39,10.292Z"/>
        </g>
        <g>
          <g>
            <path class="cls-16" d="M195.444,33.908c-.151.645-.271,1.312-.113,1.968.329,1.363,3.945,5.541,4.311,6.399.366.858.621,1.444.145,2.548-.244.567-1.02.837-1.554,1.021-.35.121-.709.22-1.07.302-.414.094-.559.255-.669.679-.21.809-.187,1.771-.594,2.507-.375.679-.527,1.506-.812,2.233-.6,1.527-1.43,2.973-2.619,4.119-1.147,1.106-2.596,1.851-4.182,2.058,0,0-.076.009-.213.02-.229.024-.457.037-.685.041-2.164.088-6.853-.275-12.936-3.665-3.125-1.742-8.694-7.312-11.181-12.152-.993-1.537-7.884-18.034,5.126-24.278,5.964-2.863,10.539-2.915,17.028-.945,1.661.504,4.527,2.228,5.813,3.401,1.388,1.265,2.709,2.864,3.612,4.515.425.779.668,1.663.862,2.524.106.471.192.946.258,1.425.067.485.175.967.215,1.455.046.56.01,1.127-.092,1.679-.136.737-.481,1.419-.651,2.146Z"/>
            <path class="cls-2" d="M184.813,26.41c.786-1.875,1.117-3.637,2.503-5.111.395-.42.736-.906,1.088-1.363.219-.285.51-1.492.719-1.785.614-.864-14.127-4.281-17.395-3.75-.746-.072-6.672,1.242-8.443,3.012-4.429,4.429-3.91,11.152-3.873,13.045.036,1.861-.307,3.819-.162,5.64.194,2.436,1.218,4.61,2.844,6.42.875.974,1.854,1.787,2.86,2.617.345.285,2.03,2.195,2.272,2.173.002,0,5.17-1.016,4.404-7.058-.72-5.678.647-1.844,2.358-3.336,1.711-1.492-.735-.221.6-.217,1.67.006,4.012,1.184,5.549.127.843-.579,1.301-.696,1.531-1.664.092-.388.186-.776.281-1.164.339-1.384.693-2.765,1.019-4.152.273-1.162,1.378-2.319,1.846-3.437Z"/>
          </g>
          <path class="cls-25" d="M189.752,31.636s2.844-1.461,5.825.327"/>
          <circle class="cls-11" cx="192.6" cy="35.447" r="1.336"/>
          <path class="cls-22" d="M187.759,33.735c.678.658,1.593,1.066,2.535,1.133-.83.054-1.535.577-2.379.51"/>
          <path class="cls-2" d="M186.541,57.832c-.105-.083-.192-.19-.254-.331,1.331,3.05.455-6.29.256-3.28.068-1.035.133-2.071.204-3.106.063-.933.61-2.109,1.255-2.689.156-.141-.376.491-.106.433,1.329-.289,2.747-.536,4.076-.473.791.038,1.582.071,2.374.1.458.017,1.116-.155,1.523.119.31.209.222.701.167,1.009-.072.402-.079.803-.211,1.19-.318.933-.783,1.812-1.086,2.749-.392,1.21-.539,2.517-1.138,3.653-.221.42-.464,1.08-.858,1.367-.304.221-1.087.401-1.411.166-.358-.26-.89-.254-1.316-.227-.412.026-.847.174-1.26.087-.366-.077-.827-.248-1.189-.372-.345-.118-.734-.163-1.027-.397Z"/>
        </g>
        <g>
          <path class="cls-16" d="M177.869,39.892c.464,1.243-.93,2.267-1.136,3.464-.089.516-.388,1.214-1.636,1.408-.551.086-1.231.115-1.688-.224-.617-.457-.602-1.16-.785-1.79-.184-.632-.353-1.269-.597-1.886-.205-.518-.545-.972-.796-1.476-.198-.398-.411-.779-.538-1.201-.465-1.554-.364-2.7.682-3.885.953-1.079,2.194-1.51,3.596-1.227.387.078.771.187,1.119.374,1.062.571,1.727,1.662,1.935,2.824.202,1.128-.642,2.169-.276,3.29.035.106.078.217.12.33Z"/>
          <g class="cls-23">
            <path class="cls-12" d="M176.733,35.394c-.933-.83-2.342-.861-3.463-.551-1.164.388-1.361,1.885-1.222,2.998-.333-.568-.422-1.269-.303-1.949.369-2.251,3.953-2.176,4.988-.498h0Z"/>
          </g>
          <g class="cls-23">
            <path class="cls-9" d="M176.733,43.356c-.457,2.545-4.336,2.614-4.573-.106-.051-.659-.313-1.278-.428-1.966.344.582.709,1.184.875,1.872.403,2.199,3.332,2.118,4.127.2h0Z"/>
          </g>
        </g>
        <circle class="cls-2" cx="165.868" cy="45.834" r="1.846"/>
        <circle class="cls-2" cx="163.653" cy="43.62" r="1.846"/>
        <circle class="cls-2" cx="162.177" cy="41.405" r="1.846"/>
        <circle class="cls-2" cx="160.701" cy="39.19" r="1.846"/>
        <circle class="cls-2" cx="159.962" cy="36.237" r="1.846"/>
        <circle class="cls-2" cx="159.962" cy="33.284" r="1.846"/>
        <circle class="cls-2" cx="159.962" cy="29.593" r="1.846"/>
        <circle class="cls-2" cx="159.962" cy="26.64" r="1.846"/>
        <circle class="cls-2" cx="160.701" cy="23.688" r="1.846"/>
        <circle class="cls-2" cx="161.439" cy="20.735" r="1.846"/>
        <circle class="cls-2" cx="162.915" cy="18.52" r="1.846"/>
        <circle class="cls-2" cx="165.13" cy="17.044" r="1.846"/>
        <circle class="cls-2" cx="167.515" cy="15.684" r="1.846"/>
        <circle class="cls-2" cx="170.297" cy="14.829" r="1.846"/>
        <circle class="cls-2" cx="173.25" cy="14.829" r="1.846"/>
        <circle class="cls-2" cx="176.203" cy="14.829" r="1.846"/>
        <circle class="cls-2" cx="179.202" cy="15.049" r="1.846"/>
        <circle class="cls-2" cx="182.109" cy="15.567" r="1.846"/>
        <circle class="cls-2" cx="185.062" cy="16.306" r="1.846"/>
        <circle class="cls-2" cx="174.47" cy="28.479" r="1.846"/>
        <circle class="cls-2" cx="188.015" cy="17.782" r="1.846"/>
        <circle class="cls-2" cx="187.049" cy="20.786" r="1.846"/>
        <circle class="cls-2" cx="186.402" cy="23.667" r="1.846"/>
        <circle class="cls-2" cx="185.531" cy="26.545" r="1.846"/>
        <circle class="cls-2" cx="184.389" cy="29.268" r="1.846"/>
        <circle class="cls-2" cx="183.022" cy="31.988" r="1.846"/>
        <circle class="cls-2" cx="180.934" cy="34.546" r="1.846"/>
        <circle class="cls-2" cx="170.298" cy="43.62" r="1.846"/>
        <circle class="cls-2" cx="167.958" cy="46.218" r="1.846"/>
        <circle class="cls-2" cx="190.229" cy="57.646" r="1.846"/>
        <circle class="cls-2" cx="188.015" cy="54.693" r="1.846"/>
        <circle class="cls-2" cx="188.015" cy="52.479" r="1.846"/>
        <circle class="cls-2" cx="188.015" cy="50.264" r="1.846"/>
        <circle class="cls-2" cx="188.753" cy="49.525" r="1.846"/>
        <circle class="cls-2" cx="192.444" cy="57.646" r="1.846"/>
        <circle class="cls-2" cx="188.015" cy="56.908" r="1.846"/>
        <circle class="cls-2" cx="193.183" cy="55.431" r="1.846"/>
        <circle class="cls-2" cx="193.183" cy="49.526" r="1.846"/>
        <circle class="cls-2" cx="190.968" cy="49.526" r="1.846"/>
        <circle class="cls-2" cx="195.397" cy="49.526" r="1.846"/>
        <circle class="cls-2" cx="193.183" cy="54.693" r="1.846"/>
        <circle class="cls-2" cx="193.921" cy="52.479" r="1.846"/>
        <path class="cls-8" d="M195.811,50.684c-.137-.149-.898-.017-1.094-.016-.446.003-.928-.107-1.344.125-.572.32.041.572.325.733l.865.491c.157.089.296.215.469.275.083.029.142.043.192-.029.034-.048.05-.125.072-.18.14-.35.279-.7.419-1.05.032-.08.11-.201.114-.286.001-.029-.005-.049-.018-.063Z"/>
      </g>
      <path class="cls-20" d="M163.277,57.767s-.143,2.582.014,4.779,12.494,5.308,12.494,5.308l10.355,1.065-.204-2.178-3.197-4.583-19.462-4.39Z"/>
      <g>
        <path class="cls-13" d="M236.467,214.257c.65.409,9.717,1.259,12.215,1.443,2.498.184,19.698-.282,20.62-.263s3.721-1.633,3.749-2.949.179-3.193-1.793-3.366-8.236-.002-10.32-1.099-9.901-7.282-9.901-7.282c0,0-1.905,3.956-4.423,4.693s-8.029-.17-8.029-.17c0,0-1.569,1.631-1.753,4.129-.184,2.498-1.016,4.456-.366,4.864Z"/>
        <path class="cls-6" d="M236.436,215.705c.118.661.627,1.462,1.412,1.742s4.87.103,6.052.26,11.056.234,13.03.275c1.974.042,11.149-.727,12.333-.702s3.061-1.515,3.467-2.034.336-2.761.336-2.761c-.028,1.316-2.828,2.969-3.749,2.949s-18.122.447-20.62.263-11.566-1.035-12.215-1.443c0,0-.163.789-.045,1.45Z"/>
      </g>
      <rect class="cls-19" x="199.702" y="185.154" width="57.587" height="6.431" transform="translate(416.864 -40.126) rotate(90)"/>
      <rect class="cls-19" x="79.25" y="142.435" width="143.024" height="6.431" transform="translate(296.412 -5.112) rotate(90)"/>
      <rect class="cls-19" x="190.37" y="145.729" width="31.265" height="6.431" transform="translate(354.946 -57.058) rotate(90)"/>
      <rect class="cls-19" x="147.547" y="158.601" width="82.429" height="6.78"/>
      <g class="cls-24">
        <path class="cls-15" d="M207.124,130.533c-8.436-.096-16.985-1.498-25.223-3.313-2.5-.509-5.081-.812-7.489-1.775-2.584-.977-3.534-3.981-4.405-6.279-1.337-3.14-2.133-6.509-2.915-9.806-1.52-6.636-2.552-13.365-3.366-20.118-.285-3.316-.941-7.013-.705-10.171.733,6.739,1.919,13.43,3.105,20.101,1.299,6.621,2.24,13.394,4.633,19.719.577,1.586,1.095,3.223,2.076,4.493.914,1.314,2.621,1.768,4.218,2.208,1.625.425,3.296.711,4.964,1.065l4.969,1.112c6.562,1.529,13.611,2.26,20.138,2.764h0Z"/>
      </g>
      <path class="cls-19" d="M147.584,132.497h68.046v7.683h-64.507c-1.954,0-3.54-1.586-3.54-3.54v-4.143h0Z" transform="translate(363.214 272.677) rotate(-180)"/>
    </g>
    <g id="labels">
      <g>
        <path class="cls-1" d="M315.441,218.292v-10.021h3.76c.766,0,1.38.102,1.842.305.463.202.825.515,1.088.936.262.422.393.863.393,1.323,0,.429-.116.831-.349,1.21s-.583.684-1.053.916c.606.178,1.072.48,1.397.909.326.429.489.935.489,1.518,0,.47-.099.905-.298,1.31-.197.402-.442.714-.734.933s-.657.384-1.098.495c-.439.112-.979.168-1.616.168h-3.821ZM316.767,212.481h2.167c.588,0,1.01-.039,1.265-.116.337-.101.592-.267.762-.499.172-.232.257-.523.257-.875,0-.332-.08-.625-.239-.879-.159-.252-.388-.426-.684-.52-.296-.093-.805-.14-1.524-.14h-2.003v3.028ZM316.767,217.109h2.495c.429,0,.729-.017.902-.048.306-.055.561-.146.766-.273s.374-.313.506-.557c.132-.244.198-.525.198-.845,0-.374-.096-.698-.287-.974-.191-.276-.457-.47-.797-.582-.339-.111-.828-.167-1.466-.167h-2.317v3.445Z"/>
        <path class="cls-1" d="M329.414,217.396c-.456.388-.895.661-1.316.82-.421.159-.873.239-1.356.239-.798,0-1.41-.195-1.839-.584-.429-.391-.643-.889-.643-1.494,0-.355.081-.68.242-.975.162-.293.374-.529.637-.707.262-.178.557-.312.885-.403.241-.063.606-.126,1.094-.185.993-.119,1.725-.26,2.194-.424.005-.168.007-.275.007-.321,0-.501-.116-.854-.349-1.06-.314-.277-.781-.417-1.401-.417-.579,0-1.006.102-1.281.304-.276.203-.48.562-.612,1.077l-1.203-.164c.109-.515.289-.931.54-1.247.251-.317.613-.561,1.087-.732.474-.17,1.023-.256,1.647-.256.62,0,1.123.072,1.511.219s.672.329.854.551c.183.221.31.5.383.837.041.21.062.588.062,1.135v1.641c0,1.144.026,1.867.079,2.171.052.303.155.594.311.871h-1.285c-.128-.256-.21-.554-.246-.896ZM329.311,214.648c-.446.183-1.116.337-2.01.465-.506.073-.863.155-1.073.246s-.371.225-.485.399c-.114.176-.171.371-.171.585,0,.328.124.602.373.82.248.219.611.328,1.09.328.474,0,.896-.104,1.265-.312.369-.207.641-.49.813-.851.132-.278.198-.688.198-1.23v-.451Z"/>
        <path class="cls-1" d="M332.435,218.292v-10.021h1.23v10.021h-1.23Z"/>
        <path class="cls-1" d="M335.546,218.292v-10.021h1.23v10.021h-1.23Z"/>
        <path class="cls-1" d="M338.191,216.125l1.217-.191c.068.487.259.861.571,1.121.312.26.748.39,1.309.39.565,0,.984-.115,1.258-.346.273-.229.41-.5.41-.81,0-.278-.121-.497-.362-.656-.169-.109-.588-.249-1.258-.417-.902-.229-1.528-.425-1.876-.592-.35-.166-.613-.396-.793-.689-.181-.295-.271-.619-.271-.975,0-.324.074-.623.222-.898.148-.276.351-.506.605-.688.191-.141.452-.261.783-.359.33-.098.685-.146,1.062-.146.569,0,1.07.082,1.5.246.432.164.749.387.954.666.205.281.347.656.424,1.125l-1.203.164c-.055-.373-.213-.666-.476-.875-.262-.209-.632-.314-1.11-.314-.565,0-.969.094-1.21.28s-.362.405-.362.656c0,.159.05.304.15.431.101.133.258.242.472.328.123.045.485.15,1.087.314.87.232,1.478.423,1.821.57.345.148.614.363.811.646s.294.633.294,1.053c0,.41-.12.797-.358,1.158-.24.363-.585.643-1.036.842-.451.197-.962.297-1.531.297-.943,0-1.662-.195-2.157-.588-.494-.393-.81-.973-.946-1.743Z"/>
        <path class="cls-1" d="M314.881,228.622c0-1.344.374-2.34,1.121-2.987.624-.538,1.386-.807,2.283-.807.998,0,1.813.327,2.447.981.634.653.95,1.557.95,2.71,0,.935-.14,1.669-.421,2.204-.279.536-.688.951-1.223,1.248-.536.297-1.12.444-1.754.444-1.017,0-1.838-.325-2.465-.978-.626-.652-.939-1.59-.939-2.816ZM316.145,228.622c0,.93.203,1.626.608,2.088.405.463.916.694,1.531.694.61,0,1.119-.232,1.524-.697s.608-1.173.608-2.126c0-.898-.204-1.578-.611-2.041-.408-.462-.915-.693-1.521-.693-.615,0-1.126.23-1.531.69s-.608,1.155-.608,2.085Z"/>
        <path class="cls-1" d="M323.419,232.252v-6.303h-1.087v-.957h1.087v-.772c0-.488.043-.85.13-1.087.118-.319.327-.577.626-.776.298-.197.716-.297,1.254-.297.347,0,.729.041,1.148.123l-.185,1.073c-.255-.046-.497-.068-.725-.068-.374,0-.638.079-.793.239s-.232.458-.232.896v.67h1.415v.957h-1.415v6.303h-1.224Z"/>
        <path class="cls-1" d="M331.198,232.252v-6.303h-1.087v-.957h1.087v-.772c0-.488.043-.85.13-1.087.118-.319.327-.577.626-.776.298-.197.716-.297,1.254-.297.347,0,.729.041,1.148.123l-.185,1.073c-.255-.046-.497-.068-.725-.068-.374,0-.638.079-.793.239s-.232.458-.232.896v.67h1.415v.957h-1.415v6.303h-1.224Z"/>
        <path class="cls-1" d="M339.763,229.914l1.271.157c-.2.742-.572,1.319-1.114,1.729s-1.235.615-2.078.615c-1.062,0-1.903-.327-2.526-.981-.621-.653-.933-1.57-.933-2.751,0-1.222.314-2.169.943-2.844s1.444-1.012,2.447-1.012c.971,0,1.764.331,2.379.991s.923,1.59.923,2.789c0,.072-.002.182-.007.328h-5.414c.046.797.271,1.408.677,1.832s.911.636,1.518.636c.451,0,.836-.118,1.155-.355s.572-.615.759-1.135ZM335.723,227.925h4.054c-.055-.611-.21-1.068-.465-1.374-.392-.474-.9-.711-1.524-.711-.565,0-1.04.188-1.425.567-.386.379-.599.885-.64,1.518Z"/>
        <path class="cls-1" d="M347.549,229.914l1.271.157c-.2.742-.572,1.319-1.114,1.729s-1.235.615-2.078.615c-1.062,0-1.903-.327-2.526-.981-.621-.653-.933-1.57-.933-2.751,0-1.222.314-2.169.943-2.844s1.444-1.012,2.447-1.012c.971,0,1.764.331,2.379.991s.923,1.59.923,2.789c0,.072-.002.182-.007.328h-5.414c.046.797.271,1.408.677,1.832s.911.636,1.518.636c.451,0,.836-.118,1.155-.355s.572-.615.759-1.135ZM343.509,227.925h4.054c-.055-.611-.21-1.068-.465-1.374-.392-.474-.9-.711-1.524-.711-.565,0-1.04.188-1.425.567-.386.379-.599.885-.64,1.518Z"/>
        <path class="cls-1" d="M353.052,231.151l.178,1.087c-.347.073-.656.109-.93.109-.446,0-.793-.071-1.039-.212s-.419-.327-.52-.557c-.101-.23-.15-.715-.15-1.453v-4.177h-.902v-.957h.902v-1.798l1.224-.738v2.536h1.237v.957h-1.237v4.245c0,.352.021.576.065.677.043.101.113.181.211.239.099.059.238.089.421.089.137,0,.316-.017.54-.048Z"/>
      </g>
      <g>
        <path class="cls-1" d="M315.441,157.574v-10.021h3.76c.766,0,1.38.102,1.842.304.463.203.825.516,1.088.937.262.422.393.862.393,1.323,0,.428-.116.831-.349,1.21-.232.378-.583.684-1.053.916.606.178,1.072.48,1.397.909.326.428.489.934.489,1.518,0,.469-.099.905-.298,1.309-.197.403-.442.715-.734.934s-.657.384-1.098.495c-.439.112-.979.168-1.616.168h-3.821ZM316.767,151.764h2.167c.588,0,1.01-.039,1.265-.116.337-.101.592-.267.762-.499.172-.232.257-.524.257-.875,0-.333-.08-.626-.239-.879s-.388-.426-.684-.52c-.296-.093-.805-.14-1.524-.14h-2.003v3.028ZM316.767,156.392h2.495c.429,0,.729-.017.902-.048.306-.055.561-.146.766-.273.205-.128.374-.313.506-.558.132-.243.198-.525.198-.844,0-.374-.096-.698-.287-.975-.191-.275-.457-.469-.797-.581-.339-.111-.828-.167-1.466-.167h-2.317v3.445Z"/>
        <path class="cls-1" d="M329.414,156.679c-.456.387-.895.66-1.316.82-.421.159-.873.239-1.356.239-.798,0-1.41-.195-1.839-.585s-.643-.888-.643-1.493c0-.355.081-.681.242-.975.162-.294.374-.529.637-.707.262-.178.557-.312.885-.403.241-.064.606-.126,1.094-.185.993-.119,1.725-.26,2.194-.424.005-.169.007-.276.007-.321,0-.502-.116-.854-.349-1.06-.314-.278-.781-.417-1.401-.417-.579,0-1.006.102-1.281.304-.276.203-.48.562-.612,1.077l-1.203-.164c.109-.516.289-.931.54-1.248.251-.316.613-.561,1.087-.731s1.023-.256,1.647-.256c.62,0,1.123.072,1.511.219.388.146.672.329.854.55.183.222.31.5.383.838.041.209.062.588.062,1.135v1.641c0,1.144.026,1.867.079,2.17.052.304.155.594.311.872h-1.285c-.128-.256-.21-.554-.246-.896ZM329.311,153.931c-.446.182-1.116.337-2.01.465-.506.072-.863.154-1.073.246-.21.091-.371.225-.485.399-.114.176-.171.37-.171.585,0,.328.124.602.373.82.248.219.611.328,1.09.328.474,0,.896-.104,1.265-.312.369-.207.641-.491.813-.851.132-.278.198-.688.198-1.23v-.451Z"/>
        <path class="cls-1" d="M337.2,154.915l1.21.157c-.132.834-.471,1.486-1.015,1.958-.545.472-1.214.708-2.007.708-.993,0-1.792-.325-2.396-.975-.604-.649-.906-1.58-.906-2.792,0-.784.13-1.47.39-2.058s.655-1.029,1.187-1.323c.53-.294,1.108-.44,1.732-.44.788,0,1.434.199,1.935.598.501.399.822.965.964,1.699l-1.196.185c-.114-.488-.315-.854-.604-1.101-.29-.246-.64-.369-1.05-.369-.62,0-1.123.222-1.511.666s-.581,1.147-.581,2.109c0,.975.187,1.684.561,2.126.374.441.861.663,1.463.663.483,0,.887-.148,1.21-.444.323-.297.528-.752.615-1.367Z"/>
        <path class="cls-1" d="M339.469,157.574v-10.021h1.23v5.715l2.912-2.953h1.593l-2.775,2.693,3.056,4.566h-1.518l-2.399-3.712-.868.834v2.878h-1.23Z"/>
        <path class="cls-1" d="M349.894,153.944c0-1.345.374-2.341,1.121-2.987.624-.538,1.386-.807,2.283-.807.998,0,1.813.327,2.447.98.634.654.95,1.558.95,2.711,0,.934-.14,1.669-.421,2.204-.279.536-.688.951-1.223,1.248-.536.296-1.12.444-1.754.444-1.017,0-1.838-.326-2.465-.978-.626-.652-.939-1.591-.939-2.816ZM351.159,153.944c0,.93.203,1.626.608,2.088.405.463.916.694,1.531.694.61,0,1.119-.232,1.524-.697s.608-1.174.608-2.126c0-.898-.204-1.578-.611-2.041-.408-.462-.915-.693-1.521-.693-.615,0-1.126.229-1.531.69-.405.46-.608,1.155-.608,2.085Z"/>
        <path class="cls-1" d="M358.432,157.574v-6.303h-1.087v-.957h1.087v-.772c0-.488.043-.851.13-1.087.118-.319.327-.578.626-.776.298-.198.716-.297,1.254-.297.347,0,.729.041,1.148.123l-.185,1.073c-.255-.046-.497-.068-.725-.068-.374,0-.638.079-.793.239-.155.159-.232.458-.232.896v.67h1.415v.957h-1.415v6.303h-1.224Z"/>
        <path class="cls-1" d="M315.345,171.534v-10.021h1.23v5.715l2.912-2.953h1.593l-2.775,2.693,3.056,4.566h-1.518l-2.399-3.712-.868.834v2.878h-1.23Z"/>
        <path class="cls-1" d="M322.339,171.534v-7.26h1.107v1.032c.533-.798,1.304-1.196,2.311-1.196.438,0,.84.078,1.206.235.367.157.642.363.824.619.183.255.31.558.383.909.046.228.068.626.068,1.196v4.464h-1.23v-4.416c0-.502-.048-.876-.144-1.125-.096-.248-.266-.446-.509-.595-.244-.147-.53-.222-.858-.222-.524,0-.977.166-1.356.499-.381.332-.571.964-.571,1.894v3.965h-1.23Z"/>
        <path class="cls-1" d="M335.094,169.196l1.271.157c-.2.742-.572,1.319-1.114,1.729s-1.235.615-2.078.615c-1.062,0-1.903-.327-2.526-.981-.621-.653-.933-1.571-.933-2.751,0-1.222.314-2.17.943-2.844.629-.675,1.444-1.012,2.447-1.012.971,0,1.764.33,2.379.991.615.66.923,1.59.923,2.789,0,.072-.002.182-.007.328h-5.414c.046.797.271,1.408.677,1.832s.911.636,1.518.636c.451,0,.836-.119,1.155-.355.319-.237.572-.615.759-1.135ZM331.054,167.207h4.054c-.055-.611-.21-1.069-.465-1.374-.392-.475-.9-.711-1.524-.711-.565,0-1.04.188-1.425.567-.386.378-.599.884-.64,1.518Z"/>
        <path class="cls-1" d="M342.881,169.196l1.271.157c-.2.742-.572,1.319-1.114,1.729s-1.235.615-2.078.615c-1.062,0-1.903-.327-2.526-.981-.621-.653-.933-1.571-.933-2.751,0-1.222.314-2.17.943-2.844.629-.675,1.444-1.012,2.447-1.012.971,0,1.764.33,2.379.991.615.66.923,1.59.923,2.789,0,.072-.002.182-.007.328h-5.414c.046.797.271,1.408.677,1.832s.911.636,1.518.636c.451,0,.836-.119,1.155-.355.319-.237.572-.615.759-1.135ZM338.841,167.207h4.054c-.055-.611-.21-1.069-.465-1.374-.392-.475-.9-.711-1.524-.711-.565,0-1.04.188-1.425.567-.386.378-.599.884-.64,1.518Z"/>
        <path class="cls-1" d="M345.205,169.367l1.217-.191c.068.487.259.861.571,1.121.312.26.748.39,1.309.39.565,0,.984-.115,1.258-.346.273-.229.41-.5.41-.81,0-.278-.121-.497-.362-.656-.169-.109-.588-.249-1.258-.417-.902-.229-1.528-.425-1.876-.592-.35-.166-.613-.396-.793-.69-.181-.294-.271-.618-.271-.974,0-.324.074-.623.222-.899.148-.275.351-.505.605-.687.191-.142.452-.261.783-.359.33-.098.685-.146,1.062-.146.569,0,1.07.082,1.5.246.432.164.749.386.954.666s.347.655.424,1.125l-1.203.164c-.055-.374-.213-.666-.476-.875-.262-.21-.632-.314-1.11-.314-.565,0-.969.093-1.21.28-.241.187-.362.405-.362.656,0,.159.05.303.15.431.101.132.258.241.472.328.123.045.485.15,1.087.314.87.232,1.478.423,1.821.57.345.148.614.363.811.646.196.282.294.633.294,1.053,0,.41-.12.796-.358,1.158-.24.362-.585.643-1.036.841s-.962.298-1.531.298c-.943,0-1.662-.196-2.157-.588-.494-.393-.81-.974-.946-1.743Z"/>
      </g>
      <g>
        <path class="cls-1" d="M17.65,143.759v-10.021h3.76c.766,0,1.38.102,1.842.304.463.203.825.516,1.088.937.262.422.393.862.393,1.323,0,.428-.116.831-.349,1.21-.232.378-.583.684-1.053.916.606.178,1.072.48,1.397.909.326.428.489.934.489,1.518,0,.469-.099.905-.298,1.309-.197.403-.442.715-.734.934s-.657.384-1.098.495c-.439.112-.979.168-1.616.168h-3.821ZM18.976,137.948h2.167c.588,0,1.01-.039,1.265-.116.337-.101.592-.267.762-.499.172-.232.257-.524.257-.875,0-.333-.08-.626-.239-.879s-.388-.426-.684-.52c-.296-.093-.805-.14-1.524-.14h-2.003v3.028ZM18.976,142.576h2.495c.429,0,.729-.017.902-.048.306-.055.561-.146.766-.273.205-.128.374-.313.506-.558.132-.243.198-.525.198-.844,0-.374-.096-.698-.287-.975-.191-.275-.457-.469-.797-.581-.339-.111-.828-.167-1.466-.167h-2.317v3.445Z"/>
        <path class="cls-1" d="M31.623,142.863c-.456.387-.895.66-1.316.82-.421.159-.873.239-1.356.239-.798,0-1.41-.195-1.839-.585s-.643-.888-.643-1.493c0-.355.081-.681.242-.975.162-.294.374-.529.637-.707.262-.178.557-.312.885-.403.241-.064.606-.126,1.094-.185.993-.119,1.725-.26,2.194-.424.005-.169.007-.276.007-.321,0-.502-.116-.854-.349-1.06-.314-.278-.781-.417-1.401-.417-.579,0-1.006.102-1.281.304-.276.203-.48.562-.612,1.077l-1.203-.164c.109-.516.289-.931.54-1.248.251-.316.613-.561,1.087-.731s1.023-.256,1.647-.256c.62,0,1.123.072,1.511.219.388.146.672.329.854.55.183.222.31.5.383.838.041.209.062.588.062,1.135v1.641c0,1.144.026,1.867.079,2.17.052.304.155.594.311.872h-1.285c-.128-.256-.21-.554-.246-.896ZM31.52,140.115c-.446.182-1.116.337-2.01.465-.506.072-.863.154-1.073.246-.21.091-.371.225-.485.399-.114.176-.171.37-.171.585,0,.328.124.602.373.82.248.219.611.328,1.09.328.474,0,.896-.104,1.265-.312.369-.207.641-.491.813-.851.132-.278.198-.688.198-1.23v-.451Z"/>
        <path class="cls-1" d="M34.179,141.592l1.217-.191c.068.487.259.861.571,1.121.312.26.748.39,1.309.39.565,0,.984-.115,1.258-.346.273-.229.41-.5.41-.81,0-.278-.121-.497-.362-.656-.169-.109-.588-.249-1.258-.417-.902-.229-1.528-.425-1.876-.592-.35-.166-.613-.396-.793-.69-.181-.294-.271-.618-.271-.974,0-.324.074-.623.222-.899.148-.275.351-.505.605-.687.191-.142.452-.261.783-.359.33-.098.685-.146,1.062-.146.569,0,1.07.082,1.5.246.432.164.749.386.954.666s.347.655.424,1.125l-1.203.164c-.055-.374-.213-.666-.476-.875-.262-.21-.632-.314-1.11-.314-.565,0-.969.093-1.21.28-.241.187-.362.405-.362.656,0,.159.05.303.15.431.101.132.258.241.472.328.123.045.485.15,1.087.314.87.232,1.478.423,1.821.57.345.148.614.363.811.646.196.282.294.633.294,1.053,0,.41-.12.796-.358,1.158-.24.362-.585.643-1.036.841s-.962.298-1.531.298c-.943,0-1.662-.196-2.157-.588-.494-.393-.81-.974-.946-1.743Z"/>
        <path class="cls-1" d="M46.641,141.421l1.271.157c-.2.742-.572,1.319-1.114,1.729s-1.235.615-2.078.615c-1.062,0-1.903-.327-2.526-.981-.621-.653-.933-1.571-.933-2.751,0-1.222.314-2.17.943-2.844.629-.675,1.444-1.012,2.447-1.012.971,0,1.764.33,2.379.991.615.66.923,1.59.923,2.789,0,.072-.002.182-.007.328h-5.414c.046.797.271,1.408.677,1.832s.911.636,1.518.636c.451,0,.836-.119,1.155-.355.319-.237.572-.615.759-1.135ZM42.601,139.432h4.054c-.055-.611-.21-1.069-.465-1.374-.392-.475-.9-.711-1.524-.711-.565,0-1.04.188-1.425.567-.386.378-.599.884-.64,1.518Z"/>
        <path class="cls-1" d="M52.889,140.129c0-1.345.374-2.341,1.121-2.987.624-.538,1.386-.807,2.283-.807.998,0,1.813.327,2.447.98.634.654.95,1.558.95,2.711,0,.934-.14,1.669-.421,2.204-.279.536-.688.951-1.223,1.248-.536.296-1.12.444-1.754.444-1.017,0-1.838-.326-2.465-.978-.626-.652-.939-1.591-.939-2.816ZM54.154,140.129c0,.93.203,1.626.608,2.088.405.463.916.694,1.531.694.61,0,1.119-.232,1.524-.697s.608-1.174.608-2.126c0-.898-.204-1.578-.611-2.041-.408-.462-.915-.693-1.521-.693-.615,0-1.126.229-1.531.69-.405.46-.608,1.155-.608,2.085Z"/>
        <path class="cls-1" d="M61.427,143.759v-6.303h-1.087v-.957h1.087v-.772c0-.488.043-.851.13-1.087.118-.319.327-.578.626-.776.298-.198.716-.297,1.254-.297.347,0,.729.041,1.148.123l-.185,1.073c-.255-.046-.497-.068-.725-.068-.374,0-.638.079-.793.239-.155.159-.232.458-.232.896v.67h1.415v.957h-1.415v6.303h-1.224Z"/>
        <path class="cls-1" d="M68.421,141.592l1.217-.191c.068.487.259.861.571,1.121.312.26.748.39,1.309.39.565,0,.984-.115,1.258-.346.273-.229.41-.5.41-.81,0-.278-.121-.497-.362-.656-.169-.109-.588-.249-1.258-.417-.902-.229-1.528-.425-1.876-.592-.35-.166-.613-.396-.793-.69-.181-.294-.271-.618-.271-.974,0-.324.074-.623.222-.899.148-.275.351-.505.605-.687.191-.142.452-.261.783-.359.33-.098.685-.146,1.062-.146.569,0,1.07.082,1.5.246.432.164.749.386.954.666s.347.655.424,1.125l-1.203.164c-.055-.374-.213-.666-.476-.875-.262-.21-.632-.314-1.11-.314-.565,0-.969.093-1.21.28-.241.187-.362.405-.362.656,0,.159.05.303.15.431.101.132.258.241.472.328.123.045.485.15,1.087.314.87.232,1.478.423,1.821.57.345.148.614.363.811.646.196.282.294.633.294,1.053,0,.41-.12.796-.358,1.158-.24.362-.585.643-1.036.841s-.962.298-1.531.298c-.943,0-1.662-.196-2.157-.588-.494-.393-.81-.974-.946-1.743Z"/>
        <path class="cls-1" d="M75.913,146.541v-10.042h1.121v.943c.265-.369.562-.646.896-.831s.736-.276,1.21-.276c.62,0,1.167.159,1.641.479.474.318.832.769,1.073,1.35s.362,1.218.362,1.911c0,.742-.134,1.411-.399,2.006-.268.595-.654,1.051-1.162,1.367-.509.317-1.043.476-1.604.476-.41,0-.778-.087-1.104-.26-.326-.174-.594-.393-.804-.656v3.534h-1.23ZM77.027,140.17c0,.934.189,1.624.567,2.071.378.446.836.67,1.374.67.547,0,1.016-.231,1.404-.694.391-.462.585-1.179.585-2.149,0-.926-.19-1.618-.571-2.078-.38-.461-.835-.69-1.363-.69-.524,0-.988.245-1.391.734-.404.49-.605,1.202-.605,2.137Z"/>
        <path class="cls-1" d="M83.706,135.152v-1.415h1.23v1.415h-1.23ZM83.706,143.759v-7.26h1.23v7.26h-1.23Z"/>
        <path class="cls-1" d="M86.809,143.759v-7.26h1.107v1.032c.533-.798,1.304-1.196,2.311-1.196.438,0,.84.078,1.206.235.367.157.642.363.824.619.183.255.31.558.383.909.046.228.068.626.068,1.196v4.464h-1.23v-4.416c0-.502-.048-.876-.144-1.125-.096-.248-.266-.446-.509-.595-.244-.147-.53-.222-.858-.222-.524,0-.977.166-1.356.499-.381.332-.571.964-.571,1.894v3.965h-1.23Z"/>
        <path class="cls-1" d="M99.565,141.421l1.271.157c-.2.742-.572,1.319-1.114,1.729s-1.235.615-2.078.615c-1.062,0-1.903-.327-2.526-.981-.621-.653-.933-1.571-.933-2.751,0-1.222.314-2.17.943-2.844.629-.675,1.444-1.012,2.447-1.012.971,0,1.764.33,2.379.991.615.66.923,1.59.923,2.789,0,.072-.002.182-.007.328h-5.414c.046.797.271,1.408.677,1.832s.911.636,1.518.636c.451,0,.836-.119,1.155-.355.319-.237.572-.615.759-1.135ZM95.525,139.432h4.054c-.055-.611-.21-1.069-.465-1.374-.392-.475-.9-.711-1.524-.711-.565,0-1.04.188-1.425.567-.386.378-.599.884-.64,1.518Z"/>
      </g>
      <g>
        <path class="cls-10" d="M18.664,105.8v-10.021h1.996l2.372,7.096c.219.661.378,1.156.479,1.484.114-.365.292-.9.533-1.607l2.399-6.973h1.784v10.021h-1.278v-8.387l-2.912,8.387h-1.196l-2.898-8.531v8.531h-1.278Z"/>
        <path class="cls-10" d="M30.216,97.194v-1.416h1.23v1.416h-1.23ZM30.216,105.8v-7.26h1.23v7.26h-1.23Z"/>
        <path class="cls-10" d="M38.03,105.8v-.916c-.46.721-1.137,1.08-2.03,1.08-.579,0-1.11-.159-1.597-.479-.484-.318-.861-.764-1.127-1.336-.268-.572-.4-1.229-.4-1.973,0-.725.121-1.381.362-1.972s.604-1.042,1.087-1.356,1.023-.473,1.62-.473c.438,0,.827.093,1.169.277s.62.425.834.721v-3.596h1.224v10.021h-1.142ZM34.14,102.177c0,.93.196,1.625.588,2.086.392.46.854.689,1.388.689.538,0,.994-.219,1.371-.659.375-.44.563-1.11.563-2.013,0-.994-.191-1.723-.574-2.188s-.854-.697-1.415-.697c-.547,0-1.004.223-1.371.67-.366.446-.55,1.15-.55,2.111Z"/>
        <path class="cls-10" d="M45.816,105.8v-.916c-.46.721-1.137,1.08-2.03,1.08-.579,0-1.11-.159-1.597-.479-.484-.318-.861-.764-1.127-1.336-.268-.572-.4-1.229-.4-1.973,0-.725.121-1.381.362-1.972s.604-1.042,1.087-1.356,1.023-.473,1.62-.473c.438,0,.827.093,1.169.277s.62.425.834.721v-3.596h1.224v10.021h-1.142ZM41.926,102.177c0,.93.196,1.625.588,2.086.392.46.854.689,1.388.689.538,0,.994-.219,1.371-.659.375-.44.563-1.11.563-2.013,0-.994-.191-1.723-.574-2.188s-.854-.697-1.415-.697c-.547,0-1.004.223-1.371.67-.366.446-.55,1.15-.55,2.111Z"/>
        <path class="cls-10" d="M48.865,105.8v-10.021h1.23v10.021h-1.23Z"/>
        <path class="cls-10" d="M56.972,103.462l1.271.158c-.2.742-.572,1.318-1.114,1.729s-1.235.615-2.078.615c-1.062,0-1.903-.326-2.526-.98-.621-.654-.933-1.571-.933-2.752,0-1.221.314-2.169.943-2.844.629-.674,1.444-1.012,2.447-1.012.971,0,1.764.331,2.379.992.615.66.923,1.59.923,2.789,0,.072-.002.182-.007.328h-5.414c.046.797.271,1.408.677,1.832s.911.635,1.518.635c.451,0,.836-.118,1.155-.355.319-.236.572-.615.759-1.135ZM52.932,101.474h4.054c-.055-.611-.21-1.069-.465-1.375-.392-.474-.9-.711-1.524-.711-.565,0-1.04.189-1.425.568-.386.378-.599.884-.64,1.518Z"/>
        <path class="cls-10" d="M63.22,102.171c0-1.345.374-2.341,1.121-2.988.624-.537,1.386-.807,2.283-.807.998,0,1.813.328,2.447.981s.95,1.558.95,2.71c0,.935-.14,1.67-.421,2.205-.279.535-.688.951-1.223,1.248-.536.296-1.12.443-1.754.443-1.017,0-1.838-.325-2.465-.977-.626-.652-.939-1.591-.939-2.816ZM64.485,102.171c0,.93.203,1.625.608,2.088s.916.693,1.531.693c.61,0,1.119-.232,1.524-.697s.608-1.173.608-2.125c0-.898-.204-1.578-.611-2.041-.408-.463-.915-.693-1.521-.693-.615,0-1.126.229-1.531.689-.405.461-.608,1.156-.608,2.086Z"/>
        <path class="cls-10" d="M71.758,105.8v-6.303h-1.087v-.957h1.087v-.771c0-.488.043-.851.13-1.088.118-.318.327-.577.626-.775.298-.198.716-.297,1.254-.297.347,0,.729.041,1.148.123l-.185,1.072c-.255-.045-.497-.068-.725-.068-.374,0-.638.08-.793.24-.155.159-.232.457-.232.895v.67h1.415v.957h-1.415v6.303h-1.224Z"/>
        <path class="cls-10" d="M78.752,103.634l1.217-.191c.068.487.259.861.571,1.121.312.26.748.389,1.309.389.565,0,.984-.115,1.258-.345s.41-.5.41-.81c0-.278-.121-.497-.362-.656-.169-.109-.588-.249-1.258-.418-.902-.228-1.528-.424-1.876-.591-.35-.167-.613-.396-.793-.69-.181-.294-.271-.619-.271-.975,0-.323.074-.623.222-.898.148-.275.351-.505.605-.688.191-.141.452-.26.783-.358.33-.099.685-.147,1.062-.147.569,0,1.07.082,1.5.246.432.164.749.387.954.667s.347.655.424,1.124l-1.203.164c-.055-.373-.213-.665-.476-.875-.262-.209-.632-.314-1.11-.314-.565,0-.969.094-1.21.281-.241.187-.362.405-.362.656,0,.159.05.303.15.43.101.133.258.242.472.328.123.046.485.15,1.087.314.87.232,1.478.424,1.821.571.345.147.614.363.811.646.196.283.294.634.294,1.053,0,.41-.12.797-.358,1.159-.24.362-.585.643-1.036.841s-.962.297-1.531.297c-.943,0-1.662-.195-2.157-.588-.494-.392-.81-.973-.946-1.742Z"/>
        <path class="cls-10" d="M86.244,108.583v-10.043h1.121v.943c.265-.369.562-.646.896-.83s.736-.277,1.21-.277c.62,0,1.167.16,1.641.479.474.319.832.77,1.073,1.351s.362,1.218.362,1.911c0,.742-.134,1.411-.399,2.006-.268.595-.654,1.051-1.162,1.367-.509.316-1.043.475-1.604.475-.41,0-.778-.086-1.104-.26-.326-.173-.594-.392-.804-.656v3.535h-1.23ZM87.358,102.212c0,.934.189,1.624.567,2.07.378.447.836.67,1.374.67.547,0,1.016-.23,1.404-.693.391-.463.585-1.18.585-2.15,0-.925-.19-1.617-.571-2.078-.38-.46-.835-.689-1.363-.689-.524,0-.988.244-1.391.734-.404.49-.605,1.202-.605,2.137Z"/>
        <path class="cls-10" d="M94.037,97.194v-1.416h1.23v1.416h-1.23ZM94.037,105.8v-7.26h1.23v7.26h-1.23Z"/>
        <path class="cls-10" d="M97.14,105.8v-7.26h1.107v1.033c.533-.798,1.304-1.197,2.311-1.197.438,0,.84.079,1.206.236.367.157.642.363.824.619.183.255.31.558.383.908.046.229.068.627.068,1.197v4.463h-1.23v-4.416c0-.501-.048-.875-.144-1.124s-.266-.446-.509-.595c-.244-.148-.53-.223-.858-.223-.524,0-.977.167-1.356.5-.381.332-.571.963-.571,1.893v3.965h-1.23Z"/>
        <path class="cls-10" d="M109.896,103.462l1.271.158c-.2.742-.572,1.318-1.114,1.729s-1.235.615-2.078.615c-1.062,0-1.903-.326-2.526-.98-.621-.654-.933-1.571-.933-2.752,0-1.221.314-2.169.943-2.844.629-.674,1.444-1.012,2.447-1.012.971,0,1.764.331,2.379.992.615.66.923,1.59.923,2.789,0,.072-.002.182-.007.328h-5.414c.046.797.271,1.408.677,1.832s.911.635,1.518.635c.451,0,.836-.118,1.155-.355.319-.236.572-.615.759-1.135ZM105.856,101.474h4.054c-.055-.611-.21-1.069-.465-1.375-.392-.474-.9-.711-1.524-.711-.565,0-1.04.189-1.425.568-.386.378-.599.884-.64,1.518Z"/>
      </g>
      <g>
        <path class="cls-10" d="M18.165,159.854v-10.021h3.76c.766,0,1.38.102,1.842.305.463.202.825.515,1.088.936.262.422.393.863.393,1.323,0,.429-.116.831-.349,1.21s-.583.684-1.053.916c.606.178,1.072.48,1.397.909.326.429.489.935.489,1.518,0,.47-.099.905-.298,1.31-.197.402-.442.714-.734.933s-.657.384-1.098.495c-.439.112-.979.168-1.616.168h-3.821ZM19.491,154.044h2.167c.588,0,1.01-.039,1.265-.116.337-.101.592-.267.762-.499.172-.232.257-.523.257-.875,0-.332-.08-.625-.239-.879-.159-.252-.388-.426-.684-.52-.296-.093-.805-.14-1.524-.14h-2.003v3.028ZM19.491,158.672h2.495c.429,0,.729-.017.902-.048.306-.055.561-.146.766-.273s.374-.313.506-.557c.132-.244.198-.525.198-.845,0-.374-.096-.698-.287-.974-.191-.276-.457-.47-.797-.582-.339-.111-.828-.167-1.466-.167h-2.317v3.445Z"/>
        <path class="cls-10" d="M32.158,159.854v-1.066c-.565.82-1.333,1.23-2.304,1.23-.429,0-.828-.082-1.199-.246-.372-.164-.647-.37-.828-.619-.18-.248-.306-.553-.379-.912-.05-.242-.075-.625-.075-1.148v-4.498h1.23v4.026c0,.643.025,1.075.075,1.299.077.323.241.577.492.763.251.184.561.276.93.276s.716-.095,1.039-.284c.323-.188.553-.446.688-.771.134-.326.201-.799.201-1.419v-3.89h1.23v7.26h-1.101Z"/>
        <path class="cls-10" d="M37.873,158.754l.178,1.087c-.347.072-.656.109-.93.109-.446,0-.793-.07-1.039-.212s-.419-.327-.52-.558c-.101-.229-.15-.714-.15-1.452v-4.177h-.902v-.957h.902v-1.798l1.224-.738v2.536h1.237v.957h-1.237v4.245c0,.351.021.577.065.677.043.1.113.18.211.239.099.06.238.089.421.089.137,0,.316-.016.54-.048Z"/>
        <path class="cls-10" d="M41.762,158.754l.178,1.087c-.347.072-.656.109-.93.109-.446,0-.793-.07-1.039-.212s-.419-.327-.52-.558c-.101-.229-.15-.714-.15-1.452v-4.177h-.902v-.957h.902v-1.798l1.224-.738v2.536h1.237v.957h-1.237v4.245c0,.351.021.577.065.677.043.1.113.18.211.239.099.06.238.089.421.089.137,0,.316-.016.54-.048Z"/>
        <path class="cls-10" d="M42.507,156.225c0-1.345.374-2.341,1.121-2.987.624-.537,1.386-.807,2.283-.807.998,0,1.813.327,2.447.98.634.654.95,1.559.95,2.711,0,.934-.14,1.669-.421,2.205-.279.535-.688.951-1.223,1.247-.536.296-1.12.444-1.754.444-1.017,0-1.838-.326-2.465-.978-.626-.651-.939-1.591-.939-2.816ZM43.772,156.225c0,.93.203,1.626.608,2.089.405.462.916.693,1.531.693.61,0,1.119-.232,1.524-.697s.608-1.174.608-2.126c0-.897-.204-1.578-.611-2.04-.408-.463-.915-.694-1.521-.694-.615,0-1.126.229-1.531.69s-.608,1.155-.608,2.085Z"/>
        <path class="cls-10" d="M55.489,157.195l1.21.157c-.132.834-.471,1.486-1.015,1.959-.545.471-1.214.707-2.007.707-.993,0-1.792-.324-2.396-.975-.604-.648-.906-1.58-.906-2.792,0-.784.13-1.47.39-2.058s.655-1.029,1.187-1.322c.53-.295,1.108-.441,1.732-.441.788,0,1.434.199,1.935.598.501.399.822.965.964,1.699l-1.196.185c-.114-.487-.315-.854-.604-1.101-.29-.246-.64-.369-1.05-.369-.62,0-1.123.223-1.511.666-.388.445-.581,1.148-.581,2.109,0,.975.187,1.684.561,2.126s.861.663,1.463.663c.483,0,.887-.148,1.21-.444s.528-.752.615-1.367Z"/>
        <path class="cls-10" d="M57.758,159.854v-10.021h1.23v5.715l2.912-2.953h1.593l-2.775,2.693,3.056,4.566h-1.518l-2.399-3.712-.868.834v2.878h-1.23Z"/>
        <path class="cls-10" d="M64.259,157.688l1.217-.191c.068.487.259.861.571,1.121.312.26.748.39,1.309.39.565,0,.984-.115,1.258-.346.273-.229.41-.5.41-.81,0-.278-.121-.497-.362-.656-.169-.109-.588-.249-1.258-.417-.902-.229-1.528-.425-1.876-.592-.35-.166-.613-.396-.793-.689-.181-.295-.271-.619-.271-.975,0-.324.074-.623.222-.898.148-.276.351-.506.605-.688.191-.141.452-.261.783-.359.33-.098.685-.146,1.062-.146.569,0,1.07.082,1.5.246.432.164.749.387.954.666.205.281.347.656.424,1.125l-1.203.164c-.055-.373-.213-.666-.476-.875-.262-.209-.632-.314-1.11-.314-.565,0-.969.094-1.21.28s-.362.405-.362.656c0,.159.05.304.15.431.101.133.258.242.472.328.123.045.485.15,1.087.314.87.232,1.478.423,1.821.57.345.148.614.363.811.646s.294.633.294,1.053c0,.41-.12.797-.358,1.158-.24.363-.585.643-1.036.842-.451.197-.962.297-1.531.297-.943,0-1.662-.195-2.157-.588-.494-.393-.81-.973-.946-1.743Z"/>
      </g>
      <path class="cls-17" d="M295.81,152.29h-.002c.006.016.006.034.002,0Z"/>
      <line class="cls-26" x1="311.587" y1="155.791" x2="233.305" y2="155.791"/>
      <line class="cls-26" x1="307.426" y1="218.047" x2="265.145" y2="218.047"/>
      <line class="cls-26" x1="163.8" y1="156.577" x2="78.518" y2="156.577"/>
      <line class="cls-26" x1="106.37" y1="140.483" x2="156.532" y2="140.483"/>
      <line class="cls-26" x1="116.486" y1="100.49" x2="154.957" y2="100.49"/>
      <path class="cls-7" d="M149.633,100.383c0-2.94,2.385-5.325,5.326-5.325s5.322,2.385,5.322,5.325-2.383,5.324-5.322,5.324-5.326-2.384-5.326-5.324Z"/>
      <path class="cls-7" d="M151.208,141.898c0-2.94,2.385-5.325,5.326-5.325s5.322,2.385,5.322,5.325-2.383,5.324-5.322,5.324-5.326-2.384-5.326-5.324Z"/>
      <path class="cls-7" d="M154.208,153.898c0-2.94,2.385-5.325,5.326-5.325s5.322,2.385,5.322,5.325-2.383,5.324-5.322,5.324-5.326-2.384-5.326-5.324Z"/>
      <path class="cls-7" d="M227.441,155.438c0-2.94,2.385-5.325,5.326-5.325s5.322,2.385,5.322,5.325-2.383,5.324-5.322,5.324-5.326-2.384-5.326-5.324Z"/>
      <path class="cls-7" d="M258.704,217.056c0-2.941,2.385-5.325,5.326-5.325s5.322,2.385,5.322,5.325-2.383,5.324-5.322,5.324-5.326-2.384-5.326-5.324Z"/>
      <path class="cls-7" d="M149.633,100.383c0-2.94,2.385-5.325,5.326-5.325s5.322,2.385,5.322,5.325-2.383,5.324-5.322,5.324-5.326-2.384-5.326-5.324Z"/>
      <path class="cls-7" d="M232.988,217c0-2.941,2.385-5.325,5.326-5.325s5.322,2.385,5.322,5.325-2.383,5.324-5.322,5.324-5.326-2.384-5.326-5.324Z"/>
      <g>
        <path class="cls-1" d="M219.658,236.755v-10.021h1.326v4.115h5.209v-4.115h1.326v10.021h-1.326v-4.725h-5.209v4.725h-1.326Z"/>
        <path class="cls-1" d="M234.54,234.417l1.271.156c-.2.743-.572,1.32-1.114,1.73s-1.235.615-2.078.615c-1.062,0-1.903-.328-2.526-.981-.621-.653-.933-1.571-.933-2.751,0-1.222.314-2.17.943-2.844.629-.675,1.444-1.012,2.447-1.012.971,0,1.764.33,2.379.99.615.661.923,1.591.923,2.789,0,.073-.002.183-.007.328h-5.414c.046.798.271,1.408.677,1.832s.911.637,1.518.637c.451,0,.836-.119,1.155-.355.319-.237.572-.615.759-1.135ZM230.5,232.427h4.054c-.055-.61-.21-1.068-.465-1.373-.392-.475-.9-.711-1.524-.711-.565,0-1.04.188-1.425.566-.386.379-.599.885-.64,1.518Z"/>
        <path class="cls-1" d="M242.326,234.417l1.271.156c-.2.743-.572,1.32-1.114,1.73s-1.235.615-2.078.615c-1.062,0-1.903-.328-2.526-.981-.621-.653-.933-1.571-.933-2.751,0-1.222.314-2.17.943-2.844.629-.675,1.444-1.012,2.447-1.012.971,0,1.764.33,2.379.99.615.661.923,1.591.923,2.789,0,.073-.002.183-.007.328h-5.414c.046.798.271,1.408.677,1.832s.911.637,1.518.637c.451,0,.836-.119,1.155-.355.319-.237.572-.615.759-1.135ZM238.286,232.427h4.054c-.055-.61-.21-1.068-.465-1.373-.392-.475-.9-.711-1.524-.711-.565,0-1.04.188-1.425.566-.386.379-.599.885-.64,1.518Z"/>
        <path class="cls-1" d="M245.115,236.755v-10.021h1.23v10.021h-1.23Z"/>
        <path class="cls-1" d="M247.76,234.587l1.217-.191c.068.488.259.861.571,1.121.312.26.748.391,1.309.391.565,0,.984-.115,1.258-.346s.41-.5.41-.811c0-.277-.121-.496-.362-.656-.169-.109-.588-.248-1.258-.416-.902-.229-1.528-.426-1.876-.592-.35-.166-.613-.396-.793-.69-.181-.294-.271-.618-.271-.974,0-.324.074-.623.222-.899.148-.276.351-.505.605-.687.191-.142.452-.262.783-.359.33-.098.685-.146,1.062-.146.569,0,1.07.082,1.5.246.432.164.749.386.954.666s.347.655.424,1.125l-1.203.164c-.055-.374-.213-.666-.476-.875-.262-.21-.632-.314-1.11-.314-.565,0-.969.093-1.21.279-.241.188-.362.406-.362.656,0,.16.05.304.15.432.101.132.258.241.472.328.123.045.485.15,1.087.314.87.232,1.478.422,1.821.57.345.148.614.363.811.646.196.282.294.633.294,1.053,0,.41-.12.796-.358,1.158-.24.362-.585.643-1.036.841s-.962.298-1.531.298c-.943,0-1.662-.196-2.157-.588-.494-.393-.81-.974-.946-1.744Z"/>
      </g>
    </g>
  </g>
</svg>