
<svg xmlns="http://www.w3.org/2000/svg" id="svg48" width="100%" height="100%" viewBox="0 0 798.03553 815.24999"><defs id="defs52"><clipPath id="clipPath66"><path d="M.046 117.612h594.897v606.183H.046z" id="path64"/></clipPath><clipPath id="clipPath78"><path d="M0 117.566h595.28v606.758H0z" id="path76"/></clipPath><clipPath id="clipPath90"><path d="M.046 117.612h594.897v606.183H.046z" id="path88"/></clipPath><clipPath id="clipPath104"><path d="M0 117.566h595.28v606.758H0z" id="path102"/></clipPath><clipPath id="clipPath132"><path d="M.046 117.612h594.897v606.183H.046z" id="path130"/></clipPath><clipPath id="clipPath146"><path d="M0 117.566h595.28v606.758H0z" id="path144"/></clipPath><clipPath id="clipPath180"><path d="M.046 117.612h594.897v606.183H.046z" id="path178"/></clipPath><clipPath id="clipPath192"><path d="M0 117.566h595.28v606.758H0z" id="path190"/></clipPath><clipPath id="clipPath206"><path d="M.046 117.612h594.897v606.183H.046z" id="path204"/></clipPath><clipPath id="clipPath218"><path d="M0 117.566h595.28v606.758H0z" id="path216"/></clipPath><clipPath id="clipPath234"><path d="M.046 117.612h594.897v606.183H.046z" id="path232"/></clipPath><clipPath id="clipPath254"><path d="M0 117.566h595.28v606.758H0z" id="path252"/></clipPath><clipPath id="clipPath270"><path d="M.046 117.612h594.897v606.183H.046z" id="path268"/></clipPath><clipPath id="clipPath282"><path d="M0 117.566h595.28v606.758H0z" id="path280"/></clipPath></defs><g id="g56" transform="matrix(1.33333 0 0 -1.33333 3.536 969)"><g id="g60"><g id="g62" clip-path="url(#clipPath66)"><g id="g68" transform="translate(0 117.566) scale(.76514)"><path d="M147.51 698.075s5.667-15.099-20.333-25.433c-26-10.333-50.333-9.666-58-57-7.667-47.333-9.333-79-10.333-81S48.51 507.976 45.51 494.976c-3-13-6-65-9-69.334-3-4.333-11.333-7.333-17-14.5-5.666-7.166-22-25.833-16.333-30.166 5.667-4.334 13.833 9.666 16.833 11.666 2.5 1 9.667 0 13 2 3.334 2 6.167 6.777 6.167 6.777M21.651 393S4.527 357.685 9.177 355.476c5.875-2.792 16.167 21.5 19.667 27.333 0 0-10.75-31.3-4.917-32.8 6.707-1.725 13.917 27.633 13.917 27.633s-6.375-26.201-1.542-27.583c4.833-1.383 11.042 26.417 11.042 26.417s-5-23.334 1-23.667c6-.333 7 27.012 7 27.339 1 4.661 3.666 12.328 6.666 18.328 3 6-3 12 0 22.333 3 10.333 20.417 42.5 23.917 64.75s3 24.25 3 24.25 15.84 43.5 16.84 52.5m-76.923-179.5s6.542-7.453 26.396-4.851" id="path70" fill="none" stroke="#0e0f0e" stroke-width="4" stroke-linecap="round" stroke-linejoin="round" stroke-miterlimit="10"/></g></g></g><g id="g72"><g id="g74" clip-path="url(#clipPath78)"><g id="g80" transform="translate(0 117.566) scale(.76514)"><path d="M67.802 525.684c5.338-.23 10.256-1.348 14.625-3.625m48.583 140.417c1.667-1.5 23.834-1.167 28.167-7" id="path82" fill="none" stroke="#0e0f0e" stroke-width="3" stroke-linecap="round" stroke-linejoin="round" stroke-miterlimit="10"/></g></g></g><g id="g84"><g id="g86" clip-path="url(#clipPath90)"><path d="M105.725 580.394c0-1.514-1.542-2.741-3.443-2.741-1.902 0-3.443 1.227-3.443 2.741 0 1.515 1.541 2.743 3.443 2.743 1.901 0 3.443-1.228 3.443-2.743" id="path92" fill="#0e0f0e"/><g id="g94" transform="translate(0 117.566) scale(.76514)"><path d="M96.177 610.642s15-64.333 14-90.333-11-28-10.667-60.333c.334-32.334-8.333-39.334-6.666-77.167 1.666-37.833 14.666-105.167 21-134.167 6.333-29 3.129-23.977 2.333-49.666-1.312-42.334 20.123-91.237 20.333-111.334-2.734-24.611-16.213-55.095-16.213-55.095-3.083-7.125-6.62-17.738.755-20.113.625-3.375 5-5 7.292-3.292.458-3.083 5.916-5.166 7.333-1.833-.458-3.5 5.25-5.375 8.167-3.333 4.375-3.709 11.875-3.125 11.788 9.928-.025 3.802 3.414 7.906 2.914 19.406-.403 9.254.152 11.771 1.631 19.999 1.904 10.591 3.833 13.333 5.333 21.333 1.814 9.671-3.833 13.834-3.5 25.334.537 18.529 5.029 75 4.348 89.166-.681 14.167-2.848 19.5-3.014 29.334-.167 9.833-1.834 23.166-1 32.666.833 9.5 5.333 55.667 6.166 74.667.834 19 .667 37.167.667 37.167" id="path96" fill="none" stroke="#0e0f0e" stroke-width="4" stroke-linecap="round" stroke-linejoin="round" stroke-miterlimit="10"/></g></g></g><g id="g98"><g id="g100" clip-path="url(#clipPath104)"><g id="g106" transform="translate(0 117.566) scale(.76514)"><path d="M123.177 238.809c.5-3.833 1.333-5.833.833-13s1.634-17.333 6.901-19.5m22.766 28.167s2.667-20.334-3.5-28.167m-30.211 316.355l-.456-.605m5.429 6.787c-.255-.3-.508-.601-.76-.903m9.497 10.51a219.094 219.094 0 0 1-3.627-3.838m13.315 13.324a277.955 277.955 0 0 1-4.581-4.363m16.394 14.733s-2.506-2.021-6.371-5.435" id="path108" fill="none" stroke="#0e0f0e" stroke-width="3" stroke-linecap="round" stroke-linejoin="round" stroke-miterlimit="10"/></g><path d="M108.532 120.773l1.313 8.528a1.148 1.148 0 0 0 2.281-.247l-.536-8.61a1.54 1.54 0 1 0-3.058.33" id="path110" fill="#0e0f0e"/><path d="M102.237 122.945l1.484 7.4a1.15 1.15 0 0 0 2.273-.319l-.607-7.521a1.593 1.593 0 1 0-3.15.44" id="path112" fill="#0e0f0e"/><path d="M97.193 124.58c.016-.001-.302.067-.353.124-.007.05.015.121.025.213l.115.758c.103.626.205 1.466.367 2.297.165.831.309 1.665.469 2.284.139.622.257 1.032.257 1.032a1.16 1.16 0 0 0 2.276-.298s.008-.428-.017-1.064c-.005-.64-.082-1.482-.137-2.328-.058-.845-.176-1.682-.238-2.314a224 224 0 0 1-.084-.762c-.014-.092-.01-.165-.031-.212-.064-.042-.389-.026-.373-.028l-2.276.298" id="path114" fill="#0e0f0e"/><path d="M91.52 126.924l1.535 6.156a1.15 1.15 0 0 0 2.259-.409l-.723-6.302a1.564 1.564 0 1 0-3.07.555" id="path116" fill="#0e0f0e"/><g id="g118" transform="translate(0 117.566) scale(.76514)"><path d="M195.878 699.209s-4.533-16.233 21.467-26.567c26-10.333 50.333-9.666 58-57 7.667-47.333 9.333-79 10.333-81s10.334-26.666 13.334-39.666c3-13 6-65 9-69.334 3-4.333 11.333-7.333 17-14.5 5.666-7.166 22-25.833 16.333-30.166-5.667-4.334-13.833 9.666-16.833 11.666-2.5 1-9.667 0-13 2-3.334 2-6.167 6.777-6.167 6.777M322.87 393s17.125-35.315 12.475-37.524c-5.875-2.792-16.167 21.5-19.667 27.333 0 0 10.75-31.3 4.917-32.8-6.707-1.725-13.917 27.633-13.917 27.633s6.375-26.201 1.542-27.583c-4.833-1.383-11.042 26.417-11.042 26.417s5-23.334-1-23.667c-6-.333-7 27.012-7 27.339-1 4.661-3.666 12.328-6.666 18.328-3 6 3 12 0 22.333-3 10.333-20.417 42.5-23.917 64.75s-3 24.25-3 24.25-15.84 43.5-16.84 52.5m76.923-179.5s-6.542-7.453-26.396-4.851" id="path120" fill="none" stroke="#0e0f0e" stroke-width="4" stroke-linecap="round" stroke-linejoin="round" stroke-miterlimit="10"/></g><g id="g122" transform="translate(0 117.566) scale(.76514)"><path d="M276.72 525.684c-5.338-.23-10.256-1.348-14.625-3.625m-48.583 140.417c-1.667-1.5-23.834-1.167-28.167-7" id="path124" fill="none" stroke="#0e0f0e" stroke-width="3" stroke-linecap="round" stroke-linejoin="round" stroke-miterlimit="10"/></g></g></g><g id="g126"><g id="g128" clip-path="url(#clipPath132)"><path d="M157.883 580.394c0-1.514 1.542-2.741 3.443-2.741 1.902 0 3.443 1.227 3.443 2.741 0 1.515-1.541 2.743-3.443 2.743-1.901 0-3.443-1.228-3.443-2.743" id="path134" fill="#0e0f0e"/><g id="g136" transform="translate(0 117.566) scale(.76514)"><path d="M248.345 610.642s-15-64.333-14-90.333 11-28 10.667-60.333c-.334-32.334 8.333-39.334 6.666-77.167-1.666-37.833-14.666-105.167-21-134.167-6.333-29-3.129-23.977-2.333-49.666 1.312-42.334-20.123-91.237-20.333-111.334 2.734-24.611 16.213-55.095 16.213-55.095 3.083-7.125 6.62-17.738-.755-20.113-.625-3.375-5-5-7.292-3.292-.458-3.083-5.916-5.166-7.333-1.833.458-3.5-5.25-5.375-8.167-3.333-4.375-3.709-11.875-3.125-11.788 9.928.025 3.802-3.414 7.906-2.914 19.406.403 9.254-.152 11.771-1.631 19.999-1.904 10.591-3.833 13.333-5.333 21.333-1.814 9.671 3.833 13.834 3.5 25.334-.537 18.529-5.03 75-4.348 89.166.681 14.167 2.848 19.5 3.014 29.334.167 9.833 1.834 23.166 1 32.666-.833 9.5-5.333 55.667-6.166 74.667-.834 19-.667 37.167-.667 37.167m34 32.666s-27.5-32.833-35.167-32.5h-3.834c-7.667-.333-35.167 32.5-35.167 32.5" id="path138" fill="none" stroke="#0e0f0e" stroke-width="4" stroke-linecap="round" stroke-linejoin="round" stroke-miterlimit="10"/></g></g></g><g id="g140"><g id="g142" clip-path="url(#clipPath146)"><g id="g148" transform="translate(0 117.566) scale(.76514)"><path d="M221.345 238.809c-.5-3.833-1.333-5.833-.833-13s-1.634-17.333-6.901-19.5m-22.766 28.167s-2.667-20.334 3.5-28.167m30.211 316.355l.456-.605m-5.429 6.787c.255-.3.508-.601.76-.903m-9.497 10.51a219.094 219.094 0 0 0 3.627-3.838m-13.315 13.324a274.093 274.093 0 0 0 4.58-4.363m-16.393 14.733s2.506-2.021 6.371-5.435" id="path150" fill="none" stroke="#0e0f0e" stroke-width="3" stroke-linecap="round" stroke-linejoin="round" stroke-miterlimit="10"/></g><path d="M152.018 120.443l-.536 8.611a1.148 1.148 0 0 0 2.282.247l1.312-8.528a1.539 1.539 0 1 0-3.058-.33" id="path152" fill="#0e0f0e"/><path d="M158.221 122.505l-.607 7.521a1.15 1.15 0 0 0 2.273.318l1.484-7.399a1.593 1.593 0 1 0-3.15-.44" id="path154" fill="#0e0f0e"/><path d="M164.183 124.239c.015.001-.31-.014-.373.028-.02.047-.018.12-.032.213l-.084.76c-.062.633-.18 1.47-.238 2.315-.055.846-.13 1.689-.136 2.328-.026.636-.017 1.063-.017 1.063a1.16 1.16 0 0 0 2.276.299s.118-.411.257-1.032c.16-.62.304-1.453.469-2.284.162-.832.263-1.671.366-2.298l.115-.757c.011-.092.032-.163.025-.214-.05-.057-.369-.125-.353-.122l-2.276-.3" id="path156" fill="#0e0f0e"/><path d="M169.017 126.369l-.723 6.302a1.151 1.151 0 0 0 2.26.41l1.533-6.157a1.563 1.563 0 1 0-3.07-.555" id="path158" fill="#0e0f0e"/><g id="g160" transform="translate(0 117.566) scale(.76514)"><path d="M133.305 744.059s-7.628 3.25-9.628-6.75 1.984-20.711 11.867-20.711" id="path162" fill="none" stroke="#0e0f0e" stroke-width="4" stroke-linecap="round" stroke-linejoin="round" stroke-miterlimit="10"/></g><path d="M109.748 689.066s.74.235 1.898.48c1.151.236 2.721.456 4.31.48a20.83 20.83 0 0 0 4.34-.333c1.165-.227 1.917-.489 1.917-.489.584-.2.894-.834.696-1.417a1.128 1.128 0 0 0-.962-.751s-.77-.065-1.895-.086c-1.126-.021-2.604.011-4.083.034l-4.11.075c-1.135.047-1.919.115-1.919.115a.967.967 0 0 0-.209 1.887l.017.005" id="path164" fill="#0e0f0e"/><path d="M128.292 684.598l-.958-9.683a.861.861 0 1 0-1.71.204l1.338 9.637a.67.67 0 0 0 1.33-.158" id="path166" fill="#0e0f0e"/><path d="M124.644 669.913l6.816-1.94-1.39-.019 5.733 1.877a.523.523 0 0 0 .482-.914l-4.788-3.67-.01-.008a1.147 1.147 0 0 0-1.38-.01l-5.69 4.224a.26.26 0 0 0 .227.46" id="path168" fill="#0e0f0e"/><path d="M124.166 659.524s.766-.07 1.916-.172a51.773 51.773 0 0 1 4.132-.205 48.273 48.273 0 0 1 4.131.151l1.905.158a.73.73 0 0 0 .364-1.39l-.012-.006s-.746-.34-1.933-.65a17.875 17.875 0 0 0-4.462-.57 18.737 18.737 0 0 0-4.458.543c-.59.133-1.104.314-1.419.418l-.51.191a.792.792 0 0 0 .346 1.532" id="path170" fill="#0e0f0e"/><path d="M122.698 681.664c0-1.188-2.071-1.718-5.162-1.718-3.09 0-5.594.53-5.594 1.718 0 1.189 2.505 2.152 5.594 2.152 3.09 0 5.162-.963 5.162-2.152" id="path172" fill="#0e0f0e"/></g></g><g id="g174"><g id="g176" clip-path="url(#clipPath180)"><g id="g182" transform="translate(0 117.566) scale(.76514)"><path d="M170.927 790.059c44 0 37.25-32 37.25-61s-27.5-41.25-37.25-41.25-37.25 12.25-37.25 41.25-6.75 61 37.25 61zm37.622-46s7.628 3.25 9.628-6.75-1.984-20.711-11.867-20.711" id="path184" fill="none" stroke="#0e0f0e" stroke-width="4" stroke-linecap="round" stroke-linejoin="round" stroke-miterlimit="10"/></g></g></g><g id="g186"><g id="g188" clip-path="url(#clipPath192)" fill="#0e0f0e"><path d="M151.626 687.174s-.784-.068-1.918-.115l-4.11-.075c-1.479-.023-2.957-.055-4.084-.034-1.125.02-1.894.086-1.894.086a1.116 1.116 0 0 0-.266 2.168s.752.262 1.917.49c1.164.223 2.75.379 4.34.331 1.588-.023 3.159-.243 4.31-.48a21.976 21.976 0 0 0 1.897-.48l.017-.004a.967.967 0 0 0-.209-1.886" id="path194"/><path d="M138.869 681.664c0-1.188 2.07-1.718 5.16-1.718 3.09 0 5.596.53 5.596 1.718 0 1.189-2.505 2.152-5.596 2.152-3.09 0-5.16-.963-5.16-2.152" id="path196"/><path d="M133.012 468.737s.038.323.04.892c-.024.554-.015 1.414-.366 2.261-.144.412-.477.836-.707.9-.256.103-.48-.033-.8-.47a4.167 4.167 0 0 1-.552-1.654 7.447 7.447 0 0 1-.07-.957c-.006-.163.008-.308.008-.462l.033-.51a7.941 7.941 0 0 1 .4-1.84c.2-.556.456-1.07.713-1.343.116-.148.226-.192.21-.169.02-.013-.098.055-.153.045-.062.002-.036-.003.02-.005l.12-.008c-.223.021-.151-.002-.215-.007-.088-.06.225.154.415.472.406.65.68 1.445.774 1.98.102.478.125.926.13.904v-.029zm2.284-.028c-.008-.022.045-.304.03-1.095-.054-.718-.037-1.767-.61-3.08-.31-.626-.702-1.479-1.977-2.005-1.63-.57-2.846.471-3.386 1.252-.55.83-.816 1.658-.947 2.491a10.44 10.44 0 0 0-.093 2.465l.065.58c.033.21.057.427.1.624.079.397.17.789.3 1.171.257.763.567 1.514 1.107 2.18.261.335.605.659 1.07.868.232.102.495.167.76.173.067 0-.008.009.173 0l.06-.006.118-.013c.049.002.267-.056.387-.096.956-.4 1.33-1.043 1.685-1.577a8.706 8.706 0 0 0 1.017-2.798c.12-.7.142-1.105.142-1.105v-.029" id="path198"/></g></g><g id="g200"><g id="g202" clip-path="url(#clipPath206)"><g id="g208" transform="translate(0 117.566) scale(.76514)"><path d="M449.878 393c-2.76-2.684-12.808-16.358-18.474-12.024-5.667 4.333 10.666 23 16.333 30.166 5.667 7.167 14 10.167 17 14.5 3 4.334 6 56.334 9 69.334s12.333 37.666 13.333 39.666 2.667 33.667 10.334 81c7.666 47.334 34.267 46.667 60.267 57 26 10.334 22.601 25.433 22.601 25.433-3.06 5.734-10.06 9.401-10.06 24.067M449.878 393s-17.124-35.315-12.474-37.524c5.875-2.792 16.166 21.5 19.666 27.333 0 0-10.75-31.3-4.916-32.8 6.707-1.725 13.916 27.633 13.916 27.633s-6.375-26.201-1.541-27.583c4.833-1.383 11.041 26.417 11.041 26.417s-5-23.334 1-23.667c6-.333 7.583 23.114 7.583 23.441 1 4.661 5.41 15.71 6.136 23.043.662 6.676-3.052 11.183-.052 21.516 3 10.333 20.417 42.5 23.917 64.75s3 24.25 3 24.25 15.84 43.5 16.84 52.5m-9.59 48.333s15-64.333 14-90.333-11-28-10.667-60.333c.333-32.334-8.333-39.334-6.667-77.167 1.667-37.833 14.667-105.167 21-134.167 6.334-29 3.13-23.977 2.334-49.666-1.312-42.334 20.123-91.237 20.333-111.334-2.734-24.611-16.213-55.095-16.213-55.095-3.084-7.125-6.62-17.738.755-20.113.625-3.375 5-5 7.291-3.292.459-3.083 5.917-5.166 7.334-1.833-.459-3.5 5.25-5.375 8.166-3.333 4.375-3.709 11.875-3.125 11.789 9.928-.025 3.802 2.818 5.128 2.858 14.404.041 9.263-.438 11.12-.54 19.251-.135 10.76 5.694 17.517 7.194 25.517 1.813 9.67-3.383 11.775-3.049 23.275.537 18.529 4.944 78.625 4.263 92.791-.681 14.167-2.848 19.5-3.015 29.334-.166 9.833-1.833 23.166-1 32.666.834 9.5 5.334 55.667 6.167 74.667.833 19 1.234 35.434 1.234 35.434" id="path210" fill="none" stroke="#0e0f0e" stroke-width="4" stroke-linecap="round" stroke-linejoin="round" stroke-miterlimit="10"/></g></g></g><g id="g212"><g id="g214" clip-path="url(#clipPath218)" fill="#0e0f0e"><path d="M436.186 120.773l1.312 8.528a1.15 1.15 0 0 0 2.282-.247l-.537-8.61a1.54 1.54 0 1 0-3.057.33" id="path220"/><path d="M429.89 122.945l1.485 7.4a1.15 1.15 0 0 0 2.273-.319l-.607-7.521a1.594 1.594 0 0 0-3.175.256c.005.06.014.127.025.184" id="path222"/><path d="M424.847 124.58c.016-.001-.302.067-.353.124-.008.05.014.121.025.213l.115.758c.103.626.205 1.466.366 2.297.165.831.31 1.665.47 2.284.138.622.257 1.032.257 1.032a1.16 1.16 0 0 0 2.275-.298s.008-.428-.017-1.064c-.005-.64-.081-1.482-.136-2.328-.058-.845-.176-1.682-.238-2.314l-.084-.762c-.013-.092-.01-.165-.031-.212-.064-.042-.389-.026-.373-.028l-2.276.298" id="path224"/><path d="M419.175 126.924l1.533 6.156a1.15 1.15 0 0 0 2.26-.409l-.724-6.302a1.562 1.562 0 1 0-3.069.555" id="path226"/></g></g><g id="g228"><g id="g230" clip-path="url(#clipPath234)"><g id="g236" transform="translate(0 117.566) scale(.76514)"><path d="M568.306 716.598c-9.883 0-13.867 10.711-11.867 20.711 2 10 9.628 6.75 9.628 6.75s-8.84 46.25 36.827 46.25" id="path238" fill="none" stroke="#0e0f0e" stroke-width="4" stroke-linecap="round" stroke-linejoin="round" stroke-miterlimit="10"/></g><g id="g240" transform="translate(0 117.566) scale(.76514)"><path d="M545.733 24.767s5.694-7.341 27.319-9.212m13.125 62.912s-2.529 5.546-11.404 2.296m-17.929 144.546s12.333 3 20.666 0m-6.366 226.144c2.966-1.535 5.872-3.466 8.533-5.894m-23.456 10.816a57.007 57.007 0 0 0 8.58-2.216m-20.624 3.15s1.657.098 4.356-.045m-42.244 46.851a19.783 19.783 0 0 0-1.653-2.328m5.519 11.855a46.299 46.299 0 0 0-1.619-4.942m3.891 19.359s-.156-3.817-1.026-8.759m-21.349-10.6a52.752 52.752 0 0 1-.125-3.641m2.761 16.39a45.244 45.244 0 0 1-1.809-6.525m7.298 16.635s-1.688-1.893-3.538-5.564m78.734 41.966a44.253 44.253 0 0 0-2.196-2.652m8.261 13.331a47.407 47.407 0 0 0-2.483-5.204m5.547 15.892a56.855 56.855 0 0 0-1.416-5.966m2.392 22.193a77.689 77.689 0 0 0-.018-7.998m-3.783 29.752s1.657-4.843 2.809-12.163" id="path242" fill="none" stroke="#0e0f0e" stroke-width="3" stroke-linecap="round" stroke-linejoin="round" stroke-miterlimit="10"/></g><g id="g244" transform="translate(0 117.566) scale(.76514)"><path d="M755.909 393c2.76-2.684 12.808-16.358 18.474-12.024 5.667 4.333-10.666 23-16.333 30.166-5.667 7.167-14 10.167-17 14.5-3 4.334-6 56.334-9 69.334s-12.333 37.666-13.333 39.666-2.667 33.667-10.334 81c-7.666 47.334-36.535 46.667-62.535 57-26 10.334-20.333 25.433-20.333 25.433 3.06 5.734 10.06 9.401 10.06 24.067M755.909 393s17.124-35.315 12.474-37.524c-5.875-2.792-16.166 21.5-19.666 27.333 0 0 10.75-31.3 4.916-32.8-6.707-1.725-13.916 27.633-13.916 27.633s6.375-26.201 1.541-27.583c-4.833-1.383-11.041 26.417-11.041 26.417s5-23.334-1-23.667c-6-.333-7.583 23.114-7.583 23.441-1 4.661-5.41 15.71-6.136 23.043-.662 6.676 3.052 11.183.052 21.516-3 10.333-20.417 42.5-23.917 64.75s-3 24.25-3 24.25-15.84 43.5-16.84 52.5m9.59 48.333s-15-64.333-14-90.333 11-28 10.667-60.333c-.333-32.334 8.333-39.334 6.667-77.167-1.667-37.833-14.667-105.167-21-134.167-6.334-29-3.13-23.977-2.334-49.666 1.313-42.334-20.123-91.237-20.333-111.334 2.734-24.611 16.213-55.095 16.213-55.095 3.084-7.125 6.62-17.738-.755-20.113-.625-3.375-5-5-7.291-3.292-.459-3.083-5.917-5.166-7.334-1.833.459-3.5-5.25-5.375-8.166-3.333-4.375-3.709-11.875-3.125-11.789 9.928.025 3.802-2.818 5.128-2.858 14.404-.041 9.263.438 11.12.54 19.251.135 10.76-5.694 17.517-7.194 25.517-1.813 9.67 3.383 11.775 3.05 23.275-.538 18.529-4.945 78.625-4.264 92.791.681 14.167 2.848 19.5 3.015 29.334.166 9.833 1.833 23.166 1 32.666-.834 9.5-5.334 55.667-6.167 74.667-.833 19-1.233 35.434-1.233 35.434" id="path246" fill="none" stroke="#0e0f0e" stroke-width="4" stroke-linecap="round" stroke-linejoin="round" stroke-miterlimit="10"/></g></g></g><g id="g248"><g id="g250" clip-path="url(#clipPath254)" fill="#0e0f0e"><path d="M486.412 120.773l-1.312 8.528a1.15 1.15 0 0 1-2.283-.247l.537-8.61a1.54 1.54 0 1 1 3.058.33" id="path256"/><path d="M492.707 122.945l-1.484 7.4a1.15 1.15 0 0 1-2.273-.319l.607-7.521a1.594 1.594 0 0 1 3.175.256c-.005.06-.015.127-.025.184" id="path258"/><path d="M497.75 124.58c-.016-.001.303.067.353.124.008.05-.013.121-.024.213l-.115.758c-.103.626-.206 1.466-.366 2.297-.166.831-.31 1.665-.47 2.284-.139.622-.257 1.032-.257 1.032a1.16 1.16 0 0 1-2.276-.298s-.008-.428.018-1.064c.005-.64.08-1.482.135-2.328.059-.845.177-1.682.239-2.314l.084-.762c.013-.092.01-.165.031-.212.063-.042.388-.026.372-.028l2.277.298" id="path260"/><path d="M503.423 126.924l-1.534 6.156a1.15 1.15 0 0 1-2.258-.409l.723-6.302a1.562 1.562 0 1 1 3.069.555" id="path262"/></g></g><g id="g264"><g id="g266" clip-path="url(#clipPath270)"><g id="g272" transform="translate(0 117.566) scale(.76514)"><path d="M637.481 716.598c9.883 0 13.867 10.711 11.867 20.711-2 10-9.628 6.75-9.628 6.75s8.84 46.25-36.826 46.25" id="path274" fill="none" stroke="#0e0f0e" stroke-width="4" stroke-linecap="round" stroke-linejoin="round" stroke-miterlimit="10"/></g></g></g><g id="g276"><g id="g278" clip-path="url(#clipPath282)"><g id="g284" transform="translate(0 117.566) scale(.76514)"><path d="M660.054 24.767s-5.694-7.341-27.319-9.212M619.61 78.467s2.529 5.546 11.404 2.296m17.929 144.546s-12.333 3-20.666 0" id="path286" fill="none" stroke="#0e0f0e" stroke-width="3" stroke-linecap="round" stroke-linejoin="round" stroke-miterlimit="10"/></g><g id="g288" transform="translate(0 117.566) scale(.76514)"><path d="M657.154 357.041s-54.26-21-54.26 23.5c0-44.5-54.261-23.5-54.261-23.5" id="path290" fill="none" stroke="#0e0f0e" stroke-width="4" stroke-linecap="round" stroke-linejoin="round" stroke-miterlimit="10"/></g><g id="g292" transform="translate(0 117.566) scale(.76514)"><path d="M634.643 451.453c-2.966-1.535-5.872-3.466-8.533-5.894m23.456 10.816a57.007 57.007 0 0 1-8.58-2.216m20.624 3.15s-1.657.098-4.356-.045m42.244 46.851a19.783 19.783 0 0 1 1.653-2.328m-5.519 11.855a46.299 46.299 0 0 1 1.619-4.942m-3.891 19.359s.156-3.817 1.026-8.759m21.349-10.6c.081-1.171.125-2.385.125-3.641m-2.761 16.39a45.244 45.244 0 0 0 1.809-6.525m-7.298 16.635s1.688-1.893 3.538-5.564m-78.734 41.966a44.253 44.253 0 0 1 2.196-2.652m-8.261 13.331a47.407 47.407 0 0 1 2.483-5.204m-5.547 15.892a56.855 56.855 0 0 1 1.416-5.966m-2.392 22.193a77.689 77.689 0 0 1 .018-7.998m3.783 29.752s-1.657-4.843-2.809-12.163" id="path294" fill="none" stroke="#0e0f0e" stroke-width="3" stroke-linecap="round" stroke-linejoin="round" stroke-miterlimit="10"/></g><path d="M457.462 391.34c0 1.531 7.688 1.531 7.688 0l-3.85 10.84-3.838-10.84" id="path296" fill="#0e0f0e"/></g></g></g><g id="layer1" transform="translate(3.536 -153.52)" opacity="0" fill="red"><path d="M175.362 154.49l26.87 5.304 9.546 11.667 14.85 37.123v19.092l-15.91 16.617-7.425 13.082-29.345 10.96-26.163-10.607-22.274-22.98-5.303-18.385 10.607-32.88 12.02-21.214 9.193-4.243z" id="head-front"/><path d="M149.553 258.082l24.749 10.607 30.759-11.314 4.95 9.546 18.384 9.9-12.02 10.606-80.61.707-10.607-12.728 16.263-9.192 4.243-8.486z" id="neck-front"/><path d="M258.801 433.798l33.941-7.778 5.657-.707 10.607 34.648 7.07 67.175 2.83 4.95-33.235 10.606-21.213-50.204-7.071-36.063-4.95-20.506z" id="left-arm-lower-front"/><path d="M52.326 427.434l26.163 4.243 19.799 7.778-3.536 9.192-2.828 29.699L68.589 533.5l-2.828 7.071-33.234-13.435 5.657-49.497 3.535-22.628z" id="right-arm-lower-front"/><path d="M284.257 544.107l39.598-12.728 7.778 10.606-1.414 25.456-14.85 9.193-16.97 2.828h-8.485l-8.485-24.042z" id="left-palm"/><path d="M31.82 527.843l35.355 14.142 1.414 14.142-7.778 23.335-16.263-1.414-14.142-5.657-10.607-8.485V540.57z" id="right-palm"/><path d="M289.914 580.17l6.364 28.283 18.385 5.657 16.263-1.414 2.828-7.071 5.657 3.535 10.607-4.95-7.071-22.627h10.606l3.536-10.606-25.456-29.699-1.414 26.163-11.314 7.778-13.435 2.829z" id="left-fingers-front"/><path d="M18.738 541.985L1.414 563.2l-4.95 12.374 6.01 7.778 7.425-2.475-5.303 21.213 1.06 4.95 4.243 2.122 7.779-4.597 2.828 9.9 10.96-1.768 19.092-1.414 7.071-4.596 2.475-15.203-.707-12.728H44.901l-14.495-5.657-11.668-9.546z" id="right-fingers-front"/><path d="M51.972 427.434l4.95-8.839 6.718-71.064 7.424-31.466 12.375-21.92 19.445-10.96 22.627-7.425 8.486 11.313-35.002 55.508 8.839 48.437-1.06 18.385-8.84 30.052-21.566-8.132z" id="right-arm-upper-front"/><path d="M217.082 287.427l12.02-11.314 31.467 13.435 11.667 11.314 10.96 22.98 4.596 28.639 7.072 55.861 3.182 16.264-45.255 12.02-8.84-27.223-.706-15.91 4.95-24.749 4.95-26.163z" id="left-arm-upper-front"/><path d="M99.349 341.874l34.648-54.094h82.731l36.416 54.801-11.667 62.58-2.828 30.051-126.219-.353-4.95-43.134z" id="chest"/><path d="M137.179 561.43l25.81 28.992 14.495 7.071 15.91-12.02 21.92-23.689-7.071-15.91-67.882.354z" id="groin"/><path d="M94.5 523.02l-5 33.5 1.5 41 1 9.5 19-13 5-63z" id="right-hip-front"/><path d="M231.5 531.52l26-6.5 4 34-1 28-2.5 22.5-19.5-11z" id="left-hip-front"/><path d="M108.5 434.52l-6 24.5-4 18.5-5 46 22 6.5-.5 16.5 117-2-1-13 26.5-6.5-5-55.5-10.5-35.5z" id="abdomen"/><path d="M118.5 721.02l49.5-1.5 4 40-57.5-2 1-23-2.5-13.5z" id="right-knee"/><path d="M181.5 719.52l57-1-3.5 19 3 22h-60z" id="left-knee"/><path d="M92 606.02l21 114.5h56l5.5-54 1.5-42.5v-27l-13-6.5-26-27.5 3-16-25-1-4 48.5z" id="right-leg-upper-front"/><path d="M207.5 545.02l9 17.5-23.5 25.5-16.5 10v43.5l1.5 27.5 3.5 36.5v14.5l56.5-1 8.5-39.5 11.5-69.5-20-11.5-6-54z" id="left-leg-upper-front"/><path d="M116 936.52l48 13-2.5 15-8.5 4-36-11.5-4-12.5z" id="right-toes-front"/><path d="M187.5 949.77l48.5-9.75.5 10.25-5.25 7.75-17.25 8-18.75 2.75-7-8z" id="left-toes-front"/><path d="M217 882.27l6.25 25.5L236 940.52l-49 9.25-2-11.5.25-16.75-7.75-36" id="left-foot-front"/><path d="M163.5 949.52l2.25-10.75-.5-14.75 7.75-39.5-38.75-4.25-3.5 18.5-14.5 37.75z" id="right-foot-front"/><path d="M134.25 880.27l38.5 4.75-2.5-13.25-1-11.5-38.25-4 4 14z" id="right-ankle"/><path d="M181.75 860.27l.5 9.5-4.5 16 40-3.5-2.25-6.75 3.25-17z" id="left-ankle"/><path d="M114.25 757.77l.75 23.75 5 30.75 11 44 38.25 4.25 3.75-62 1.25-26.25-2-13z" id="right-leg-lower-front"/><path d="M177.75 759.52v14l1.5 34.5 2.75 52 36.75-1.5 11.75-41 5.75-32 .25-26z" id="left-leg-lower-front"/><path d="M572.5 202.02l.5-22 13-18.5 28-8 30.5 8 13 22.5 1 18 7.5 6.5 1.5 19.5-6 9-9 2-9 16-57.5-.5-8-16-11.5-3.5-4-16.5 3-13.5z" id="head-back"/><path d="M587 254.52l56.5 1 1 8.5 13.5 10-6.5 13.5-74-1-10-11 15-9.5 4.5-7.5z" id="neck-back"/><path d="M492.5 416.52l46.5 11.5-7 19-1.5 14.5-50-12z" id="left-elbow-back"/><path d="M692 428.52l44.5-13.5 11.5 32-48 17.5-2.5-19.5z" id="right-elbow-back"/><path d="M456.5 539.02l4 22 8 11.5 17.5 7.5 12.5 2.5-5 23.5-20.5 7-15-1-3.75-6.5-10.25 3.25-3.75-3.75 3.5-20.5-7.5-4.25-2-10.25 9-15.25z" id="left-fingers-back"/><path d="M456 539.02l15.5-11.5 32 11.25-.75 7 1.75 10.5-6.25 26.25-13.25-2.75-16.5-7.25-8.25-11.25z" id="left-hand-back"/><path d="M732.25 579.27l13.75.5 10.25-2.25 14.5-14.5 1.5-22.25 13.25 15 9 13.25v11l-10 2.5 4.5 16.5.25 4.75-4 4.25-9.75-2.5-5 10.5-9-2-15.25-2.75-11-4.25-3.5-16z" id="right-fingers-back"/><path d="M726.25 538.27l32-12 2 4 12.5 10.75-2 22-14.75 14.5-11.5 2.25-13.25-.5-6.25-20.25z" id="right-hand-back"/><path d="M480.48 449.708l-3.536 16.97-5.657 60.458 33.234 11.667 20.506-48.083 5.303-29.345z" id="left-arm-lower-back"/><path d="M700.036 464.204l48.083-17.325 3.89 18.385 6.363 61.519-32.527 12.727-14.85-37.123-8.13-18.738z" id="right-arm-lower-back"/><path d="M538.462 427.788l7.424-30.76-10.606-54.447 42.426-56.215-10.606-10.96-34.649 12.02-21.213 20.153-8.132 26.517-4.95 39.244-6.363 43.134z" id="left-arm-upper-back"/><path d="M657.61 273.638l35.001 13.082 22.628 15.203 8.485 20.506 7.07 38.183 5.304 54.801-44.548 13.435-7.07-30.759 10.96-55.508-44.548-55.154z" id="right-arm-upper-back"/><path d="M549.068 430.262l43.487-19.799 43.841-.353 45.255 13.789 2.828-26.517 10.607-55.861-44.194-54.448-74.246-1.06-41.72 55.861 10.607 55.154z" id="back-upper"/><path d="M533.159 506.63l-6.718 44.548v27.93l4.243 33.942 24.395-12.728-1.768-90.156z" id="left-hip-back"/><path d="M696.5 503.802l2.122 21.213 5.303 26.87-1.06 30.405-2.476 26.163-24.748-8.485-.354-91.924z" id="right-hip-back"/><path d="M554.725 601.029l20.86 6.01 21.567.354 17.324-6.01 19.799 5.656 21.567.354 19.799-7.425-.354-91.924-39.421 3.359-13.612 39.068-12.728-.707-16.087-38.361-40.128-.884z" id="buttocks"/><path d="M609.88 550.47l-22.981-54.447h55.861l-20.86 54.448z" id="sacrum"/><path d="M546.594 429.909l-1.768 16.617-8.132 24.395-2.121 25.456-1.414 10.253 19.799 4.596h41.365l-8.131-15.556 56.568.707-7.778 15.556 40.659-3.889 20.506-4.596v-23.334l-10.607-32.881-1.06-23.334-48.437-13.79-44.902.708z" id="back-lower"/><path d="M623.315 737.147l28.284-2.475 25.102 3.535 3.182-21.213 12.021-54.8 7.778-54.448-24.395-7.424-21.92 7.424-20.506-.353-16.264-4.95.707 32.527 4.243 42.78 2.475 35.709z" id="right-leg-upper-back"/><path d="M606.344 737.854l-.707-21.213 4.596-48.437 3.182-51.619-.353-14.85-19.8 7.072-28.284-2.828-12.02-4.597-22.628 11.668 12.02 69.65 7.072 34.648 3.535 15.203-.353 4.95 27.577-2.829z" id="left-leg-upper-back"/><path d="M572.05 884.579l14.495-6.01 11.667 1.413 10.607 10.607-3.182 11.314-2.475 4.242-35.709-9.546z" id="left-heel"/><path d="M620.133 885.64l11.313-6.011 18.385-.354 9.546 6.01 2.475 11.314-37.477 6.364-3.889-8.838z" id="right-heel"/><path d="M552.25 937.612l18.739 8.131 14.495 2.475 15.203.707-3.535 13.789-5.657 6.01-21.567-4.95-14.496-5.656-4.95-10.96z" id="left-toes-back"/><path d="M628.971 947.865l18.739-1.061 16.617-4.243 13.081-5.657 1.415 10.96-4.243 8.486-16.97 9.192-19.8 3.182-7.424-6.01z" id="right-toes-back"/><path d="M567.1 895.892l-14.85 41.012 17.325 8.132 15.556 2.829 15.91.707 2.121-11.314-1.768-22.627 2.122-9.193z" id="left-foot-back"/><path d="M624.375 902.963l4.243 10.253-1.768 23.688 2.121 10.96 19.092-1.414 17.678-3.889 10.96-5.657-14.85-41.012z" id="right-foot-back"/><path d="M552.25 736.793l-1.767 27.931 3.182 32.527 10.253 45.255 7.778 28.991-.354 14.142 15.203-7.778 12.02 2.475 10.607 10.96.354-10.253-3.535-8.132 3.535-73.185.707-26.517-.707-17.324-3.535-18.385-27.224-3.182z" id="left-leg-lower-back"/><path d="M622.608 737.5l-.708 12.728-2.828 21.214 2.121 37.83 3.182 58.336-3.889 18.031 9.9-6.364h19.092l10.606 6.364-2.475-11.667 15.557-59.75 5.303-34.649.707-27.223-2.828-14.496-26.87-3.182z" id="right-leg-lower-back"/></g></svg>